<?xml version="1.0" encoding="utf-8" standalone="no"?>
<!DOCTYPE svg PUBLIC "-//W3C//DTD SVG 1.1//EN"
  "http://www.w3.org/Graphics/SVG/1.1/DTD/svg11.dtd">
<svg xmlns:xlink="http://www.w3.org/1999/xlink" width="460.8pt" height="345.6pt" viewBox="0 0 460.8 345.6" xmlns="http://www.w3.org/2000/svg" version="1.1">
 <metadata>
  <rdf:RDF xmlns:dc="http://purl.org/dc/elements/1.1/" xmlns:cc="http://creativecommons.org/ns#" xmlns:rdf="http://www.w3.org/1999/02/22-rdf-syntax-ns#">
   <cc:Work>
    <dc:type rdf:resource="http://purl.org/dc/dcmitype/StillImage"/>
    <dc:date>2022-10-11T11:07:06.480160</dc:date>
    <dc:format>image/svg+xml</dc:format>
    <dc:creator>
     <cc:Agent>
      <dc:title>Matplotlib v3.5.0, https://matplotlib.org/</dc:title>
     </cc:Agent>
    </dc:creator>
   </cc:Work>
  </rdf:RDF>
 </metadata>
 <defs>
  <style type="text/css">*{stroke-linejoin: round; stroke-linecap: butt}</style>
 </defs>
 <g id="figure_1">
  <g id="patch_1">
   <path d="M 0 345.6 
L 460.8 345.6 
L 460.8 0 
L 0 0 
z
" style="fill: #ffffff"/>
  </g>
  <g id="axes_1">
   <g id="patch_2">
    <path d="M 57.6 307.584 
L 414.72 307.584 
L 414.72 41.472 
L 57.6 41.472 
z
" style="fill: #ffffff"/>
   </g>
   <g id="matplotlib.axis_1">
    <g id="xtick_1">
     <g id="line2d_1">
      <defs>
       <path id="m3a5041bdfd" d="M 0 0 
L 0 3.5 
" style="stroke: #000000; stroke-width: 0.8"/>
      </defs>
      <g>
       <use xlink:href="#m3a5041bdfd" x="73.832727" y="307.584" style="stroke: #000000; stroke-width: 0.8"/>
      </g>
     </g>
     <g id="text_1">
      <!-- 0 -->
      <g transform="translate(70.651477 322.182437)scale(0.1 -0.1)">
       <defs>
        <path id="DejaVuSans-30" d="M 2034 4250 
Q 1547 4250 1301 3770 
Q 1056 3291 1056 2328 
Q 1056 1369 1301 889 
Q 1547 409 2034 409 
Q 2525 409 2770 889 
Q 3016 1369 3016 2328 
Q 3016 3291 2770 3770 
Q 2525 4250 2034 4250 
z
M 2034 4750 
Q 2819 4750 3233 4129 
Q 3647 3509 3647 2328 
Q 3647 1150 3233 529 
Q 2819 -91 2034 -91 
Q 1250 -91 836 529 
Q 422 1150 422 2328 
Q 422 3509 836 4129 
Q 1250 4750 2034 4750 
z
" transform="scale(0.015625)"/>
       </defs>
       <use xlink:href="#DejaVuSans-30"/>
      </g>
     </g>
    </g>
    <g id="xtick_2">
     <g id="line2d_2">
      <g>
       <use xlink:href="#m3a5041bdfd" x="114.516254" y="307.584" style="stroke: #000000; stroke-width: 0.8"/>
      </g>
     </g>
     <g id="text_2">
      <!-- 50 -->
      <g transform="translate(108.153754 322.182437)scale(0.1 -0.1)">
       <defs>
        <path id="DejaVuSans-35" d="M 691 4666 
L 3169 4666 
L 3169 4134 
L 1269 4134 
L 1269 2991 
Q 1406 3038 1543 3061 
Q 1681 3084 1819 3084 
Q 2600 3084 3056 2656 
Q 3513 2228 3513 1497 
Q 3513 744 3044 326 
Q 2575 -91 1722 -91 
Q 1428 -91 1123 -41 
Q 819 9 494 109 
L 494 744 
Q 775 591 1075 516 
Q 1375 441 1709 441 
Q 2250 441 2565 725 
Q 2881 1009 2881 1497 
Q 2881 1984 2565 2268 
Q 2250 2553 1709 2553 
Q 1456 2553 1204 2497 
Q 953 2441 691 2322 
L 691 4666 
z
" transform="scale(0.015625)"/>
       </defs>
       <use xlink:href="#DejaVuSans-35"/>
       <use xlink:href="#DejaVuSans-30" x="63.623047"/>
      </g>
     </g>
    </g>
    <g id="xtick_3">
     <g id="line2d_3">
      <g>
       <use xlink:href="#m3a5041bdfd" x="155.199781" y="307.584" style="stroke: #000000; stroke-width: 0.8"/>
      </g>
     </g>
     <g id="text_3">
      <!-- 100 -->
      <g transform="translate(145.656031 322.182437)scale(0.1 -0.1)">
       <defs>
        <path id="DejaVuSans-31" d="M 794 531 
L 1825 531 
L 1825 4091 
L 703 3866 
L 703 4441 
L 1819 4666 
L 2450 4666 
L 2450 531 
L 3481 531 
L 3481 0 
L 794 0 
L 794 531 
z
" transform="scale(0.015625)"/>
       </defs>
       <use xlink:href="#DejaVuSans-31"/>
       <use xlink:href="#DejaVuSans-30" x="63.623047"/>
       <use xlink:href="#DejaVuSans-30" x="127.246094"/>
      </g>
     </g>
    </g>
    <g id="xtick_4">
     <g id="line2d_4">
      <g>
       <use xlink:href="#m3a5041bdfd" x="195.883308" y="307.584" style="stroke: #000000; stroke-width: 0.8"/>
      </g>
     </g>
     <g id="text_4">
      <!-- 150 -->
      <g transform="translate(186.339558 322.182437)scale(0.1 -0.1)">
       <use xlink:href="#DejaVuSans-31"/>
       <use xlink:href="#DejaVuSans-35" x="63.623047"/>
       <use xlink:href="#DejaVuSans-30" x="127.246094"/>
      </g>
     </g>
    </g>
    <g id="xtick_5">
     <g id="line2d_5">
      <g>
       <use xlink:href="#m3a5041bdfd" x="236.566835" y="307.584" style="stroke: #000000; stroke-width: 0.8"/>
      </g>
     </g>
     <g id="text_5">
      <!-- 200 -->
      <g transform="translate(227.023085 322.182437)scale(0.1 -0.1)">
       <defs>
        <path id="DejaVuSans-32" d="M 1228 531 
L 3431 531 
L 3431 0 
L 469 0 
L 469 531 
Q 828 903 1448 1529 
Q 2069 2156 2228 2338 
Q 2531 2678 2651 2914 
Q 2772 3150 2772 3378 
Q 2772 3750 2511 3984 
Q 2250 4219 1831 4219 
Q 1534 4219 1204 4116 
Q 875 4013 500 3803 
L 500 4441 
Q 881 4594 1212 4672 
Q 1544 4750 1819 4750 
Q 2544 4750 2975 4387 
Q 3406 4025 3406 3419 
Q 3406 3131 3298 2873 
Q 3191 2616 2906 2266 
Q 2828 2175 2409 1742 
Q 1991 1309 1228 531 
z
" transform="scale(0.015625)"/>
       </defs>
       <use xlink:href="#DejaVuSans-32"/>
       <use xlink:href="#DejaVuSans-30" x="63.623047"/>
       <use xlink:href="#DejaVuSans-30" x="127.246094"/>
      </g>
     </g>
    </g>
    <g id="xtick_6">
     <g id="line2d_6">
      <g>
       <use xlink:href="#m3a5041bdfd" x="277.250362" y="307.584" style="stroke: #000000; stroke-width: 0.8"/>
      </g>
     </g>
     <g id="text_6">
      <!-- 250 -->
      <g transform="translate(267.706612 322.182437)scale(0.1 -0.1)">
       <use xlink:href="#DejaVuSans-32"/>
       <use xlink:href="#DejaVuSans-35" x="63.623047"/>
       <use xlink:href="#DejaVuSans-30" x="127.246094"/>
      </g>
     </g>
    </g>
    <g id="xtick_7">
     <g id="line2d_7">
      <g>
       <use xlink:href="#m3a5041bdfd" x="317.933889" y="307.584" style="stroke: #000000; stroke-width: 0.8"/>
      </g>
     </g>
     <g id="text_7">
      <!-- 300 -->
      <g transform="translate(308.390139 322.182437)scale(0.1 -0.1)">
       <defs>
        <path id="DejaVuSans-33" d="M 2597 2516 
Q 3050 2419 3304 2112 
Q 3559 1806 3559 1356 
Q 3559 666 3084 287 
Q 2609 -91 1734 -91 
Q 1441 -91 1130 -33 
Q 819 25 488 141 
L 488 750 
Q 750 597 1062 519 
Q 1375 441 1716 441 
Q 2309 441 2620 675 
Q 2931 909 2931 1356 
Q 2931 1769 2642 2001 
Q 2353 2234 1838 2234 
L 1294 2234 
L 1294 2753 
L 1863 2753 
Q 2328 2753 2575 2939 
Q 2822 3125 2822 3475 
Q 2822 3834 2567 4026 
Q 2313 4219 1838 4219 
Q 1578 4219 1281 4162 
Q 984 4106 628 3988 
L 628 4550 
Q 988 4650 1302 4700 
Q 1616 4750 1894 4750 
Q 2613 4750 3031 4423 
Q 3450 4097 3450 3541 
Q 3450 3153 3228 2886 
Q 3006 2619 2597 2516 
z
" transform="scale(0.015625)"/>
       </defs>
       <use xlink:href="#DejaVuSans-33"/>
       <use xlink:href="#DejaVuSans-30" x="63.623047"/>
       <use xlink:href="#DejaVuSans-30" x="127.246094"/>
      </g>
     </g>
    </g>
    <g id="xtick_8">
     <g id="line2d_8">
      <g>
       <use xlink:href="#m3a5041bdfd" x="358.617416" y="307.584" style="stroke: #000000; stroke-width: 0.8"/>
      </g>
     </g>
     <g id="text_8">
      <!-- 350 -->
      <g transform="translate(349.073666 322.182437)scale(0.1 -0.1)">
       <use xlink:href="#DejaVuSans-33"/>
       <use xlink:href="#DejaVuSans-35" x="63.623047"/>
       <use xlink:href="#DejaVuSans-30" x="127.246094"/>
      </g>
     </g>
    </g>
    <g id="xtick_9">
     <g id="line2d_9">
      <g>
       <use xlink:href="#m3a5041bdfd" x="399.300943" y="307.584" style="stroke: #000000; stroke-width: 0.8"/>
      </g>
     </g>
     <g id="text_9">
      <!-- 400 -->
      <g transform="translate(389.757193 322.182437)scale(0.1 -0.1)">
       <defs>
        <path id="DejaVuSans-34" d="M 2419 4116 
L 825 1625 
L 2419 1625 
L 2419 4116 
z
M 2253 4666 
L 3047 4666 
L 3047 1625 
L 3713 1625 
L 3713 1100 
L 3047 1100 
L 3047 0 
L 2419 0 
L 2419 1100 
L 313 1100 
L 313 1709 
L 2253 4666 
z
" transform="scale(0.015625)"/>
       </defs>
       <use xlink:href="#DejaVuSans-34"/>
       <use xlink:href="#DejaVuSans-30" x="63.623047"/>
       <use xlink:href="#DejaVuSans-30" x="127.246094"/>
      </g>
     </g>
    </g>
    <g id="text_10">
     <!-- Generation -->
     <g transform="translate(208.267031 335.860562)scale(0.1 -0.1)">
      <defs>
       <path id="DejaVuSans-47" d="M 3809 666 
L 3809 1919 
L 2778 1919 
L 2778 2438 
L 4434 2438 
L 4434 434 
Q 4069 175 3628 42 
Q 3188 -91 2688 -91 
Q 1594 -91 976 548 
Q 359 1188 359 2328 
Q 359 3472 976 4111 
Q 1594 4750 2688 4750 
Q 3144 4750 3555 4637 
Q 3966 4525 4313 4306 
L 4313 3634 
Q 3963 3931 3569 4081 
Q 3175 4231 2741 4231 
Q 1884 4231 1454 3753 
Q 1025 3275 1025 2328 
Q 1025 1384 1454 906 
Q 1884 428 2741 428 
Q 3075 428 3337 486 
Q 3600 544 3809 666 
z
" transform="scale(0.015625)"/>
       <path id="DejaVuSans-65" d="M 3597 1894 
L 3597 1613 
L 953 1613 
Q 991 1019 1311 708 
Q 1631 397 2203 397 
Q 2534 397 2845 478 
Q 3156 559 3463 722 
L 3463 178 
Q 3153 47 2828 -22 
Q 2503 -91 2169 -91 
Q 1331 -91 842 396 
Q 353 884 353 1716 
Q 353 2575 817 3079 
Q 1281 3584 2069 3584 
Q 2775 3584 3186 3129 
Q 3597 2675 3597 1894 
z
M 3022 2063 
Q 3016 2534 2758 2815 
Q 2500 3097 2075 3097 
Q 1594 3097 1305 2825 
Q 1016 2553 972 2059 
L 3022 2063 
z
" transform="scale(0.015625)"/>
       <path id="DejaVuSans-6e" d="M 3513 2113 
L 3513 0 
L 2938 0 
L 2938 2094 
Q 2938 2591 2744 2837 
Q 2550 3084 2163 3084 
Q 1697 3084 1428 2787 
Q 1159 2491 1159 1978 
L 1159 0 
L 581 0 
L 581 3500 
L 1159 3500 
L 1159 2956 
Q 1366 3272 1645 3428 
Q 1925 3584 2291 3584 
Q 2894 3584 3203 3211 
Q 3513 2838 3513 2113 
z
" transform="scale(0.015625)"/>
       <path id="DejaVuSans-72" d="M 2631 2963 
Q 2534 3019 2420 3045 
Q 2306 3072 2169 3072 
Q 1681 3072 1420 2755 
Q 1159 2438 1159 1844 
L 1159 0 
L 581 0 
L 581 3500 
L 1159 3500 
L 1159 2956 
Q 1341 3275 1631 3429 
Q 1922 3584 2338 3584 
Q 2397 3584 2469 3576 
Q 2541 3569 2628 3553 
L 2631 2963 
z
" transform="scale(0.015625)"/>
       <path id="DejaVuSans-61" d="M 2194 1759 
Q 1497 1759 1228 1600 
Q 959 1441 959 1056 
Q 959 750 1161 570 
Q 1363 391 1709 391 
Q 2188 391 2477 730 
Q 2766 1069 2766 1631 
L 2766 1759 
L 2194 1759 
z
M 3341 1997 
L 3341 0 
L 2766 0 
L 2766 531 
Q 2569 213 2275 61 
Q 1981 -91 1556 -91 
Q 1019 -91 701 211 
Q 384 513 384 1019 
Q 384 1609 779 1909 
Q 1175 2209 1959 2209 
L 2766 2209 
L 2766 2266 
Q 2766 2663 2505 2880 
Q 2244 3097 1772 3097 
Q 1472 3097 1187 3025 
Q 903 2953 641 2809 
L 641 3341 
Q 956 3463 1253 3523 
Q 1550 3584 1831 3584 
Q 2591 3584 2966 3190 
Q 3341 2797 3341 1997 
z
" transform="scale(0.015625)"/>
       <path id="DejaVuSans-74" d="M 1172 4494 
L 1172 3500 
L 2356 3500 
L 2356 3053 
L 1172 3053 
L 1172 1153 
Q 1172 725 1289 603 
Q 1406 481 1766 481 
L 2356 481 
L 2356 0 
L 1766 0 
Q 1100 0 847 248 
Q 594 497 594 1153 
L 594 3053 
L 172 3053 
L 172 3500 
L 594 3500 
L 594 4494 
L 1172 4494 
z
" transform="scale(0.015625)"/>
       <path id="DejaVuSans-69" d="M 603 3500 
L 1178 3500 
L 1178 0 
L 603 0 
L 603 3500 
z
M 603 4863 
L 1178 4863 
L 1178 4134 
L 603 4134 
L 603 4863 
z
" transform="scale(0.015625)"/>
       <path id="DejaVuSans-6f" d="M 1959 3097 
Q 1497 3097 1228 2736 
Q 959 2375 959 1747 
Q 959 1119 1226 758 
Q 1494 397 1959 397 
Q 2419 397 2687 759 
Q 2956 1122 2956 1747 
Q 2956 2369 2687 2733 
Q 2419 3097 1959 3097 
z
M 1959 3584 
Q 2709 3584 3137 3096 
Q 3566 2609 3566 1747 
Q 3566 888 3137 398 
Q 2709 -91 1959 -91 
Q 1206 -91 779 398 
Q 353 888 353 1747 
Q 353 2609 779 3096 
Q 1206 3584 1959 3584 
z
" transform="scale(0.015625)"/>
      </defs>
      <use xlink:href="#DejaVuSans-47"/>
      <use xlink:href="#DejaVuSans-65" x="77.490234"/>
      <use xlink:href="#DejaVuSans-6e" x="139.013672"/>
      <use xlink:href="#DejaVuSans-65" x="202.392578"/>
      <use xlink:href="#DejaVuSans-72" x="263.916016"/>
      <use xlink:href="#DejaVuSans-61" x="305.029297"/>
      <use xlink:href="#DejaVuSans-74" x="366.308594"/>
      <use xlink:href="#DejaVuSans-69" x="405.517578"/>
      <use xlink:href="#DejaVuSans-6f" x="433.300781"/>
      <use xlink:href="#DejaVuSans-6e" x="494.482422"/>
     </g>
    </g>
   </g>
   <g id="matplotlib.axis_2">
    <g id="ytick_1">
     <g id="line2d_10">
      <defs>
       <path id="me0f76fc5e8" d="M 0 0 
L -3.5 0 
" style="stroke: #000000; stroke-width: 0.8"/>
      </defs>
      <g>
       <use xlink:href="#me0f76fc5e8" x="57.6" y="307.584" style="stroke: #000000; stroke-width: 0.8"/>
      </g>
     </g>
     <g id="text_11">
      <!-- 0 -->
      <g transform="translate(44.2375 311.383219)scale(0.1 -0.1)">
       <use xlink:href="#DejaVuSans-30"/>
      </g>
     </g>
    </g>
    <g id="ytick_2">
     <g id="line2d_11">
      <g>
       <use xlink:href="#me0f76fc5e8" x="57.6" y="266.643692" style="stroke: #000000; stroke-width: 0.8"/>
      </g>
     </g>
     <g id="text_12">
      <!-- 10 -->
      <g transform="translate(37.875 270.442911)scale(0.1 -0.1)">
       <use xlink:href="#DejaVuSans-31"/>
       <use xlink:href="#DejaVuSans-30" x="63.623047"/>
      </g>
     </g>
    </g>
    <g id="ytick_3">
     <g id="line2d_12">
      <g>
       <use xlink:href="#me0f76fc5e8" x="57.6" y="225.703385" style="stroke: #000000; stroke-width: 0.8"/>
      </g>
     </g>
     <g id="text_13">
      <!-- 20 -->
      <g transform="translate(37.875 229.502603)scale(0.1 -0.1)">
       <use xlink:href="#DejaVuSans-32"/>
       <use xlink:href="#DejaVuSans-30" x="63.623047"/>
      </g>
     </g>
    </g>
    <g id="ytick_4">
     <g id="line2d_13">
      <g>
       <use xlink:href="#me0f76fc5e8" x="57.6" y="184.763077" style="stroke: #000000; stroke-width: 0.8"/>
      </g>
     </g>
     <g id="text_14">
      <!-- 30 -->
      <g transform="translate(37.875 188.562296)scale(0.1 -0.1)">
       <use xlink:href="#DejaVuSans-33"/>
       <use xlink:href="#DejaVuSans-30" x="63.623047"/>
      </g>
     </g>
    </g>
    <g id="ytick_5">
     <g id="line2d_14">
      <g>
       <use xlink:href="#me0f76fc5e8" x="57.6" y="143.822769" style="stroke: #000000; stroke-width: 0.8"/>
      </g>
     </g>
     <g id="text_15">
      <!-- 40 -->
      <g transform="translate(37.875 147.621988)scale(0.1 -0.1)">
       <use xlink:href="#DejaVuSans-34"/>
       <use xlink:href="#DejaVuSans-30" x="63.623047"/>
      </g>
     </g>
    </g>
    <g id="ytick_6">
     <g id="line2d_15">
      <g>
       <use xlink:href="#me0f76fc5e8" x="57.6" y="102.882462" style="stroke: #000000; stroke-width: 0.8"/>
      </g>
     </g>
     <g id="text_16">
      <!-- 50 -->
      <g transform="translate(37.875 106.68168)scale(0.1 -0.1)">
       <use xlink:href="#DejaVuSans-35"/>
       <use xlink:href="#DejaVuSans-30" x="63.623047"/>
      </g>
     </g>
    </g>
    <g id="ytick_7">
     <g id="line2d_16">
      <g>
       <use xlink:href="#me0f76fc5e8" x="57.6" y="61.942154" style="stroke: #000000; stroke-width: 0.8"/>
      </g>
     </g>
     <g id="text_17">
      <!-- 60 -->
      <g transform="translate(37.875 65.741373)scale(0.1 -0.1)">
       <defs>
        <path id="DejaVuSans-36" d="M 2113 2584 
Q 1688 2584 1439 2293 
Q 1191 2003 1191 1497 
Q 1191 994 1439 701 
Q 1688 409 2113 409 
Q 2538 409 2786 701 
Q 3034 994 3034 1497 
Q 3034 2003 2786 2293 
Q 2538 2584 2113 2584 
z
M 3366 4563 
L 3366 3988 
Q 3128 4100 2886 4159 
Q 2644 4219 2406 4219 
Q 1781 4219 1451 3797 
Q 1122 3375 1075 2522 
Q 1259 2794 1537 2939 
Q 1816 3084 2150 3084 
Q 2853 3084 3261 2657 
Q 3669 2231 3669 1497 
Q 3669 778 3244 343 
Q 2819 -91 2113 -91 
Q 1303 -91 875 529 
Q 447 1150 447 2328 
Q 447 3434 972 4092 
Q 1497 4750 2381 4750 
Q 2619 4750 2861 4703 
Q 3103 4656 3366 4563 
z
" transform="scale(0.015625)"/>
       </defs>
       <use xlink:href="#DejaVuSans-36"/>
       <use xlink:href="#DejaVuSans-30" x="63.623047"/>
      </g>
     </g>
    </g>
    <g id="text_18">
     <!-- Fitness -->
     <g transform="translate(31.795312 191.845187)rotate(-90)scale(0.1 -0.1)">
      <defs>
       <path id="DejaVuSans-46" d="M 628 4666 
L 3309 4666 
L 3309 4134 
L 1259 4134 
L 1259 2759 
L 3109 2759 
L 3109 2228 
L 1259 2228 
L 1259 0 
L 628 0 
L 628 4666 
z
" transform="scale(0.015625)"/>
       <path id="DejaVuSans-73" d="M 2834 3397 
L 2834 2853 
Q 2591 2978 2328 3040 
Q 2066 3103 1784 3103 
Q 1356 3103 1142 2972 
Q 928 2841 928 2578 
Q 928 2378 1081 2264 
Q 1234 2150 1697 2047 
L 1894 2003 
Q 2506 1872 2764 1633 
Q 3022 1394 3022 966 
Q 3022 478 2636 193 
Q 2250 -91 1575 -91 
Q 1294 -91 989 -36 
Q 684 19 347 128 
L 347 722 
Q 666 556 975 473 
Q 1284 391 1588 391 
Q 1994 391 2212 530 
Q 2431 669 2431 922 
Q 2431 1156 2273 1281 
Q 2116 1406 1581 1522 
L 1381 1569 
Q 847 1681 609 1914 
Q 372 2147 372 2553 
Q 372 3047 722 3315 
Q 1072 3584 1716 3584 
Q 2034 3584 2315 3537 
Q 2597 3491 2834 3397 
z
" transform="scale(0.015625)"/>
      </defs>
      <use xlink:href="#DejaVuSans-46"/>
      <use xlink:href="#DejaVuSans-69" x="50.269531"/>
      <use xlink:href="#DejaVuSans-74" x="78.052734"/>
      <use xlink:href="#DejaVuSans-6e" x="117.261719"/>
      <use xlink:href="#DejaVuSans-65" x="180.640625"/>
      <use xlink:href="#DejaVuSans-73" x="242.164062"/>
      <use xlink:href="#DejaVuSans-73" x="294.263672"/>
     </g>
    </g>
   </g>
   <g id="line2d_17">
    <path d="M 73.832727 292.533214 
L 74.646398 290.628029 
L 75.460068 291.023124 
L 76.273739 290.73821 
L 77.087409 290.042956 
L 78.714751 289.319141 
L 79.528421 289.35983 
L 81.155762 287.658988 
L 81.969433 288.764194 
L 82.783103 287.774869 
L 83.596774 288.40213 
L 84.410444 287.0517 
L 85.224115 289.017009 
L 86.037785 288.046799 
L 86.851456 286.167299 
L 87.665126 287.401057 
L 88.478797 286.349153 
L 89.292468 287.535965 
L 90.919809 286.331103 
L 91.733479 287.710386 
L 92.54715 285.06917 
L 93.36082 285.736972 
L 94.174491 284.21286 
L 94.988161 283.842066 
L 95.801832 283.167467 
L 96.615502 283.859615 
L 97.429173 283.1802 
L 98.242843 282.279554 
L 99.056514 281.170425 
L 99.870185 281.869278 
L 100.683855 282.04472 
L 101.497526 283.825745 
L 102.311196 281.732259 
L 103.124867 281.742148 
L 103.938537 282.442096 
L 104.752208 281.059147 
L 105.565878 281.884007 
L 107.193219 280.656489 
L 108.00689 278.9898 
L 109.634231 282.566791 
L 110.447902 279.00794 
L 111.261572 280.064763 
L 112.075243 279.787615 
L 112.888913 280.623188 
L 113.702584 280.780756 
L 114.516254 279.934482 
L 115.329925 281.899979 
L 116.143595 282.773012 
L 116.957266 279.434055 
L 117.770936 279.804466 
L 118.584607 280.551004 
L 119.398278 280.452638 
L 120.211948 280.110415 
L 121.025619 279.947138 
L 121.839289 281.133872 
L 122.65296 280.400407 
L 123.46663 279.858905 
L 124.280301 279.986198 
L 125.093971 282.332599 
L 125.907642 277.382541 
L 126.721312 279.250047 
L 127.534983 281.545235 
L 129.162324 279.976316 
L 129.975995 278.624909 
L 130.789665 280.154283 
L 131.603336 277.972671 
L 132.417006 277.737598 
L 133.230677 276.042 
L 134.044347 275.368551 
L 134.858018 277.055125 
L 135.671688 273.219555 
L 136.485359 271.802785 
L 137.299029 274.594232 
L 138.1127 274.238051 
L 138.92637 275.876255 
L 139.740041 273.506277 
L 140.553712 273.838375 
L 141.367382 276.4625 
L 142.181053 277.107469 
L 142.994723 277.984994 
L 143.808394 276.111237 
L 144.622064 274.834276 
L 145.435735 275.307966 
L 146.249405 273.501779 
L 147.063076 273.508054 
L 147.876746 271.266639 
L 148.690417 271.653231 
L 149.504087 269.443362 
L 150.317758 270.055515 
L 151.131429 268.424529 
L 151.945099 269.417376 
L 152.75877 270.806109 
L 153.57244 265.005015 
L 154.386111 263.871364 
L 155.199781 258.836278 
L 156.827122 261.6932 
L 157.640793 255.048161 
L 158.454463 264.687306 
L 159.268134 262.310117 
L 160.081805 259.036811 
L 160.895475 259.448604 
L 161.709146 254.154302 
L 162.522816 257.263427 
L 163.336487 254.749146 
L 164.150157 253.849381 
L 164.963828 255.222246 
L 165.777498 254.111632 
L 166.591169 256.67003 
L 168.21851 253.136056 
L 169.03218 249.085306 
L 169.845851 253.068903 
L 171.473192 253.825841 
L 172.286863 247.582386 
L 173.100533 248.399351 
L 173.914204 250.039061 
L 174.727874 248.985261 
L 175.541545 253.675374 
L 176.355215 252.811361 
L 177.168886 249.163572 
L 177.982556 249.552069 
L 178.796227 245.621434 
L 179.609897 240.375467 
L 180.423568 237.311192 
L 181.237239 251.206456 
L 182.050909 244.804756 
L 182.86458 243.199616 
L 183.67825 237.478702 
L 185.305591 244.211565 
L 186.119262 235.137817 
L 186.932932 242.422194 
L 187.746603 244.966223 
L 188.560273 246.794914 
L 189.373944 243.248645 
L 190.187614 235.118886 
L 191.001285 233.774114 
L 191.814956 245.321047 
L 192.628626 241.703223 
L 193.442297 236.835229 
L 194.255967 235.035721 
L 195.069638 242.278361 
L 195.883308 240.217289 
L 196.696979 241.01631 
L 197.510649 237.692342 
L 198.32432 228.743064 
L 199.13799 232.442215 
L 199.951661 224.600292 
L 200.765332 240.695863 
L 201.579002 238.023333 
L 202.392673 237.176896 
L 203.206343 228.226808 
L 204.020014 238.480175 
L 204.833684 229.318973 
L 205.647355 237.144459 
L 206.461025 227.153606 
L 207.274696 233.916063 
L 208.088366 223.468969 
L 208.902037 235.209666 
L 209.715707 234.156075 
L 210.529378 218.18743 
L 211.343049 214.340713 
L 212.156719 223.586395 
L 212.97039 211.946571 
L 213.78406 221.473339 
L 214.597731 217.37547 
L 215.411401 222.382779 
L 216.225072 211.516649 
L 217.038742 215.283269 
L 217.852413 216.074322 
L 218.666083 207.468311 
L 219.479754 210.976197 
L 220.293424 225.77688 
L 221.107095 211.57706 
L 221.920766 207.28332 
L 222.734436 207.60847 
L 223.548107 209.456151 
L 224.361777 205.762417 
L 225.175448 209.46442 
L 225.989118 224.815345 
L 226.802789 219.916792 
L 227.616459 224.273755 
L 228.43013 215.14506 
L 229.2438 227.075769 
L 230.057471 215.151874 
L 230.871141 231.790878 
L 231.684812 215.106475 
L 232.498483 213.124525 
L 233.312153 221.581138 
L 234.125824 222.254664 
L 234.939494 212.905266 
L 235.753165 214.254026 
L 236.566835 211.691784 
L 237.380506 224.956675 
L 238.194176 204.412582 
L 239.007847 201.806153 
L 239.821517 208.066071 
L 240.635188 210.626348 
L 242.262529 202.319312 
L 243.0762 211.498989 
L 243.88987 207.837367 
L 244.703541 206.889685 
L 245.517211 212.554157 
L 246.330882 213.542016 
L 247.144552 197.586476 
L 247.958223 215.142807 
L 248.771893 209.647467 
L 249.585564 201.033057 
L 250.399234 202.258507 
L 251.212905 203.710258 
L 252.026576 206.830173 
L 252.840246 216.283582 
L 253.653917 201.278334 
L 254.467587 201.39747 
L 255.281258 208.155804 
L 256.094928 212.500124 
L 256.908599 208.96313 
L 257.722269 212.762789 
L 258.53594 209.463475 
L 259.34961 217.193436 
L 260.163281 212.410938 
L 260.976951 202.81091 
L 261.790622 203.782081 
L 262.604293 203.078922 
L 263.417963 204.388817 
L 264.231634 202.608942 
L 265.045304 206.699704 
L 265.858975 207.017381 
L 266.672645 214.805374 
L 267.486316 212.474475 
L 268.299986 206.054047 
L 269.113657 208.574124 
L 269.927327 217.930278 
L 270.740998 207.019786 
L 271.554668 206.625593 
L 272.368339 198.830858 
L 273.18201 195.091952 
L 273.99568 219.989872 
L 274.809351 215.831073 
L 275.623021 222.287688 
L 276.436692 226.687435 
L 277.250362 213.012525 
L 278.064033 203.193226 
L 278.877703 199.826606 
L 279.691374 208.561798 
L 280.505044 211.60653 
L 281.318715 203.895309 
L 282.132386 199.937361 
L 282.946056 207.547 
L 283.759727 204.844989 
L 284.573397 226.026123 
L 285.387068 205.400632 
L 286.200738 210.664655 
L 287.014409 198.041424 
L 287.828079 219.687751 
L 288.64175 217.985552 
L 289.45542 215.405703 
L 290.269091 207.501506 
L 291.082761 224.69541 
L 291.896432 219.562806 
L 292.710103 216.254652 
L 293.523773 199.792119 
L 294.337444 206.12306 
L 295.151114 210.848981 
L 295.964785 203.645027 
L 296.778455 225.199502 
L 297.592126 219.460502 
L 299.219467 213.684691 
L 300.033137 213.663022 
L 300.846808 203.731267 
L 301.660478 214.03431 
L 302.474149 211.8724 
L 303.28782 210.645656 
L 304.10149 217.31982 
L 304.915161 216.786037 
L 305.728831 204.608897 
L 306.542502 204.102993 
L 307.356172 216.471884 
L 308.169843 215.056671 
L 308.983513 206.355224 
L 309.797184 219.651436 
L 310.610854 211.39385 
L 311.424525 218.912645 
L 312.238195 212.043017 
L 313.051866 213.512412 
L 313.865537 208.154344 
L 314.679207 210.552566 
L 315.492878 211.781725 
L 316.306548 208.224714 
L 317.120219 216.825959 
L 317.933889 201.151569 
L 318.74756 209.963424 
L 319.56123 202.014461 
L 320.374901 199.414401 
L 321.188571 210.124873 
L 322.002242 207.909105 
L 322.815913 217.586673 
L 323.629583 212.406631 
L 324.443254 210.108732 
L 325.256924 206.735464 
L 326.070595 216.502639 
L 326.884265 206.170574 
L 327.697936 205.117107 
L 328.511606 202.736939 
L 329.325277 217.342531 
L 330.138947 202.789788 
L 330.952618 212.339248 
L 331.766288 204.4941 
L 332.579959 215.796007 
L 334.2073 196.555758 
L 335.020971 198.373808 
L 335.834641 203.039405 
L 336.648312 213.824128 
L 337.461982 222.06378 
L 338.275653 210.456323 
L 339.089323 209.713648 
L 339.902994 202.20746 
L 340.716664 211.800819 
L 341.530335 206.688954 
L 342.344005 213.913477 
L 343.157676 218.583158 
L 343.971347 206.359344 
L 344.785017 214.018187 
L 345.598688 218.726131 
L 347.226029 205.412221 
L 348.039699 208.628857 
L 348.85337 218.763129 
L 349.66704 217.459174 
L 350.480711 213.205073 
L 351.294381 202.577993 
L 352.108052 214.719672 
L 352.921722 210.895138 
L 353.735393 205.318725 
L 354.549064 208.71799 
L 355.362734 209.880458 
L 356.176405 208.167791 
L 356.990075 216.13849 
L 357.803746 208.681335 
L 358.617416 212.55803 
L 359.431087 214.447944 
L 360.244757 215.421398 
L 361.058428 199.64882 
L 361.872098 218.759074 
L 362.685769 206.038562 
L 363.49944 208.872736 
L 364.31311 208.917118 
L 365.126781 203.555127 
L 365.940451 203.578768 
L 366.754122 201.804552 
L 367.567792 201.75114 
L 368.381463 200.716286 
L 369.195133 207.429362 
L 370.008804 203.208226 
L 370.822474 207.283331 
L 371.636145 206.097614 
L 373.263486 206.227894 
L 374.077157 201.492337 
L 374.890827 206.062716 
L 375.704498 221.284932 
L 376.518168 209.885132 
L 377.331839 211.746446 
L 378.145509 217.820435 
L 378.95918 217.515482 
L 379.77285 232.943551 
L 380.586521 209.802995 
L 381.400191 201.601188 
L 382.213862 208.965404 
L 383.027532 212.214401 
L 383.841203 212.405182 
L 384.654874 211.741425 
L 385.468544 205.202133 
L 386.282215 210.111533 
L 387.095885 212.455701 
L 387.909556 192.921114 
L 388.723226 207.234501 
L 389.536897 208.410165 
L 390.350567 205.240764 
L 391.164238 210.10325 
L 391.977908 207.795486 
L 392.791579 210.850391 
L 393.605249 210.827359 
L 394.41892 220.971587 
L 395.232591 214.959358 
L 396.859932 198.878249 
L 397.673602 200.264337 
L 398.487273 206.282631 
L 398.487273 206.282631 
" clip-path="url(#p70f7d02aec)" style="fill: none; stroke: #1f77b4; stroke-width: 1.5; stroke-linecap: square"/>
   </g>
   <g id="line2d_18">
    <path d="M 73.832727 248.042709 
L 74.646398 241.141576 
L 75.460068 269.399078 
L 76.273739 222.038768 
L 77.087409 253.103142 
L 77.90108 237.514167 
L 78.714751 250.807774 
L 79.528421 256.398158 
L 80.342092 241.436657 
L 81.155762 193.330491 
L 81.969433 249.438471 
L 82.783103 233.693263 
L 83.596774 265.150251 
L 84.410444 251.204883 
L 85.224115 256.530036 
L 86.037785 258.427412 
L 86.851456 129.060382 
L 87.665126 248.750705 
L 88.478797 257.653636 
L 89.292468 236.75345 
L 90.106138 251.784111 
L 91.733479 267.718358 
L 92.54715 238.35117 
L 93.36082 262.313632 
L 94.174491 259.963451 
L 94.988161 256.531489 
L 95.801832 254.264415 
L 96.615502 247.479353 
L 97.429173 235.30188 
L 98.242843 257.745141 
L 99.056514 220.452213 
L 99.870185 248.580648 
L 100.683855 249.713764 
L 101.497526 262.122906 
L 102.311196 262.268749 
L 103.124867 254.132262 
L 103.938537 206.906474 
L 104.752208 256.084618 
L 105.565878 254.44005 
L 106.379549 247.085313 
L 107.193219 241.517995 
L 108.00689 245.263999 
L 108.82056 255.486987 
L 109.634231 249.373232 
L 110.447902 196.535515 
L 111.261572 251.369089 
L 112.075243 238.499059 
L 112.888913 253.944664 
L 113.702584 243.571773 
L 114.516254 249.118098 
L 115.329925 250.687126 
L 116.143595 247.251292 
L 116.957266 234.182717 
L 117.770936 191.349201 
L 118.584607 247.258237 
L 119.398278 251.907407 
L 120.211948 242.994087 
L 121.025619 239.806064 
L 121.839289 246.847983 
L 123.46663 215.315579 
L 124.280301 246.066202 
L 125.093971 211.755778 
L 126.721312 236.175163 
L 127.534983 256.595788 
L 128.348653 255.166235 
L 129.162324 252.4147 
L 129.975995 163.159768 
L 130.789665 254.136649 
L 131.603336 177.434856 
L 132.417006 187.51463 
L 133.230677 204.010929 
L 134.044347 212.726646 
L 134.858018 181.232633 
L 135.671688 141.088964 
L 136.485359 178.941595 
L 137.299029 197.757443 
L 138.1127 231.786291 
L 138.92637 227.27122 
L 139.740041 183.053815 
L 140.553712 214.581404 
L 141.367382 167.306932 
L 142.181053 217.065228 
L 142.994723 207.502081 
L 143.808394 228.055059 
L 144.622064 185.515605 
L 145.435735 213.175508 
L 146.249405 202.990609 
L 147.063076 210.30231 
L 147.876746 200.226422 
L 148.690417 214.537838 
L 149.504087 205.339691 
L 150.317758 205.692555 
L 151.945099 199.142061 
L 152.75877 212.014311 
L 153.57244 190.19783 
L 154.386111 183.435222 
L 155.199781 192.077651 
L 156.013452 182.953876 
L 156.827122 179.724466 
L 157.640793 132.76985 
L 158.454463 213.869802 
L 159.268134 136.157435 
L 160.081805 173.524792 
L 160.895475 137.607486 
L 161.709146 132.90123 
L 162.522816 191.839275 
L 163.336487 197.026148 
L 164.150157 155.345958 
L 164.963828 195.133397 
L 165.777498 148.674716 
L 166.591169 157.078553 
L 168.21851 181.690313 
L 169.03218 119.020175 
L 169.845851 151.858283 
L 170.659522 138.445768 
L 171.473192 157.966052 
L 172.286863 161.614732 
L 173.100533 168.673867 
L 173.914204 168.324527 
L 174.727874 135.990619 
L 175.541545 190.040106 
L 176.355215 185.051024 
L 177.168886 184.541806 
L 177.982556 166.848002 
L 178.796227 162.327534 
L 179.609897 183.632636 
L 180.423568 159.289729 
L 181.237239 178.130729 
L 182.050909 164.855377 
L 182.86458 158.346609 
L 183.67825 171.66496 
L 184.491921 140.318373 
L 185.305591 155.469086 
L 186.119262 156.460653 
L 186.932932 147.621936 
L 188.560273 174.356478 
L 189.373944 174.672391 
L 190.187614 164.302959 
L 191.001285 130.72004 
L 191.814956 167.029776 
L 192.628626 173.917062 
L 193.442297 154.560884 
L 194.255967 93.674118 
L 195.069638 154.858598 
L 195.883308 93.719328 
L 196.696979 168.222455 
L 197.510649 85.448394 
L 198.32432 85.258916 
L 199.13799 143.7065 
L 199.951661 142.570524 
L 200.765332 166.764872 
L 202.392673 135.218155 
L 203.206343 142.971204 
L 204.020014 130.735337 
L 204.833684 143.073149 
L 205.647355 117.047931 
L 206.461025 127.175793 
L 207.274696 133.931225 
L 208.088366 127.366641 
L 208.902037 133.666815 
L 209.715707 129.263805 
L 210.529378 133.125494 
L 211.343049 122.122573 
L 212.156719 131.451181 
L 212.97039 101.564478 
L 214.597731 114.77496 
L 215.411401 101.86964 
L 216.225072 126.305275 
L 217.038742 122.604077 
L 217.852413 107.260498 
L 218.666083 112.568512 
L 219.479754 124.968826 
L 220.293424 113.033001 
L 221.107095 118.457078 
L 221.920766 109.543627 
L 222.734436 112.003982 
L 223.548107 104.910091 
L 224.361777 113.941096 
L 225.175448 108.166727 
L 225.989118 120.027332 
L 226.802789 116.347949 
L 227.616459 101.798718 
L 228.43013 116.933308 
L 230.057471 118.472922 
L 230.871141 129.496199 
L 231.684812 115.007863 
L 232.498483 119.323592 
L 233.312153 117.387932 
L 234.125824 130.523803 
L 234.939494 111.52981 
L 235.753165 109.323432 
L 236.566835 120.684082 
L 237.380506 107.6592 
L 238.194176 111.826367 
L 239.007847 105.918524 
L 239.821517 104.98755 
L 241.448859 104.825733 
L 242.262529 101.794981 
L 243.0762 117.91225 
L 243.88987 101.017145 
L 244.703541 91.370554 
L 245.517211 113.32945 
L 247.144552 90.544367 
L 248.771893 111.517232 
L 249.585564 99.617299 
L 250.399234 106.76003 
L 251.212905 95.62173 
L 252.026576 102.190383 
L 252.840246 117.013448 
L 253.653917 113.495609 
L 254.467587 99.853937 
L 255.281258 92.359343 
L 256.094928 103.657159 
L 256.908599 90.951426 
L 257.722269 104.538944 
L 258.53594 90.609921 
L 259.34961 102.918503 
L 260.163281 100.300354 
L 260.976951 99.88521 
L 261.790622 103.340458 
L 262.604293 102.97163 
L 263.417963 109.591898 
L 264.231634 98.602602 
L 265.045304 109.885446 
L 265.858975 90.210164 
L 266.672645 100.342894 
L 267.486316 102.8093 
L 268.299986 107.549348 
L 269.113657 111.066151 
L 269.927327 96.4753 
L 270.740998 103.824627 
L 271.554668 99.129006 
L 272.368339 111.456775 
L 273.18201 106.000521 
L 273.99568 118.151177 
L 274.809351 108.109289 
L 275.623021 110.980352 
L 276.436692 105.519456 
L 277.250362 121.354105 
L 278.064033 103.823016 
L 278.877703 96.507431 
L 279.691374 113.772806 
L 280.505044 119.220355 
L 281.318715 121.075428 
L 282.132386 103.310599 
L 282.946056 110.14359 
L 283.759727 111.681071 
L 284.573397 91.639431 
L 285.387068 102.480425 
L 286.200738 106.044516 
L 287.014409 111.665736 
L 287.828079 98.650057 
L 288.64175 110.550366 
L 289.45542 87.65983 
L 290.269091 104.208228 
L 291.082761 93.681255 
L 291.896432 119.060225 
L 292.710103 99.985303 
L 293.523773 98.436732 
L 294.337444 105.010689 
L 295.964785 112.309413 
L 296.778455 109.387516 
L 297.592126 110.146355 
L 298.405796 116.973305 
L 299.219467 117.519859 
L 300.033137 103.483412 
L 300.846808 103.583391 
L 301.660478 105.719166 
L 302.474149 100.037885 
L 303.28782 108.545023 
L 304.10149 95.379537 
L 304.915161 96.981679 
L 305.728831 91.779935 
L 306.542502 94.638231 
L 307.356172 92.968009 
L 308.169843 94.91945 
L 308.983513 105.277697 
L 309.797184 93.132415 
L 310.610854 100.759039 
L 311.424525 100.570771 
L 312.238195 105.428067 
L 313.051866 109.270746 
L 313.865537 103.610434 
L 314.679207 101.519077 
L 315.492878 107.870178 
L 316.306548 116.245181 
L 317.120219 113.817735 
L 317.933889 106.890152 
L 318.74756 118.285564 
L 319.56123 108.763934 
L 320.374901 84.098395 
L 321.188571 105.41659 
L 322.002242 101.058611 
L 322.815913 115.27686 
L 323.629583 109.161527 
L 324.443254 112.147776 
L 325.256924 105.558155 
L 326.070595 108.450065 
L 326.884265 118.641644 
L 327.697936 123.623482 
L 328.511606 105.185216 
L 329.325277 114.99143 
L 330.138947 102.896593 
L 330.952618 118.482757 
L 331.766288 110.723711 
L 332.579959 110.915117 
L 333.39363 97.520399 
L 334.2073 105.364281 
L 335.020971 104.620129 
L 335.834641 108.636336 
L 336.648312 111.016136 
L 337.461982 101.546392 
L 338.275653 113.37195 
L 339.089323 109.722874 
L 339.902994 112.119881 
L 340.716664 116.503506 
L 341.530335 111.887212 
L 342.344005 113.291361 
L 343.157676 119.72961 
L 343.971347 113.1575 
L 344.785017 111.788013 
L 345.598688 116.173276 
L 346.412358 91.237938 
L 347.226029 87.762498 
L 348.039699 111.323872 
L 348.85337 107.812595 
L 349.66704 108.192162 
L 350.480711 104.034667 
L 351.294381 119.737396 
L 352.108052 120.995162 
L 352.921722 99.94432 
L 353.735393 95.053768 
L 354.549064 98.100309 
L 355.362734 119.747587 
L 356.176405 113.24807 
L 356.990075 115.664982 
L 357.803746 110.502216 
L 358.617416 106.875359 
L 359.431087 112.734436 
L 360.244757 115.322366 
L 361.058428 113.77904 
L 361.872098 112.933557 
L 362.685769 102.772414 
L 363.49944 108.385875 
L 364.31311 115.696361 
L 365.126781 114.37095 
L 365.940451 119.035445 
L 366.754122 115.499921 
L 367.567792 105.238956 
L 368.381463 105.834616 
L 369.195133 102.51344 
L 370.008804 101.309067 
L 370.822474 93.260585 
L 371.636145 99.11574 
L 372.449815 115.122563 
L 373.263486 89.892736 
L 374.077157 112.815196 
L 374.890827 113.760853 
L 375.704498 121.775462 
L 376.518168 116.682863 
L 377.331839 105.403807 
L 378.145509 111.30019 
L 378.95918 111.916719 
L 379.77285 115.564775 
L 380.586521 107.651031 
L 381.400191 114.935776 
L 382.213862 108.562228 
L 383.027532 100.357001 
L 383.841203 114.610235 
L 384.654874 104.346441 
L 385.468544 100.532488 
L 386.282215 110.461286 
L 387.095885 126.389251 
L 387.909556 97.541996 
L 388.723226 104.966999 
L 389.536897 116.245699 
L 390.350567 113.695189 
L 391.164238 98.210986 
L 391.977908 112.104323 
L 392.791579 113.314716 
L 393.605249 98.88108 
L 394.41892 117.915387 
L 395.232591 115.621006 
L 396.046261 109.728152 
L 396.859932 113.970142 
L 397.673602 121.334708 
L 398.487273 112.265139 
L 398.487273 112.265139 
" clip-path="url(#p70f7d02aec)" style="fill: none; stroke: #ff7f0e; stroke-width: 1.5; stroke-linecap: square"/>
   </g>
   <g id="patch_3">
    <path d="M 57.6 307.584 
L 57.6 41.472 
" style="fill: none; stroke: #000000; stroke-width: 0.8; stroke-linejoin: miter; stroke-linecap: square"/>
   </g>
   <g id="patch_4">
    <path d="M 414.72 307.584 
L 414.72 41.472 
" style="fill: none; stroke: #000000; stroke-width: 0.8; stroke-linejoin: miter; stroke-linecap: square"/>
   </g>
   <g id="patch_5">
    <path d="M 57.6 307.584 
L 414.72 307.584 
" style="fill: none; stroke: #000000; stroke-width: 0.8; stroke-linejoin: miter; stroke-linecap: square"/>
   </g>
   <g id="patch_6">
    <path d="M 57.6 41.472 
L 414.72 41.472 
" style="fill: none; stroke: #000000; stroke-width: 0.8; stroke-linejoin: miter; stroke-linecap: square"/>
   </g>
   <g id="legend_1">
    <g id="patch_7">
     <path d="M 334.654375 78.82825 
L 407.72 78.82825 
Q 409.72 78.82825 409.72 76.82825 
L 409.72 48.472 
Q 409.72 46.472 407.72 46.472 
L 334.654375 46.472 
Q 332.654375 46.472 332.654375 48.472 
L 332.654375 76.82825 
Q 332.654375 78.82825 334.654375 78.82825 
z
" style="fill: #ffffff; opacity: 0.8; stroke: #cccccc; stroke-linejoin: miter"/>
    </g>
    <g id="line2d_19">
     <path d="M 336.654375 54.570437 
L 346.654375 54.570437 
L 356.654375 54.570437 
" style="fill: none; stroke: #1f77b4; stroke-width: 1.5; stroke-linecap: square"/>
    </g>
    <g id="text_19">
     <!-- Average -->
     <g transform="translate(364.654375 58.070437)scale(0.1 -0.1)">
      <defs>
       <path id="DejaVuSans-41" d="M 2188 4044 
L 1331 1722 
L 3047 1722 
L 2188 4044 
z
M 1831 4666 
L 2547 4666 
L 4325 0 
L 3669 0 
L 3244 1197 
L 1141 1197 
L 716 0 
L 50 0 
L 1831 4666 
z
" transform="scale(0.015625)"/>
       <path id="DejaVuSans-76" d="M 191 3500 
L 800 3500 
L 1894 563 
L 2988 3500 
L 3597 3500 
L 2284 0 
L 1503 0 
L 191 3500 
z
" transform="scale(0.015625)"/>
       <path id="DejaVuSans-67" d="M 2906 1791 
Q 2906 2416 2648 2759 
Q 2391 3103 1925 3103 
Q 1463 3103 1205 2759 
Q 947 2416 947 1791 
Q 947 1169 1205 825 
Q 1463 481 1925 481 
Q 2391 481 2648 825 
Q 2906 1169 2906 1791 
z
M 3481 434 
Q 3481 -459 3084 -895 
Q 2688 -1331 1869 -1331 
Q 1566 -1331 1297 -1286 
Q 1028 -1241 775 -1147 
L 775 -588 
Q 1028 -725 1275 -790 
Q 1522 -856 1778 -856 
Q 2344 -856 2625 -561 
Q 2906 -266 2906 331 
L 2906 616 
Q 2728 306 2450 153 
Q 2172 0 1784 0 
Q 1141 0 747 490 
Q 353 981 353 1791 
Q 353 2603 747 3093 
Q 1141 3584 1784 3584 
Q 2172 3584 2450 3431 
Q 2728 3278 2906 2969 
L 2906 3500 
L 3481 3500 
L 3481 434 
z
" transform="scale(0.015625)"/>
      </defs>
      <use xlink:href="#DejaVuSans-41"/>
      <use xlink:href="#DejaVuSans-76" x="62.533203"/>
      <use xlink:href="#DejaVuSans-65" x="121.712891"/>
      <use xlink:href="#DejaVuSans-72" x="183.236328"/>
      <use xlink:href="#DejaVuSans-61" x="224.349609"/>
      <use xlink:href="#DejaVuSans-67" x="285.628906"/>
      <use xlink:href="#DejaVuSans-65" x="349.105469"/>
     </g>
    </g>
    <g id="line2d_20">
     <path d="M 336.654375 69.248562 
L 346.654375 69.248562 
L 356.654375 69.248562 
" style="fill: none; stroke: #ff7f0e; stroke-width: 1.5; stroke-linecap: square"/>
    </g>
    <g id="text_20">
     <!-- Best -->
     <g transform="translate(364.654375 72.748562)scale(0.1 -0.1)">
      <defs>
       <path id="DejaVuSans-42" d="M 1259 2228 
L 1259 519 
L 2272 519 
Q 2781 519 3026 730 
Q 3272 941 3272 1375 
Q 3272 1813 3026 2020 
Q 2781 2228 2272 2228 
L 1259 2228 
z
M 1259 4147 
L 1259 2741 
L 2194 2741 
Q 2656 2741 2882 2914 
Q 3109 3088 3109 3444 
Q 3109 3797 2882 3972 
Q 2656 4147 2194 4147 
L 1259 4147 
z
M 628 4666 
L 2241 4666 
Q 2963 4666 3353 4366 
Q 3744 4066 3744 3513 
Q 3744 3084 3544 2831 
Q 3344 2578 2956 2516 
Q 3422 2416 3680 2098 
Q 3938 1781 3938 1306 
Q 3938 681 3513 340 
Q 3088 0 2303 0 
L 628 0 
L 628 4666 
z
" transform="scale(0.015625)"/>
      </defs>
      <use xlink:href="#DejaVuSans-42"/>
      <use xlink:href="#DejaVuSans-65" x="68.603516"/>
      <use xlink:href="#DejaVuSans-73" x="130.126953"/>
      <use xlink:href="#DejaVuSans-74" x="182.226562"/>
     </g>
    </g>
   </g>
  </g>
 </g>
 <defs>
  <clipPath id="p70f7d02aec">
   <rect x="57.6" y="41.472" width="357.12" height="266.112"/>
  </clipPath>
 </defs>
</svg>
