# Blender v2.79 (sub 0) OBJ File: ''
# www.blender.org
mtllib stack_4.mtl
o Cone.001
v -0.003532 0.289187 1.000280
v 0.191558 0.289187 0.981065
v 0.379151 0.289187 0.924159
v 0.552038 0.289187 0.831749
v 0.703575 0.289187 0.707387
v 0.827937 0.289188 0.555850
v 0.920347 0.289188 0.382963
v 0.977253 0.289188 0.195370
v 0.996468 0.289188 0.000280
v 0.977253 0.289188 -0.194810
v 0.920347 0.289188 -0.382403
v 0.827937 0.289188 -0.555290
v 0.703575 0.289188 -0.706827
v 0.552038 0.289188 -0.831190
v 0.379151 0.289188 -0.923600
v 0.191558 0.289188 -0.980505
v -0.003533 0.289188 -0.999720
v -0.198623 0.289188 -0.980505
v -0.386216 0.289188 -0.923599
v -0.559103 0.289188 -0.831189
v -0.710639 0.289188 -0.706827
v -0.835002 0.289188 -0.555290
v -0.927412 0.289188 -0.382403
v -0.984318 0.289188 -0.194810
v -1.003532 0.289188 0.000281
v -0.984317 0.289188 0.195371
v -0.927411 0.289188 0.382964
v -0.835001 0.289188 0.555851
v -0.710638 0.289187 0.707388
v -0.559101 0.289187 0.831750
v -0.386214 0.289187 0.924160
v -0.198621 0.289187 0.981065
v 0.000000 0.285862 -1.000000
v 0.195090 0.285862 -0.980785
v 0.382683 0.285862 -0.923880
v 0.555570 0.285862 -0.831470
v 0.707107 0.285862 -0.707107
v 0.831470 0.285862 -0.555570
v 0.923880 0.285862 -0.382683
v 0.980785 0.285862 -0.195090
v 1.000000 0.285862 -0.000000
v 0.980785 0.285862 0.195090
v 0.923880 0.285862 0.382683
v 0.831470 0.285862 0.555570
v 0.707107 0.285862 0.707107
v 0.555570 0.285862 0.831470
v 0.382683 0.285862 0.923880
v 0.195090 0.285862 0.980785
v -0.000000 0.285862 1.000000
v -0.195091 0.285862 0.980785
v -0.382684 0.285862 0.923879
v -0.555571 0.285862 0.831469
v -0.707107 0.285862 0.707106
v -0.831470 0.285862 0.555570
v -0.923880 0.285862 0.382683
v 0.000000 0.937056 0.000000
v -0.980785 0.285862 0.195089
v -1.000000 0.285862 -0.000001
v -0.980785 0.285862 -0.195091
v -0.923879 0.285862 -0.382684
v -0.831469 0.285862 -0.555571
v -0.707106 0.285862 -0.707108
v -0.555569 0.285862 -0.831470
v -0.382682 0.285862 -0.923880
v -0.195089 0.285862 -0.980786
v 0.000000 0.937056 0.000000
v 0.447663 0.645541 -0.000000
v 0.439061 0.645541 0.087335
v 0.413587 0.645540 0.171313
v 0.372218 0.645540 0.248708
v 0.316546 0.645540 0.316546
v 0.248708 0.645540 0.372218
v 0.171313 0.645540 0.413587
v 0.087335 0.645541 0.439061
v -0.000000 0.645540 0.447663
v 0.171313 0.645540 -0.413587
v 0.248708 0.645540 -0.372218
v -0.171313 0.645540 -0.413587
v -0.087334 0.645540 -0.439062
v 0.000000 0.645540 -0.447663
v 0.087335 0.645540 -0.439061
v -0.248708 0.645540 -0.372219
v -0.316545 0.645541 -0.316546
v 0.316546 0.645540 -0.316546
v -0.372218 0.645540 -0.248709
v 0.372218 0.645540 -0.248708
v -0.413587 0.645540 -0.171314
v 0.413587 0.645540 -0.171313
v 0.439061 0.645540 -0.087335
v -0.439061 0.645541 -0.087335
v -0.447663 0.645540 -0.000000
v -0.439061 0.645541 0.087334
v -0.413587 0.645540 0.171313
v -0.372218 0.645540 0.248708
v -0.316546 0.645540 0.316545
v -0.248709 0.645540 0.372218
v -0.171313 0.645540 0.413587
v -0.087335 0.645541 0.439061
v -0.295682 -0.019572 -0.436953
v -0.375368 -0.019572 -0.371556
v -0.204769 -0.019572 -0.485547
v 0.099057 -0.019572 -0.515471
v -0.003532 -0.019572 -0.525576
v 0.197704 -0.019572 -0.485547
v 0.522323 -0.019572 0.000280
v 0.512219 -0.019572 -0.102310
v 0.482295 -0.019572 -0.200956
v 0.288617 -0.019572 -0.436953
v 0.433701 -0.019572 -0.291870
v 0.368304 -0.019572 -0.371556
v -0.106122 -0.019572 -0.515471
v 0.368304 -0.019572 0.372116
v 0.512219 -0.019572 0.102869
v 0.482295 -0.019572 0.201516
v 0.433701 -0.019572 0.292429
v -0.519284 -0.019572 -0.102309
v -0.529388 -0.019572 0.000280
v -0.489360 -0.019572 -0.200956
v -0.204768 -0.019572 0.486107
v -0.106121 -0.019572 0.516032
v -0.003532 -0.019572 0.526136
v -0.295681 -0.019572 0.437513
v -0.375368 -0.019572 0.372116
v -0.519284 -0.019572 0.102870
v -0.489359 -0.019572 0.201516
v -0.440765 -0.019572 -0.291870
v -0.440765 -0.019572 0.292430
v 0.197704 -0.019572 0.486107
v 0.288618 -0.019572 0.437513
v 0.099057 -0.019572 0.516031
vn 0.0537 -0.8368 0.5449
vn 0.1589 -0.8368 0.5240
vn 0.2581 -0.8368 0.4829
vn 0.3474 -0.8368 0.4233
vn 0.4233 -0.8368 0.3474
vn 0.4829 -0.8368 0.2581
vn 0.5240 -0.8368 0.1589
vn 0.5449 -0.8368 0.0537
vn 0.5449 -0.8368 -0.0537
vn 0.5240 -0.8368 -0.1589
vn 0.4829 -0.8368 -0.2581
vn 0.4233 -0.8368 -0.3474
vn 0.3474 -0.8368 -0.4233
vn 0.2581 -0.8368 -0.4829
vn 0.1589 -0.8368 -0.5240
vn 0.0537 -0.8368 -0.5449
vn -0.0537 -0.8368 -0.5449
vn -0.1589 -0.8368 -0.5240
vn -0.2581 -0.8368 -0.4829
vn -0.3474 -0.8368 -0.4233
vn -0.4233 -0.8368 -0.3474
vn -0.4829 -0.8368 -0.2581
vn -0.5240 -0.8368 -0.1589
vn -0.5449 -0.8368 -0.0537
vn -0.5449 -0.8368 0.0537
vn -0.5240 -0.8368 0.1589
vn -0.4829 -0.8368 0.2581
vn -0.4233 -0.8368 0.3474
vn -0.3474 -0.8368 0.4233
vn -0.2581 -0.8368 0.4829
vn -0.1589 -0.8368 0.5240
vn -0.0537 -0.8368 0.5449
vn 0.0000 1.0000 0.0000
vn 0.0537 0.8368 -0.5449
vn 0.1589 0.8368 -0.5240
vn 0.2581 0.8368 -0.4829
vn 0.3474 0.8368 -0.4233
vn 0.4233 0.8368 -0.3474
vn 0.4829 0.8368 -0.2581
vn 0.5240 0.8368 -0.1589
vn 0.5449 0.8368 -0.0537
vn 0.5449 0.8368 0.0537
vn 0.5240 0.8368 0.1589
vn 0.4829 0.8368 0.2581
vn 0.4233 0.8368 0.3474
vn 0.3474 0.8368 0.4233
vn 0.2581 0.8368 0.4829
vn 0.1589 0.8368 0.5240
vn 0.0537 0.8368 0.5449
vn -0.0537 0.8368 0.5449
vn -0.1589 0.8368 0.5240
vn -0.2581 0.8368 0.4829
vn -0.3474 0.8368 0.4233
vn -0.4233 0.8368 0.3474
vn -0.4829 0.8368 0.2581
vn -0.5240 0.8368 0.1589
vn -0.5449 0.8368 0.0537
vn -0.5449 0.8368 -0.0537
vn -0.5240 0.8368 -0.1589
vn -0.4829 0.8368 -0.2581
vn -0.4233 0.8368 -0.3474
vn -0.3474 0.8368 -0.4233
vn -0.2581 0.8368 -0.4829
vn -0.1589 0.8368 -0.5240
vn -0.0537 0.8368 -0.5449
vn -0.0000 -1.0000 0.0000
usemtl None
s off
f 1//1 121//1 130//1 2//1
f 2//2 130//2 128//2 3//2
f 3//3 128//3 129//3 4//3
f 4//4 129//4 112//4 5//4
f 5//5 112//5 115//5 6//5
f 6//6 115//6 114//6 7//6
f 7//7 114//7 113//7 8//7
f 8//8 113//8 105//8 9//8
f 9//9 105//9 106//9 10//9
f 10//10 106//10 107//10 11//10
f 11//11 107//11 109//11 12//11
f 12//12 109//12 110//12 13//12
f 13//13 110//13 108//13 14//13
f 14//14 108//14 104//14 15//14
f 15//15 104//15 102//15 16//15
f 16//16 102//16 103//16 17//16
f 17//17 103//17 111//17 18//17
f 18//18 111//18 101//18 19//18
f 19//19 101//19 99//19 20//19
f 20//20 99//20 100//20 21//20
f 21//21 100//21 126//21 22//21
f 22//22 126//22 118//22 23//22
f 23//23 118//23 116//23 24//23
f 24//24 116//24 117//24 25//24
f 25//25 117//25 124//25 26//25
f 26//26 124//26 125//26 27//26
f 27//27 125//27 127//27 28//27
f 28//28 127//28 123//28 29//28
f 29//29 123//29 122//29 30//29
f 30//30 122//30 119//30 31//30
f 31//31 119//31 120//31 32//31
f 32//32 120//32 121//32 1//32
f 1//33 2//33 3//33 4//33 5//33 6//33 7//33 8//33 9//33 10//33 11//33 12//33 13//33 14//33 15//33 16//33 17//33 18//33 19//33 20//33 21//33 22//33 23//33 24//33 25//33 26//33 27//33 28//33 29//33 30//33 31//33 32//33
f 33//34 80//34 81//34 34//34
f 34//35 81//35 76//35 35//35
f 35//36 76//36 77//36 36//36
f 36//37 77//37 84//37 37//37
f 37//38 84//38 86//38 38//38
f 38//39 86//39 88//39 39//39
f 39//40 88//40 89//40 40//40
f 40//41 89//41 67//41 41//41
f 41//42 67//42 68//42 42//42
f 42//43 68//43 69//43 43//43
f 43//44 69//44 70//44 44//44
f 44//45 70//45 71//45 45//45
f 45//46 71//46 72//46 46//46
f 46//47 72//47 73//47 47//47
f 47//48 73//48 74//48 48//48
f 48//49 74//49 75//49 49//49
f 49//50 75//50 98//50 50//50
f 50//51 98//51 97//51 51//51
f 51//52 97//52 96//52 52//52
f 52//53 96//53 95//53 53//53
f 53//54 95//54 94//54 54//54
f 54//55 94//55 93//55 55//55
f 55//56 93//56 92//56 57//56
f 57//57 92//57 91//57 58//57
f 58//58 91//58 90//58 59//58
f 59//59 90//59 87//59 60//59
f 60//60 87//60 85//60 61//60
f 61//61 85//61 83//61 62//61
f 62//62 83//62 82//62 63//62
f 63//63 82//63 78//63 64//63
f 64//64 78//64 79//64 65//64
f 65//65 79//65 80//65 33//65
f 33//66 34//66 35//66 36//66 37//66 38//66 39//66 40//66 41//66 42//66 43//66 44//66 45//66 46//66 47//66 48//66 49//66 50//66 51//66 52//66 53//66 54//66 55//66 57//66 58//66 59//66 60//66 61//66 62//66 63//66 64//66 65//66
f 91//33 92//33 93//33 94//33 95//33 96//33 97//33 98//33 75//33 74//33 73//33 72//33 71//33 70//33 69//33 68//33 67//33 89//33 88//33 86//33 84//33 77//33 76//33 81//33 80//33 79//33 78//33 82//33 83//33 85//33 87//33 90//33
f 124//66 117//66 116//66 118//66 126//66 100//66 99//66 101//66 111//66 103//66 102//66 104//66 108//66 110//66 109//66 107//66 106//66 105//66 113//66 114//66 115//66 112//66 129//66 128//66 130//66 121//66 120//66 119//66 122//66 123//66 127//66 125//66
l 56 66
