<?xml version="1.0" encoding="utf-8" standalone="no"?>
<!DOCTYPE svg PUBLIC "-//W3C//DTD SVG 1.1//EN"
  "http://www.w3.org/Graphics/SVG/1.1/DTD/svg11.dtd">
<svg xmlns:xlink="http://www.w3.org/1999/xlink" width="460.8pt" height="345.6pt" viewBox="0 0 460.8 345.6" xmlns="http://www.w3.org/2000/svg" version="1.1">
 <metadata>
  <rdf:RDF xmlns:dc="http://purl.org/dc/elements/1.1/" xmlns:cc="http://creativecommons.org/ns#" xmlns:rdf="http://www.w3.org/1999/02/22-rdf-syntax-ns#">
   <cc:Work>
    <dc:type rdf:resource="http://purl.org/dc/dcmitype/StillImage"/>
    <dc:date>2022-10-11T17:04:54.344096</dc:date>
    <dc:format>image/svg+xml</dc:format>
    <dc:creator>
     <cc:Agent>
      <dc:title>Matplotlib v3.5.0, https://matplotlib.org/</dc:title>
     </cc:Agent>
    </dc:creator>
   </cc:Work>
  </rdf:RDF>
 </metadata>
 <defs>
  <style type="text/css">*{stroke-linejoin: round; stroke-linecap: butt}</style>
 </defs>
 <g id="figure_1">
  <g id="patch_1">
   <path d="M 0 345.6 
L 460.8 345.6 
L 460.8 0 
L 0 0 
z
" style="fill: #ffffff"/>
  </g>
  <g id="axes_1">
   <g id="patch_2">
    <path d="M 57.6 307.584 
L 414.72 307.584 
L 414.72 41.472 
L 57.6 41.472 
z
" style="fill: #ffffff"/>
   </g>
   <g id="matplotlib.axis_1">
    <g id="xtick_1">
     <g id="line2d_1">
      <defs>
       <path id="mb5bb871780" d="M 0 0 
L 0 3.5 
" style="stroke: #000000; stroke-width: 0.8"/>
      </defs>
      <g>
       <use xlink:href="#mb5bb871780" x="73.832727" y="307.584" style="stroke: #000000; stroke-width: 0.8"/>
      </g>
     </g>
     <g id="text_1">
      <!-- 0 -->
      <g transform="translate(70.651477 322.182437)scale(0.1 -0.1)">
       <defs>
        <path id="DejaVuSans-30" d="M 2034 4250 
Q 1547 4250 1301 3770 
Q 1056 3291 1056 2328 
Q 1056 1369 1301 889 
Q 1547 409 2034 409 
Q 2525 409 2770 889 
Q 3016 1369 3016 2328 
Q 3016 3291 2770 3770 
Q 2525 4250 2034 4250 
z
M 2034 4750 
Q 2819 4750 3233 4129 
Q 3647 3509 3647 2328 
Q 3647 1150 3233 529 
Q 2819 -91 2034 -91 
Q 1250 -91 836 529 
Q 422 1150 422 2328 
Q 422 3509 836 4129 
Q 1250 4750 2034 4750 
z
" transform="scale(0.015625)"/>
       </defs>
       <use xlink:href="#DejaVuSans-30"/>
      </g>
     </g>
    </g>
    <g id="xtick_2">
     <g id="line2d_2">
      <g>
       <use xlink:href="#mb5bb871780" x="114.516254" y="307.584" style="stroke: #000000; stroke-width: 0.8"/>
      </g>
     </g>
     <g id="text_2">
      <!-- 50 -->
      <g transform="translate(108.153754 322.182437)scale(0.1 -0.1)">
       <defs>
        <path id="DejaVuSans-35" d="M 691 4666 
L 3169 4666 
L 3169 4134 
L 1269 4134 
L 1269 2991 
Q 1406 3038 1543 3061 
Q 1681 3084 1819 3084 
Q 2600 3084 3056 2656 
Q 3513 2228 3513 1497 
Q 3513 744 3044 326 
Q 2575 -91 1722 -91 
Q 1428 -91 1123 -41 
Q 819 9 494 109 
L 494 744 
Q 775 591 1075 516 
Q 1375 441 1709 441 
Q 2250 441 2565 725 
Q 2881 1009 2881 1497 
Q 2881 1984 2565 2268 
Q 2250 2553 1709 2553 
Q 1456 2553 1204 2497 
Q 953 2441 691 2322 
L 691 4666 
z
" transform="scale(0.015625)"/>
       </defs>
       <use xlink:href="#DejaVuSans-35"/>
       <use xlink:href="#DejaVuSans-30" x="63.623047"/>
      </g>
     </g>
    </g>
    <g id="xtick_3">
     <g id="line2d_3">
      <g>
       <use xlink:href="#mb5bb871780" x="155.199781" y="307.584" style="stroke: #000000; stroke-width: 0.8"/>
      </g>
     </g>
     <g id="text_3">
      <!-- 100 -->
      <g transform="translate(145.656031 322.182437)scale(0.1 -0.1)">
       <defs>
        <path id="DejaVuSans-31" d="M 794 531 
L 1825 531 
L 1825 4091 
L 703 3866 
L 703 4441 
L 1819 4666 
L 2450 4666 
L 2450 531 
L 3481 531 
L 3481 0 
L 794 0 
L 794 531 
z
" transform="scale(0.015625)"/>
       </defs>
       <use xlink:href="#DejaVuSans-31"/>
       <use xlink:href="#DejaVuSans-30" x="63.623047"/>
       <use xlink:href="#DejaVuSans-30" x="127.246094"/>
      </g>
     </g>
    </g>
    <g id="xtick_4">
     <g id="line2d_4">
      <g>
       <use xlink:href="#mb5bb871780" x="195.883308" y="307.584" style="stroke: #000000; stroke-width: 0.8"/>
      </g>
     </g>
     <g id="text_4">
      <!-- 150 -->
      <g transform="translate(186.339558 322.182437)scale(0.1 -0.1)">
       <use xlink:href="#DejaVuSans-31"/>
       <use xlink:href="#DejaVuSans-35" x="63.623047"/>
       <use xlink:href="#DejaVuSans-30" x="127.246094"/>
      </g>
     </g>
    </g>
    <g id="xtick_5">
     <g id="line2d_5">
      <g>
       <use xlink:href="#mb5bb871780" x="236.566835" y="307.584" style="stroke: #000000; stroke-width: 0.8"/>
      </g>
     </g>
     <g id="text_5">
      <!-- 200 -->
      <g transform="translate(227.023085 322.182437)scale(0.1 -0.1)">
       <defs>
        <path id="DejaVuSans-32" d="M 1228 531 
L 3431 531 
L 3431 0 
L 469 0 
L 469 531 
Q 828 903 1448 1529 
Q 2069 2156 2228 2338 
Q 2531 2678 2651 2914 
Q 2772 3150 2772 3378 
Q 2772 3750 2511 3984 
Q 2250 4219 1831 4219 
Q 1534 4219 1204 4116 
Q 875 4013 500 3803 
L 500 4441 
Q 881 4594 1212 4672 
Q 1544 4750 1819 4750 
Q 2544 4750 2975 4387 
Q 3406 4025 3406 3419 
Q 3406 3131 3298 2873 
Q 3191 2616 2906 2266 
Q 2828 2175 2409 1742 
Q 1991 1309 1228 531 
z
" transform="scale(0.015625)"/>
       </defs>
       <use xlink:href="#DejaVuSans-32"/>
       <use xlink:href="#DejaVuSans-30" x="63.623047"/>
       <use xlink:href="#DejaVuSans-30" x="127.246094"/>
      </g>
     </g>
    </g>
    <g id="xtick_6">
     <g id="line2d_6">
      <g>
       <use xlink:href="#mb5bb871780" x="277.250362" y="307.584" style="stroke: #000000; stroke-width: 0.8"/>
      </g>
     </g>
     <g id="text_6">
      <!-- 250 -->
      <g transform="translate(267.706612 322.182437)scale(0.1 -0.1)">
       <use xlink:href="#DejaVuSans-32"/>
       <use xlink:href="#DejaVuSans-35" x="63.623047"/>
       <use xlink:href="#DejaVuSans-30" x="127.246094"/>
      </g>
     </g>
    </g>
    <g id="xtick_7">
     <g id="line2d_7">
      <g>
       <use xlink:href="#mb5bb871780" x="317.933889" y="307.584" style="stroke: #000000; stroke-width: 0.8"/>
      </g>
     </g>
     <g id="text_7">
      <!-- 300 -->
      <g transform="translate(308.390139 322.182437)scale(0.1 -0.1)">
       <defs>
        <path id="DejaVuSans-33" d="M 2597 2516 
Q 3050 2419 3304 2112 
Q 3559 1806 3559 1356 
Q 3559 666 3084 287 
Q 2609 -91 1734 -91 
Q 1441 -91 1130 -33 
Q 819 25 488 141 
L 488 750 
Q 750 597 1062 519 
Q 1375 441 1716 441 
Q 2309 441 2620 675 
Q 2931 909 2931 1356 
Q 2931 1769 2642 2001 
Q 2353 2234 1838 2234 
L 1294 2234 
L 1294 2753 
L 1863 2753 
Q 2328 2753 2575 2939 
Q 2822 3125 2822 3475 
Q 2822 3834 2567 4026 
Q 2313 4219 1838 4219 
Q 1578 4219 1281 4162 
Q 984 4106 628 3988 
L 628 4550 
Q 988 4650 1302 4700 
Q 1616 4750 1894 4750 
Q 2613 4750 3031 4423 
Q 3450 4097 3450 3541 
Q 3450 3153 3228 2886 
Q 3006 2619 2597 2516 
z
" transform="scale(0.015625)"/>
       </defs>
       <use xlink:href="#DejaVuSans-33"/>
       <use xlink:href="#DejaVuSans-30" x="63.623047"/>
       <use xlink:href="#DejaVuSans-30" x="127.246094"/>
      </g>
     </g>
    </g>
    <g id="xtick_8">
     <g id="line2d_8">
      <g>
       <use xlink:href="#mb5bb871780" x="358.617416" y="307.584" style="stroke: #000000; stroke-width: 0.8"/>
      </g>
     </g>
     <g id="text_8">
      <!-- 350 -->
      <g transform="translate(349.073666 322.182437)scale(0.1 -0.1)">
       <use xlink:href="#DejaVuSans-33"/>
       <use xlink:href="#DejaVuSans-35" x="63.623047"/>
       <use xlink:href="#DejaVuSans-30" x="127.246094"/>
      </g>
     </g>
    </g>
    <g id="xtick_9">
     <g id="line2d_9">
      <g>
       <use xlink:href="#mb5bb871780" x="399.300943" y="307.584" style="stroke: #000000; stroke-width: 0.8"/>
      </g>
     </g>
     <g id="text_9">
      <!-- 400 -->
      <g transform="translate(389.757193 322.182437)scale(0.1 -0.1)">
       <defs>
        <path id="DejaVuSans-34" d="M 2419 4116 
L 825 1625 
L 2419 1625 
L 2419 4116 
z
M 2253 4666 
L 3047 4666 
L 3047 1625 
L 3713 1625 
L 3713 1100 
L 3047 1100 
L 3047 0 
L 2419 0 
L 2419 1100 
L 313 1100 
L 313 1709 
L 2253 4666 
z
" transform="scale(0.015625)"/>
       </defs>
       <use xlink:href="#DejaVuSans-34"/>
       <use xlink:href="#DejaVuSans-30" x="63.623047"/>
       <use xlink:href="#DejaVuSans-30" x="127.246094"/>
      </g>
     </g>
    </g>
    <g id="text_10">
     <!-- Generation -->
     <g transform="translate(208.267031 335.860562)scale(0.1 -0.1)">
      <defs>
       <path id="DejaVuSans-47" d="M 3809 666 
L 3809 1919 
L 2778 1919 
L 2778 2438 
L 4434 2438 
L 4434 434 
Q 4069 175 3628 42 
Q 3188 -91 2688 -91 
Q 1594 -91 976 548 
Q 359 1188 359 2328 
Q 359 3472 976 4111 
Q 1594 4750 2688 4750 
Q 3144 4750 3555 4637 
Q 3966 4525 4313 4306 
L 4313 3634 
Q 3963 3931 3569 4081 
Q 3175 4231 2741 4231 
Q 1884 4231 1454 3753 
Q 1025 3275 1025 2328 
Q 1025 1384 1454 906 
Q 1884 428 2741 428 
Q 3075 428 3337 486 
Q 3600 544 3809 666 
z
" transform="scale(0.015625)"/>
       <path id="DejaVuSans-65" d="M 3597 1894 
L 3597 1613 
L 953 1613 
Q 991 1019 1311 708 
Q 1631 397 2203 397 
Q 2534 397 2845 478 
Q 3156 559 3463 722 
L 3463 178 
Q 3153 47 2828 -22 
Q 2503 -91 2169 -91 
Q 1331 -91 842 396 
Q 353 884 353 1716 
Q 353 2575 817 3079 
Q 1281 3584 2069 3584 
Q 2775 3584 3186 3129 
Q 3597 2675 3597 1894 
z
M 3022 2063 
Q 3016 2534 2758 2815 
Q 2500 3097 2075 3097 
Q 1594 3097 1305 2825 
Q 1016 2553 972 2059 
L 3022 2063 
z
" transform="scale(0.015625)"/>
       <path id="DejaVuSans-6e" d="M 3513 2113 
L 3513 0 
L 2938 0 
L 2938 2094 
Q 2938 2591 2744 2837 
Q 2550 3084 2163 3084 
Q 1697 3084 1428 2787 
Q 1159 2491 1159 1978 
L 1159 0 
L 581 0 
L 581 3500 
L 1159 3500 
L 1159 2956 
Q 1366 3272 1645 3428 
Q 1925 3584 2291 3584 
Q 2894 3584 3203 3211 
Q 3513 2838 3513 2113 
z
" transform="scale(0.015625)"/>
       <path id="DejaVuSans-72" d="M 2631 2963 
Q 2534 3019 2420 3045 
Q 2306 3072 2169 3072 
Q 1681 3072 1420 2755 
Q 1159 2438 1159 1844 
L 1159 0 
L 581 0 
L 581 3500 
L 1159 3500 
L 1159 2956 
Q 1341 3275 1631 3429 
Q 1922 3584 2338 3584 
Q 2397 3584 2469 3576 
Q 2541 3569 2628 3553 
L 2631 2963 
z
" transform="scale(0.015625)"/>
       <path id="DejaVuSans-61" d="M 2194 1759 
Q 1497 1759 1228 1600 
Q 959 1441 959 1056 
Q 959 750 1161 570 
Q 1363 391 1709 391 
Q 2188 391 2477 730 
Q 2766 1069 2766 1631 
L 2766 1759 
L 2194 1759 
z
M 3341 1997 
L 3341 0 
L 2766 0 
L 2766 531 
Q 2569 213 2275 61 
Q 1981 -91 1556 -91 
Q 1019 -91 701 211 
Q 384 513 384 1019 
Q 384 1609 779 1909 
Q 1175 2209 1959 2209 
L 2766 2209 
L 2766 2266 
Q 2766 2663 2505 2880 
Q 2244 3097 1772 3097 
Q 1472 3097 1187 3025 
Q 903 2953 641 2809 
L 641 3341 
Q 956 3463 1253 3523 
Q 1550 3584 1831 3584 
Q 2591 3584 2966 3190 
Q 3341 2797 3341 1997 
z
" transform="scale(0.015625)"/>
       <path id="DejaVuSans-74" d="M 1172 4494 
L 1172 3500 
L 2356 3500 
L 2356 3053 
L 1172 3053 
L 1172 1153 
Q 1172 725 1289 603 
Q 1406 481 1766 481 
L 2356 481 
L 2356 0 
L 1766 0 
Q 1100 0 847 248 
Q 594 497 594 1153 
L 594 3053 
L 172 3053 
L 172 3500 
L 594 3500 
L 594 4494 
L 1172 4494 
z
" transform="scale(0.015625)"/>
       <path id="DejaVuSans-69" d="M 603 3500 
L 1178 3500 
L 1178 0 
L 603 0 
L 603 3500 
z
M 603 4863 
L 1178 4863 
L 1178 4134 
L 603 4134 
L 603 4863 
z
" transform="scale(0.015625)"/>
       <path id="DejaVuSans-6f" d="M 1959 3097 
Q 1497 3097 1228 2736 
Q 959 2375 959 1747 
Q 959 1119 1226 758 
Q 1494 397 1959 397 
Q 2419 397 2687 759 
Q 2956 1122 2956 1747 
Q 2956 2369 2687 2733 
Q 2419 3097 1959 3097 
z
M 1959 3584 
Q 2709 3584 3137 3096 
Q 3566 2609 3566 1747 
Q 3566 888 3137 398 
Q 2709 -91 1959 -91 
Q 1206 -91 779 398 
Q 353 888 353 1747 
Q 353 2609 779 3096 
Q 1206 3584 1959 3584 
z
" transform="scale(0.015625)"/>
      </defs>
      <use xlink:href="#DejaVuSans-47"/>
      <use xlink:href="#DejaVuSans-65" x="77.490234"/>
      <use xlink:href="#DejaVuSans-6e" x="139.013672"/>
      <use xlink:href="#DejaVuSans-65" x="202.392578"/>
      <use xlink:href="#DejaVuSans-72" x="263.916016"/>
      <use xlink:href="#DejaVuSans-61" x="305.029297"/>
      <use xlink:href="#DejaVuSans-74" x="366.308594"/>
      <use xlink:href="#DejaVuSans-69" x="405.517578"/>
      <use xlink:href="#DejaVuSans-6f" x="433.300781"/>
      <use xlink:href="#DejaVuSans-6e" x="494.482422"/>
     </g>
    </g>
   </g>
   <g id="matplotlib.axis_2">
    <g id="ytick_1">
     <g id="line2d_10">
      <defs>
       <path id="m97b5da12b9" d="M 0 0 
L -3.5 0 
" style="stroke: #000000; stroke-width: 0.8"/>
      </defs>
      <g>
       <use xlink:href="#m97b5da12b9" x="57.6" y="307.584" style="stroke: #000000; stroke-width: 0.8"/>
      </g>
     </g>
     <g id="text_11">
      <!-- 0 -->
      <g transform="translate(44.2375 311.383219)scale(0.1 -0.1)">
       <use xlink:href="#DejaVuSans-30"/>
      </g>
     </g>
    </g>
    <g id="ytick_2">
     <g id="line2d_11">
      <g>
       <use xlink:href="#m97b5da12b9" x="57.6" y="266.643692" style="stroke: #000000; stroke-width: 0.8"/>
      </g>
     </g>
     <g id="text_12">
      <!-- 10 -->
      <g transform="translate(37.875 270.442911)scale(0.1 -0.1)">
       <use xlink:href="#DejaVuSans-31"/>
       <use xlink:href="#DejaVuSans-30" x="63.623047"/>
      </g>
     </g>
    </g>
    <g id="ytick_3">
     <g id="line2d_12">
      <g>
       <use xlink:href="#m97b5da12b9" x="57.6" y="225.703385" style="stroke: #000000; stroke-width: 0.8"/>
      </g>
     </g>
     <g id="text_13">
      <!-- 20 -->
      <g transform="translate(37.875 229.502603)scale(0.1 -0.1)">
       <use xlink:href="#DejaVuSans-32"/>
       <use xlink:href="#DejaVuSans-30" x="63.623047"/>
      </g>
     </g>
    </g>
    <g id="ytick_4">
     <g id="line2d_13">
      <g>
       <use xlink:href="#m97b5da12b9" x="57.6" y="184.763077" style="stroke: #000000; stroke-width: 0.8"/>
      </g>
     </g>
     <g id="text_14">
      <!-- 30 -->
      <g transform="translate(37.875 188.562296)scale(0.1 -0.1)">
       <use xlink:href="#DejaVuSans-33"/>
       <use xlink:href="#DejaVuSans-30" x="63.623047"/>
      </g>
     </g>
    </g>
    <g id="ytick_5">
     <g id="line2d_14">
      <g>
       <use xlink:href="#m97b5da12b9" x="57.6" y="143.822769" style="stroke: #000000; stroke-width: 0.8"/>
      </g>
     </g>
     <g id="text_15">
      <!-- 40 -->
      <g transform="translate(37.875 147.621988)scale(0.1 -0.1)">
       <use xlink:href="#DejaVuSans-34"/>
       <use xlink:href="#DejaVuSans-30" x="63.623047"/>
      </g>
     </g>
    </g>
    <g id="ytick_6">
     <g id="line2d_15">
      <g>
       <use xlink:href="#m97b5da12b9" x="57.6" y="102.882462" style="stroke: #000000; stroke-width: 0.8"/>
      </g>
     </g>
     <g id="text_16">
      <!-- 50 -->
      <g transform="translate(37.875 106.68168)scale(0.1 -0.1)">
       <use xlink:href="#DejaVuSans-35"/>
       <use xlink:href="#DejaVuSans-30" x="63.623047"/>
      </g>
     </g>
    </g>
    <g id="ytick_7">
     <g id="line2d_16">
      <g>
       <use xlink:href="#m97b5da12b9" x="57.6" y="61.942154" style="stroke: #000000; stroke-width: 0.8"/>
      </g>
     </g>
     <g id="text_17">
      <!-- 60 -->
      <g transform="translate(37.875 65.741373)scale(0.1 -0.1)">
       <defs>
        <path id="DejaVuSans-36" d="M 2113 2584 
Q 1688 2584 1439 2293 
Q 1191 2003 1191 1497 
Q 1191 994 1439 701 
Q 1688 409 2113 409 
Q 2538 409 2786 701 
Q 3034 994 3034 1497 
Q 3034 2003 2786 2293 
Q 2538 2584 2113 2584 
z
M 3366 4563 
L 3366 3988 
Q 3128 4100 2886 4159 
Q 2644 4219 2406 4219 
Q 1781 4219 1451 3797 
Q 1122 3375 1075 2522 
Q 1259 2794 1537 2939 
Q 1816 3084 2150 3084 
Q 2853 3084 3261 2657 
Q 3669 2231 3669 1497 
Q 3669 778 3244 343 
Q 2819 -91 2113 -91 
Q 1303 -91 875 529 
Q 447 1150 447 2328 
Q 447 3434 972 4092 
Q 1497 4750 2381 4750 
Q 2619 4750 2861 4703 
Q 3103 4656 3366 4563 
z
" transform="scale(0.015625)"/>
       </defs>
       <use xlink:href="#DejaVuSans-36"/>
       <use xlink:href="#DejaVuSans-30" x="63.623047"/>
      </g>
     </g>
    </g>
    <g id="text_18">
     <!-- Fitness -->
     <g transform="translate(31.795312 191.845187)rotate(-90)scale(0.1 -0.1)">
      <defs>
       <path id="DejaVuSans-46" d="M 628 4666 
L 3309 4666 
L 3309 4134 
L 1259 4134 
L 1259 2759 
L 3109 2759 
L 3109 2228 
L 1259 2228 
L 1259 0 
L 628 0 
L 628 4666 
z
" transform="scale(0.015625)"/>
       <path id="DejaVuSans-73" d="M 2834 3397 
L 2834 2853 
Q 2591 2978 2328 3040 
Q 2066 3103 1784 3103 
Q 1356 3103 1142 2972 
Q 928 2841 928 2578 
Q 928 2378 1081 2264 
Q 1234 2150 1697 2047 
L 1894 2003 
Q 2506 1872 2764 1633 
Q 3022 1394 3022 966 
Q 3022 478 2636 193 
Q 2250 -91 1575 -91 
Q 1294 -91 989 -36 
Q 684 19 347 128 
L 347 722 
Q 666 556 975 473 
Q 1284 391 1588 391 
Q 1994 391 2212 530 
Q 2431 669 2431 922 
Q 2431 1156 2273 1281 
Q 2116 1406 1581 1522 
L 1381 1569 
Q 847 1681 609 1914 
Q 372 2147 372 2553 
Q 372 3047 722 3315 
Q 1072 3584 1716 3584 
Q 2034 3584 2315 3537 
Q 2597 3491 2834 3397 
z
" transform="scale(0.015625)"/>
      </defs>
      <use xlink:href="#DejaVuSans-46"/>
      <use xlink:href="#DejaVuSans-69" x="50.269531"/>
      <use xlink:href="#DejaVuSans-74" x="78.052734"/>
      <use xlink:href="#DejaVuSans-6e" x="117.261719"/>
      <use xlink:href="#DejaVuSans-65" x="180.640625"/>
      <use xlink:href="#DejaVuSans-73" x="242.164062"/>
      <use xlink:href="#DejaVuSans-73" x="294.263672"/>
     </g>
    </g>
   </g>
   <g id="line2d_17">
    <path d="M 73.832727 292.745988 
L 75.460068 287.432107 
L 76.273739 286.036812 
L 77.087409 282.572495 
L 77.90108 279.754229 
L 78.714751 277.607827 
L 79.528421 276.662993 
L 80.342092 277.284895 
L 81.155762 276.489865 
L 81.969433 274.697998 
L 82.783103 272.511418 
L 83.596774 271.180263 
L 84.410444 270.114871 
L 85.224115 270.676713 
L 86.037785 271.775705 
L 86.851456 270.32047 
L 87.665126 271.87764 
L 88.478797 269.405329 
L 89.292468 268.978401 
L 90.106138 266.943544 
L 90.919809 266.3508 
L 91.733479 265.208438 
L 92.54715 265.647366 
L 93.36082 263.993952 
L 94.174491 263.825462 
L 94.988161 260.514695 
L 95.801832 259.622677 
L 96.615502 261.674511 
L 97.429173 258.979416 
L 98.242843 261.314386 
L 99.056514 259.351836 
L 99.870185 260.12684 
L 101.497526 260.08798 
L 102.311196 255.479843 
L 103.124867 259.149985 
L 103.938537 260.644686 
L 104.752208 261.774965 
L 105.565878 260.882616 
L 106.379549 261.200937 
L 107.193219 256.28341 
L 108.00689 258.135619 
L 108.82056 252.641419 
L 109.634231 254.560016 
L 110.447902 254.858414 
L 111.261572 251.850458 
L 112.075243 251.570428 
L 112.888913 243.825834 
L 113.702584 244.080244 
L 114.516254 246.999809 
L 115.329925 247.2997 
L 116.143595 242.912563 
L 116.957266 248.062434 
L 117.770936 247.729339 
L 118.584607 247.148415 
L 119.398278 250.248454 
L 120.211948 245.139273 
L 121.025619 247.351682 
L 121.839289 248.849699 
L 122.65296 243.195419 
L 123.46663 242.099656 
L 124.280301 245.053667 
L 125.093971 241.059196 
L 127.534983 242.489272 
L 128.348653 240.982706 
L 129.162324 242.74342 
L 129.975995 238.766802 
L 130.789665 236.948402 
L 131.603336 235.711484 
L 132.417006 238.846327 
L 133.230677 237.244244 
L 134.044347 237.179369 
L 134.858018 237.968166 
L 135.671688 237.642367 
L 136.485359 238.879777 
L 137.299029 240.840673 
L 138.92637 235.589385 
L 139.740041 237.126069 
L 140.553712 236.732238 
L 141.367382 242.024582 
L 142.181053 237.184202 
L 142.994723 238.208455 
L 143.808394 236.32632 
L 144.622064 236.675325 
L 145.435735 238.510566 
L 146.249405 237.091305 
L 147.063076 231.296592 
L 147.876746 233.865747 
L 148.690417 237.107603 
L 149.504087 239.084322 
L 150.317758 233.80251 
L 151.131429 236.949184 
L 151.945099 241.040853 
L 152.75877 236.79908 
L 154.386111 234.014787 
L 155.199781 234.529343 
L 156.013452 229.115519 
L 156.827122 229.256001 
L 157.640793 223.854075 
L 158.454463 223.255366 
L 159.268134 224.264273 
L 160.081805 224.607237 
L 160.895475 218.98024 
L 161.709146 216.794283 
L 162.522816 218.714773 
L 163.336487 228.882153 
L 164.150157 219.594204 
L 164.963828 221.505622 
L 165.777498 221.640385 
L 166.591169 222.01374 
L 167.404839 223.380513 
L 168.21851 217.317159 
L 169.03218 225.336466 
L 169.845851 217.364091 
L 170.659522 218.551837 
L 171.473192 224.586015 
L 172.286863 207.542079 
L 173.100533 221.555303 
L 173.914204 215.005436 
L 174.727874 217.250787 
L 175.541545 216.928207 
L 176.355215 212.099151 
L 177.168886 200.10274 
L 178.796227 219.79078 
L 179.609897 211.872236 
L 180.423568 210.057382 
L 182.050909 213.491418 
L 182.86458 217.288947 
L 183.67825 221.973171 
L 184.491921 220.286984 
L 185.305591 201.921396 
L 186.119262 207.83707 
L 186.932932 215.669428 
L 187.746603 211.916604 
L 188.560273 205.439315 
L 189.373944 205.294729 
L 190.187614 207.363823 
L 191.001285 214.324576 
L 191.814956 212.142303 
L 192.628626 216.678943 
L 193.442297 212.244841 
L 194.255967 212.510894 
L 195.069638 208.161768 
L 195.883308 204.558621 
L 196.696979 212.25217 
L 197.510649 210.511174 
L 198.32432 214.291559 
L 199.13799 204.704878 
L 199.951661 208.908206 
L 200.765332 207.542114 
L 201.579002 202.364012 
L 202.392673 202.138526 
L 203.206343 201.500135 
L 204.020014 209.450645 
L 204.833684 208.940619 
L 205.647355 202.995867 
L 206.461025 205.778721 
L 208.088366 212.557609 
L 208.902037 200.855624 
L 209.715707 207.139976 
L 210.529378 212.524294 
L 211.343049 211.501527 
L 212.156719 206.639148 
L 212.97039 207.82891 
L 213.78406 206.38663 
L 214.597731 207.059539 
L 215.411401 209.895529 
L 216.225072 208.59161 
L 217.038742 212.14813 
L 217.852413 207.552757 
L 218.666083 207.766062 
L 219.479754 218.093505 
L 220.293424 205.195117 
L 221.107095 204.792965 
L 221.920766 209.479101 
L 222.734436 206.034816 
L 223.548107 208.350401 
L 224.361777 209.537785 
L 225.175448 205.840116 
L 225.989118 207.732999 
L 226.802789 206.112443 
L 227.616459 208.198076 
L 228.43013 208.559571 
L 229.2438 212.680362 
L 230.057471 210.96903 
L 230.871141 207.604598 
L 231.684812 219.407342 
L 232.498483 218.961349 
L 233.312153 207.526916 
L 234.125824 216.102637 
L 234.939494 217.131948 
L 235.753165 214.809103 
L 236.566835 213.450182 
L 237.380506 206.566647 
L 238.194176 213.158891 
L 239.007847 214.92878 
L 239.821517 211.494434 
L 240.635188 210.675992 
L 241.448859 211.881149 
L 242.262529 209.371765 
L 243.0762 213.487465 
L 243.88987 206.233593 
L 244.703541 218.391391 
L 245.517211 206.504026 
L 246.330882 217.663544 
L 247.144552 208.604454 
L 247.958223 207.926044 
L 248.771893 206.796353 
L 250.399234 203.179698 
L 251.212905 207.498127 
L 252.026576 206.233627 
L 252.840246 203.573182 
L 253.653917 206.815879 
L 254.467587 213.818498 
L 255.281258 213.665518 
L 256.094928 203.870023 
L 256.908599 209.731675 
L 257.722269 205.362512 
L 258.53594 214.941343 
L 259.34961 208.036037 
L 260.163281 210.555466 
L 260.976951 207.55521 
L 261.790622 212.97847 
L 262.604293 206.24969 
L 263.417963 203.951682 
L 264.231634 215.818326 
L 265.045304 208.485853 
L 265.858975 198.725673 
L 266.672645 206.808373 
L 267.486316 210.746036 
L 268.299986 208.692753 
L 269.113657 201.251864 
L 269.927327 204.740166 
L 270.740998 209.808449 
L 271.554668 207.55926 
L 272.368339 201.948598 
L 273.18201 213.77468 
L 273.99568 204.341169 
L 274.809351 214.749264 
L 275.623021 203.214449 
L 276.436692 203.041879 
L 277.250362 210.289466 
L 278.064033 205.711678 
L 278.877703 210.428929 
L 279.691374 208.52438 
L 280.505044 206.328801 
L 281.318715 213.628834 
L 282.132386 210.366164 
L 282.946056 213.754077 
L 283.759727 218.515629 
L 284.573397 204.627213 
L 285.387068 207.148299 
L 286.200738 211.125602 
L 287.014409 209.413497 
L 287.828079 212.526459 
L 288.64175 216.081663 
L 289.45542 213.917717 
L 290.269091 205.560209 
L 291.082761 211.430975 
L 291.896432 207.247018 
L 292.710103 205.503647 
L 293.523773 209.95833 
L 294.337444 209.474719 
L 295.151114 213.291131 
L 295.964785 203.680979 
L 296.778455 211.819898 
L 297.592126 205.289715 
L 298.405796 214.308114 
L 299.219467 202.832266 
L 300.033137 209.709516 
L 300.846808 205.980195 
L 301.660478 206.282451 
L 303.28782 211.262652 
L 304.10149 207.394119 
L 304.915161 211.193154 
L 305.728831 204.376053 
L 306.542502 210.283108 
L 307.356172 203.061901 
L 308.169843 212.021306 
L 308.983513 202.298671 
L 309.797184 204.442749 
L 310.610854 209.288134 
L 311.424525 204.102452 
L 312.238195 212.847896 
L 313.051866 213.019066 
L 313.865537 202.836674 
L 314.679207 207.810677 
L 315.492878 200.548065 
L 316.306548 208.261291 
L 317.120219 213.946023 
L 317.933889 205.058632 
L 318.74756 204.170224 
L 319.56123 201.736431 
L 320.374901 210.311057 
L 321.188571 195.60998 
L 322.002242 209.213061 
L 322.815913 206.905661 
L 323.629583 201.870765 
L 324.443254 209.94366 
L 325.256924 202.007131 
L 326.070595 212.806875 
L 326.884265 206.037803 
L 327.697936 206.694991 
L 328.511606 212.352868 
L 329.325277 212.499144 
L 330.138947 208.9765 
L 331.766288 203.426299 
L 332.579959 213.932919 
L 333.39363 207.905449 
L 334.2073 208.49357 
L 335.020971 212.78331 
L 336.648312 203.873395 
L 337.461982 205.71942 
L 338.275653 209.974283 
L 339.089323 207.098012 
L 339.902994 206.521503 
L 340.716664 202.245039 
L 341.530335 200.795853 
L 342.344005 205.255816 
L 343.157676 199.961282 
L 343.971347 208.710159 
L 344.785017 204.9763 
L 345.598688 213.089725 
L 346.412358 199.009906 
L 347.226029 213.025386 
L 348.039699 199.337651 
L 348.85337 208.41799 
L 349.66704 202.060194 
L 350.480711 197.030531 
L 351.294381 212.291364 
L 352.108052 207.334689 
L 352.921722 194.818698 
L 353.735393 212.243046 
L 354.549064 209.176423 
L 355.362734 204.349388 
L 356.990075 205.96409 
L 357.803746 201.753922 
L 358.617416 205.74536 
L 359.431087 204.291516 
L 360.244757 203.18317 
L 361.058428 201.884231 
L 361.872098 201.192142 
L 362.685769 209.359282 
L 363.49944 204.716161 
L 364.31311 207.889013 
L 365.126781 203.423269 
L 365.940451 201.142996 
L 366.754122 202.464974 
L 367.567792 203.175491 
L 370.008804 206.860295 
L 370.822474 205.359595 
L 371.636145 205.470661 
L 372.449815 198.987301 
L 373.263486 216.758673 
L 374.077157 210.808294 
L 374.890827 208.129284 
L 375.704498 214.131535 
L 376.518168 207.50585 
L 377.331839 207.154205 
L 378.145509 203.642787 
L 378.95918 203.649453 
L 379.77285 205.576456 
L 380.586521 198.477019 
L 381.400191 202.003887 
L 382.213862 200.710141 
L 383.027532 204.929178 
L 383.841203 208.110038 
L 386.282215 200.011731 
L 387.095885 215.145048 
L 387.909556 203.834071 
L 389.536897 212.342732 
L 390.350567 212.963288 
L 391.164238 207.241965 
L 391.977908 204.108271 
L 392.791579 208.018482 
L 394.41892 213.152072 
L 395.232591 207.621659 
L 396.046261 209.137495 
L 396.859932 205.969389 
L 397.673602 203.255951 
L 398.487273 205.450481 
L 398.487273 205.450481 
" clip-path="url(#p82f7d32691)" style="fill: none; stroke: #1f77b4; stroke-width: 1.5; stroke-linecap: square"/>
   </g>
   <g id="patch_3">
    <path d="M 57.6 307.584 
L 57.6 41.472 
" style="fill: none; stroke: #000000; stroke-width: 0.8; stroke-linejoin: miter; stroke-linecap: square"/>
   </g>
   <g id="patch_4">
    <path d="M 414.72 307.584 
L 414.72 41.472 
" style="fill: none; stroke: #000000; stroke-width: 0.8; stroke-linejoin: miter; stroke-linecap: square"/>
   </g>
   <g id="patch_5">
    <path d="M 57.6 307.584 
L 414.72 307.584 
" style="fill: none; stroke: #000000; stroke-width: 0.8; stroke-linejoin: miter; stroke-linecap: square"/>
   </g>
   <g id="patch_6">
    <path d="M 57.6 41.472 
L 414.72 41.472 
" style="fill: none; stroke: #000000; stroke-width: 0.8; stroke-linejoin: miter; stroke-linecap: square"/>
   </g>
   <g id="legend_1">
    <g id="patch_7">
     <path d="M 334.654375 64.150125 
L 407.72 64.150125 
Q 409.72 64.150125 409.72 62.150125 
L 409.72 48.472 
Q 409.72 46.472 407.72 46.472 
L 334.654375 46.472 
Q 332.654375 46.472 332.654375 48.472 
L 332.654375 62.150125 
Q 332.654375 64.150125 334.654375 64.150125 
z
" style="fill: #ffffff; opacity: 0.8; stroke: #cccccc; stroke-linejoin: miter"/>
    </g>
    <g id="line2d_18">
     <path d="M 336.654375 54.570438 
L 346.654375 54.570438 
L 356.654375 54.570438 
" style="fill: none; stroke: #1f77b4; stroke-width: 1.5; stroke-linecap: square"/>
    </g>
    <g id="text_19">
     <!-- Average -->
     <g transform="translate(364.654375 58.070438)scale(0.1 -0.1)">
      <defs>
       <path id="DejaVuSans-41" d="M 2188 4044 
L 1331 1722 
L 3047 1722 
L 2188 4044 
z
M 1831 4666 
L 2547 4666 
L 4325 0 
L 3669 0 
L 3244 1197 
L 1141 1197 
L 716 0 
L 50 0 
L 1831 4666 
z
" transform="scale(0.015625)"/>
       <path id="DejaVuSans-76" d="M 191 3500 
L 800 3500 
L 1894 563 
L 2988 3500 
L 3597 3500 
L 2284 0 
L 1503 0 
L 191 3500 
z
" transform="scale(0.015625)"/>
       <path id="DejaVuSans-67" d="M 2906 1791 
Q 2906 2416 2648 2759 
Q 2391 3103 1925 3103 
Q 1463 3103 1205 2759 
Q 947 2416 947 1791 
Q 947 1169 1205 825 
Q 1463 481 1925 481 
Q 2391 481 2648 825 
Q 2906 1169 2906 1791 
z
M 3481 434 
Q 3481 -459 3084 -895 
Q 2688 -1331 1869 -1331 
Q 1566 -1331 1297 -1286 
Q 1028 -1241 775 -1147 
L 775 -588 
Q 1028 -725 1275 -790 
Q 1522 -856 1778 -856 
Q 2344 -856 2625 -561 
Q 2906 -266 2906 331 
L 2906 616 
Q 2728 306 2450 153 
Q 2172 0 1784 0 
Q 1141 0 747 490 
Q 353 981 353 1791 
Q 353 2603 747 3093 
Q 1141 3584 1784 3584 
Q 2172 3584 2450 3431 
Q 2728 3278 2906 2969 
L 2906 3500 
L 3481 3500 
L 3481 434 
z
" transform="scale(0.015625)"/>
      </defs>
      <use xlink:href="#DejaVuSans-41"/>
      <use xlink:href="#DejaVuSans-76" x="62.533203"/>
      <use xlink:href="#DejaVuSans-65" x="121.712891"/>
      <use xlink:href="#DejaVuSans-72" x="183.236328"/>
      <use xlink:href="#DejaVuSans-61" x="224.349609"/>
      <use xlink:href="#DejaVuSans-67" x="285.628906"/>
      <use xlink:href="#DejaVuSans-65" x="349.105469"/>
     </g>
    </g>
   </g>
  </g>
 </g>
 <defs>
  <clipPath id="p82f7d32691">
   <rect x="57.6" y="41.472" width="357.12" height="266.112"/>
  </clipPath>
 </defs>
</svg>
