<?xml version="1.0" encoding="utf-8" standalone="no"?>
<!DOCTYPE svg PUBLIC "-//W3C//DTD SVG 1.1//EN"
  "http://www.w3.org/Graphics/SVG/1.1/DTD/svg11.dtd">
<svg xmlns:xlink="http://www.w3.org/1999/xlink" width="460.8pt" height="345.6pt" viewBox="0 0 460.8 345.6" xmlns="http://www.w3.org/2000/svg" version="1.1">
 <metadata>
  <rdf:RDF xmlns:dc="http://purl.org/dc/elements/1.1/" xmlns:cc="http://creativecommons.org/ns#" xmlns:rdf="http://www.w3.org/1999/02/22-rdf-syntax-ns#">
   <cc:Work>
    <dc:type rdf:resource="http://purl.org/dc/dcmitype/StillImage"/>
    <dc:date>2022-10-12T15:45:42.694708</dc:date>
    <dc:format>image/svg+xml</dc:format>
    <dc:creator>
     <cc:Agent>
      <dc:title>Matplotlib v3.5.0, https://matplotlib.org/</dc:title>
     </cc:Agent>
    </dc:creator>
   </cc:Work>
  </rdf:RDF>
 </metadata>
 <defs>
  <style type="text/css">*{stroke-linejoin: round; stroke-linecap: butt}</style>
 </defs>
 <g id="figure_1">
  <g id="patch_1">
   <path d="M 0 345.6 
L 460.8 345.6 
L 460.8 0 
L 0 0 
z
" style="fill: #ffffff"/>
  </g>
  <g id="axes_1">
   <g id="patch_2">
    <path d="M 57.6 307.584 
L 414.72 307.584 
L 414.72 41.472 
L 57.6 41.472 
z
" style="fill: #ffffff"/>
   </g>
   <g id="matplotlib.axis_1">
    <g id="xtick_1">
     <g id="line2d_1">
      <defs>
       <path id="m5d1b02e3d7" d="M 0 0 
L 0 3.5 
" style="stroke: #000000; stroke-width: 0.8"/>
      </defs>
      <g>
       <use xlink:href="#m5d1b02e3d7" x="73.832727" y="307.584" style="stroke: #000000; stroke-width: 0.8"/>
      </g>
     </g>
     <g id="text_1">
      <!-- 0 -->
      <g transform="translate(70.651477 322.182437)scale(0.1 -0.1)">
       <defs>
        <path id="DejaVuSans-30" d="M 2034 4250 
Q 1547 4250 1301 3770 
Q 1056 3291 1056 2328 
Q 1056 1369 1301 889 
Q 1547 409 2034 409 
Q 2525 409 2770 889 
Q 3016 1369 3016 2328 
Q 3016 3291 2770 3770 
Q 2525 4250 2034 4250 
z
M 2034 4750 
Q 2819 4750 3233 4129 
Q 3647 3509 3647 2328 
Q 3647 1150 3233 529 
Q 2819 -91 2034 -91 
Q 1250 -91 836 529 
Q 422 1150 422 2328 
Q 422 3509 836 4129 
Q 1250 4750 2034 4750 
z
" transform="scale(0.015625)"/>
       </defs>
       <use xlink:href="#DejaVuSans-30"/>
      </g>
     </g>
    </g>
    <g id="xtick_2">
     <g id="line2d_2">
      <g>
       <use xlink:href="#m5d1b02e3d7" x="114.516254" y="307.584" style="stroke: #000000; stroke-width: 0.8"/>
      </g>
     </g>
     <g id="text_2">
      <!-- 50 -->
      <g transform="translate(108.153754 322.182437)scale(0.1 -0.1)">
       <defs>
        <path id="DejaVuSans-35" d="M 691 4666 
L 3169 4666 
L 3169 4134 
L 1269 4134 
L 1269 2991 
Q 1406 3038 1543 3061 
Q 1681 3084 1819 3084 
Q 2600 3084 3056 2656 
Q 3513 2228 3513 1497 
Q 3513 744 3044 326 
Q 2575 -91 1722 -91 
Q 1428 -91 1123 -41 
Q 819 9 494 109 
L 494 744 
Q 775 591 1075 516 
Q 1375 441 1709 441 
Q 2250 441 2565 725 
Q 2881 1009 2881 1497 
Q 2881 1984 2565 2268 
Q 2250 2553 1709 2553 
Q 1456 2553 1204 2497 
Q 953 2441 691 2322 
L 691 4666 
z
" transform="scale(0.015625)"/>
       </defs>
       <use xlink:href="#DejaVuSans-35"/>
       <use xlink:href="#DejaVuSans-30" x="63.623047"/>
      </g>
     </g>
    </g>
    <g id="xtick_3">
     <g id="line2d_3">
      <g>
       <use xlink:href="#m5d1b02e3d7" x="155.199781" y="307.584" style="stroke: #000000; stroke-width: 0.8"/>
      </g>
     </g>
     <g id="text_3">
      <!-- 100 -->
      <g transform="translate(145.656031 322.182437)scale(0.1 -0.1)">
       <defs>
        <path id="DejaVuSans-31" d="M 794 531 
L 1825 531 
L 1825 4091 
L 703 3866 
L 703 4441 
L 1819 4666 
L 2450 4666 
L 2450 531 
L 3481 531 
L 3481 0 
L 794 0 
L 794 531 
z
" transform="scale(0.015625)"/>
       </defs>
       <use xlink:href="#DejaVuSans-31"/>
       <use xlink:href="#DejaVuSans-30" x="63.623047"/>
       <use xlink:href="#DejaVuSans-30" x="127.246094"/>
      </g>
     </g>
    </g>
    <g id="xtick_4">
     <g id="line2d_4">
      <g>
       <use xlink:href="#m5d1b02e3d7" x="195.883308" y="307.584" style="stroke: #000000; stroke-width: 0.8"/>
      </g>
     </g>
     <g id="text_4">
      <!-- 150 -->
      <g transform="translate(186.339558 322.182437)scale(0.1 -0.1)">
       <use xlink:href="#DejaVuSans-31"/>
       <use xlink:href="#DejaVuSans-35" x="63.623047"/>
       <use xlink:href="#DejaVuSans-30" x="127.246094"/>
      </g>
     </g>
    </g>
    <g id="xtick_5">
     <g id="line2d_5">
      <g>
       <use xlink:href="#m5d1b02e3d7" x="236.566835" y="307.584" style="stroke: #000000; stroke-width: 0.8"/>
      </g>
     </g>
     <g id="text_5">
      <!-- 200 -->
      <g transform="translate(227.023085 322.182437)scale(0.1 -0.1)">
       <defs>
        <path id="DejaVuSans-32" d="M 1228 531 
L 3431 531 
L 3431 0 
L 469 0 
L 469 531 
Q 828 903 1448 1529 
Q 2069 2156 2228 2338 
Q 2531 2678 2651 2914 
Q 2772 3150 2772 3378 
Q 2772 3750 2511 3984 
Q 2250 4219 1831 4219 
Q 1534 4219 1204 4116 
Q 875 4013 500 3803 
L 500 4441 
Q 881 4594 1212 4672 
Q 1544 4750 1819 4750 
Q 2544 4750 2975 4387 
Q 3406 4025 3406 3419 
Q 3406 3131 3298 2873 
Q 3191 2616 2906 2266 
Q 2828 2175 2409 1742 
Q 1991 1309 1228 531 
z
" transform="scale(0.015625)"/>
       </defs>
       <use xlink:href="#DejaVuSans-32"/>
       <use xlink:href="#DejaVuSans-30" x="63.623047"/>
       <use xlink:href="#DejaVuSans-30" x="127.246094"/>
      </g>
     </g>
    </g>
    <g id="xtick_6">
     <g id="line2d_6">
      <g>
       <use xlink:href="#m5d1b02e3d7" x="277.250362" y="307.584" style="stroke: #000000; stroke-width: 0.8"/>
      </g>
     </g>
     <g id="text_6">
      <!-- 250 -->
      <g transform="translate(267.706612 322.182437)scale(0.1 -0.1)">
       <use xlink:href="#DejaVuSans-32"/>
       <use xlink:href="#DejaVuSans-35" x="63.623047"/>
       <use xlink:href="#DejaVuSans-30" x="127.246094"/>
      </g>
     </g>
    </g>
    <g id="xtick_7">
     <g id="line2d_7">
      <g>
       <use xlink:href="#m5d1b02e3d7" x="317.933889" y="307.584" style="stroke: #000000; stroke-width: 0.8"/>
      </g>
     </g>
     <g id="text_7">
      <!-- 300 -->
      <g transform="translate(308.390139 322.182437)scale(0.1 -0.1)">
       <defs>
        <path id="DejaVuSans-33" d="M 2597 2516 
Q 3050 2419 3304 2112 
Q 3559 1806 3559 1356 
Q 3559 666 3084 287 
Q 2609 -91 1734 -91 
Q 1441 -91 1130 -33 
Q 819 25 488 141 
L 488 750 
Q 750 597 1062 519 
Q 1375 441 1716 441 
Q 2309 441 2620 675 
Q 2931 909 2931 1356 
Q 2931 1769 2642 2001 
Q 2353 2234 1838 2234 
L 1294 2234 
L 1294 2753 
L 1863 2753 
Q 2328 2753 2575 2939 
Q 2822 3125 2822 3475 
Q 2822 3834 2567 4026 
Q 2313 4219 1838 4219 
Q 1578 4219 1281 4162 
Q 984 4106 628 3988 
L 628 4550 
Q 988 4650 1302 4700 
Q 1616 4750 1894 4750 
Q 2613 4750 3031 4423 
Q 3450 4097 3450 3541 
Q 3450 3153 3228 2886 
Q 3006 2619 2597 2516 
z
" transform="scale(0.015625)"/>
       </defs>
       <use xlink:href="#DejaVuSans-33"/>
       <use xlink:href="#DejaVuSans-30" x="63.623047"/>
       <use xlink:href="#DejaVuSans-30" x="127.246094"/>
      </g>
     </g>
    </g>
    <g id="xtick_8">
     <g id="line2d_8">
      <g>
       <use xlink:href="#m5d1b02e3d7" x="358.617416" y="307.584" style="stroke: #000000; stroke-width: 0.8"/>
      </g>
     </g>
     <g id="text_8">
      <!-- 350 -->
      <g transform="translate(349.073666 322.182437)scale(0.1 -0.1)">
       <use xlink:href="#DejaVuSans-33"/>
       <use xlink:href="#DejaVuSans-35" x="63.623047"/>
       <use xlink:href="#DejaVuSans-30" x="127.246094"/>
      </g>
     </g>
    </g>
    <g id="xtick_9">
     <g id="line2d_9">
      <g>
       <use xlink:href="#m5d1b02e3d7" x="399.300943" y="307.584" style="stroke: #000000; stroke-width: 0.8"/>
      </g>
     </g>
     <g id="text_9">
      <!-- 400 -->
      <g transform="translate(389.757193 322.182437)scale(0.1 -0.1)">
       <defs>
        <path id="DejaVuSans-34" d="M 2419 4116 
L 825 1625 
L 2419 1625 
L 2419 4116 
z
M 2253 4666 
L 3047 4666 
L 3047 1625 
L 3713 1625 
L 3713 1100 
L 3047 1100 
L 3047 0 
L 2419 0 
L 2419 1100 
L 313 1100 
L 313 1709 
L 2253 4666 
z
" transform="scale(0.015625)"/>
       </defs>
       <use xlink:href="#DejaVuSans-34"/>
       <use xlink:href="#DejaVuSans-30" x="63.623047"/>
       <use xlink:href="#DejaVuSans-30" x="127.246094"/>
      </g>
     </g>
    </g>
    <g id="text_10">
     <!-- Generation -->
     <g transform="translate(208.267031 335.860562)scale(0.1 -0.1)">
      <defs>
       <path id="DejaVuSans-47" d="M 3809 666 
L 3809 1919 
L 2778 1919 
L 2778 2438 
L 4434 2438 
L 4434 434 
Q 4069 175 3628 42 
Q 3188 -91 2688 -91 
Q 1594 -91 976 548 
Q 359 1188 359 2328 
Q 359 3472 976 4111 
Q 1594 4750 2688 4750 
Q 3144 4750 3555 4637 
Q 3966 4525 4313 4306 
L 4313 3634 
Q 3963 3931 3569 4081 
Q 3175 4231 2741 4231 
Q 1884 4231 1454 3753 
Q 1025 3275 1025 2328 
Q 1025 1384 1454 906 
Q 1884 428 2741 428 
Q 3075 428 3337 486 
Q 3600 544 3809 666 
z
" transform="scale(0.015625)"/>
       <path id="DejaVuSans-65" d="M 3597 1894 
L 3597 1613 
L 953 1613 
Q 991 1019 1311 708 
Q 1631 397 2203 397 
Q 2534 397 2845 478 
Q 3156 559 3463 722 
L 3463 178 
Q 3153 47 2828 -22 
Q 2503 -91 2169 -91 
Q 1331 -91 842 396 
Q 353 884 353 1716 
Q 353 2575 817 3079 
Q 1281 3584 2069 3584 
Q 2775 3584 3186 3129 
Q 3597 2675 3597 1894 
z
M 3022 2063 
Q 3016 2534 2758 2815 
Q 2500 3097 2075 3097 
Q 1594 3097 1305 2825 
Q 1016 2553 972 2059 
L 3022 2063 
z
" transform="scale(0.015625)"/>
       <path id="DejaVuSans-6e" d="M 3513 2113 
L 3513 0 
L 2938 0 
L 2938 2094 
Q 2938 2591 2744 2837 
Q 2550 3084 2163 3084 
Q 1697 3084 1428 2787 
Q 1159 2491 1159 1978 
L 1159 0 
L 581 0 
L 581 3500 
L 1159 3500 
L 1159 2956 
Q 1366 3272 1645 3428 
Q 1925 3584 2291 3584 
Q 2894 3584 3203 3211 
Q 3513 2838 3513 2113 
z
" transform="scale(0.015625)"/>
       <path id="DejaVuSans-72" d="M 2631 2963 
Q 2534 3019 2420 3045 
Q 2306 3072 2169 3072 
Q 1681 3072 1420 2755 
Q 1159 2438 1159 1844 
L 1159 0 
L 581 0 
L 581 3500 
L 1159 3500 
L 1159 2956 
Q 1341 3275 1631 3429 
Q 1922 3584 2338 3584 
Q 2397 3584 2469 3576 
Q 2541 3569 2628 3553 
L 2631 2963 
z
" transform="scale(0.015625)"/>
       <path id="DejaVuSans-61" d="M 2194 1759 
Q 1497 1759 1228 1600 
Q 959 1441 959 1056 
Q 959 750 1161 570 
Q 1363 391 1709 391 
Q 2188 391 2477 730 
Q 2766 1069 2766 1631 
L 2766 1759 
L 2194 1759 
z
M 3341 1997 
L 3341 0 
L 2766 0 
L 2766 531 
Q 2569 213 2275 61 
Q 1981 -91 1556 -91 
Q 1019 -91 701 211 
Q 384 513 384 1019 
Q 384 1609 779 1909 
Q 1175 2209 1959 2209 
L 2766 2209 
L 2766 2266 
Q 2766 2663 2505 2880 
Q 2244 3097 1772 3097 
Q 1472 3097 1187 3025 
Q 903 2953 641 2809 
L 641 3341 
Q 956 3463 1253 3523 
Q 1550 3584 1831 3584 
Q 2591 3584 2966 3190 
Q 3341 2797 3341 1997 
z
" transform="scale(0.015625)"/>
       <path id="DejaVuSans-74" d="M 1172 4494 
L 1172 3500 
L 2356 3500 
L 2356 3053 
L 1172 3053 
L 1172 1153 
Q 1172 725 1289 603 
Q 1406 481 1766 481 
L 2356 481 
L 2356 0 
L 1766 0 
Q 1100 0 847 248 
Q 594 497 594 1153 
L 594 3053 
L 172 3053 
L 172 3500 
L 594 3500 
L 594 4494 
L 1172 4494 
z
" transform="scale(0.015625)"/>
       <path id="DejaVuSans-69" d="M 603 3500 
L 1178 3500 
L 1178 0 
L 603 0 
L 603 3500 
z
M 603 4863 
L 1178 4863 
L 1178 4134 
L 603 4134 
L 603 4863 
z
" transform="scale(0.015625)"/>
       <path id="DejaVuSans-6f" d="M 1959 3097 
Q 1497 3097 1228 2736 
Q 959 2375 959 1747 
Q 959 1119 1226 758 
Q 1494 397 1959 397 
Q 2419 397 2687 759 
Q 2956 1122 2956 1747 
Q 2956 2369 2687 2733 
Q 2419 3097 1959 3097 
z
M 1959 3584 
Q 2709 3584 3137 3096 
Q 3566 2609 3566 1747 
Q 3566 888 3137 398 
Q 2709 -91 1959 -91 
Q 1206 -91 779 398 
Q 353 888 353 1747 
Q 353 2609 779 3096 
Q 1206 3584 1959 3584 
z
" transform="scale(0.015625)"/>
      </defs>
      <use xlink:href="#DejaVuSans-47"/>
      <use xlink:href="#DejaVuSans-65" x="77.490234"/>
      <use xlink:href="#DejaVuSans-6e" x="139.013672"/>
      <use xlink:href="#DejaVuSans-65" x="202.392578"/>
      <use xlink:href="#DejaVuSans-72" x="263.916016"/>
      <use xlink:href="#DejaVuSans-61" x="305.029297"/>
      <use xlink:href="#DejaVuSans-74" x="366.308594"/>
      <use xlink:href="#DejaVuSans-69" x="405.517578"/>
      <use xlink:href="#DejaVuSans-6f" x="433.300781"/>
      <use xlink:href="#DejaVuSans-6e" x="494.482422"/>
     </g>
    </g>
   </g>
   <g id="matplotlib.axis_2">
    <g id="ytick_1">
     <g id="line2d_10">
      <defs>
       <path id="mc2ab7b9997" d="M 0 0 
L -3.5 0 
" style="stroke: #000000; stroke-width: 0.8"/>
      </defs>
      <g>
       <use xlink:href="#mc2ab7b9997" x="57.6" y="307.584" style="stroke: #000000; stroke-width: 0.8"/>
      </g>
     </g>
     <g id="text_11">
      <!-- 0 -->
      <g transform="translate(44.2375 311.383219)scale(0.1 -0.1)">
       <use xlink:href="#DejaVuSans-30"/>
      </g>
     </g>
    </g>
    <g id="ytick_2">
     <g id="line2d_11">
      <g>
       <use xlink:href="#mc2ab7b9997" x="57.6" y="266.643692" style="stroke: #000000; stroke-width: 0.8"/>
      </g>
     </g>
     <g id="text_12">
      <!-- 10 -->
      <g transform="translate(37.875 270.442911)scale(0.1 -0.1)">
       <use xlink:href="#DejaVuSans-31"/>
       <use xlink:href="#DejaVuSans-30" x="63.623047"/>
      </g>
     </g>
    </g>
    <g id="ytick_3">
     <g id="line2d_12">
      <g>
       <use xlink:href="#mc2ab7b9997" x="57.6" y="225.703385" style="stroke: #000000; stroke-width: 0.8"/>
      </g>
     </g>
     <g id="text_13">
      <!-- 20 -->
      <g transform="translate(37.875 229.502603)scale(0.1 -0.1)">
       <use xlink:href="#DejaVuSans-32"/>
       <use xlink:href="#DejaVuSans-30" x="63.623047"/>
      </g>
     </g>
    </g>
    <g id="ytick_4">
     <g id="line2d_13">
      <g>
       <use xlink:href="#mc2ab7b9997" x="57.6" y="184.763077" style="stroke: #000000; stroke-width: 0.8"/>
      </g>
     </g>
     <g id="text_14">
      <!-- 30 -->
      <g transform="translate(37.875 188.562296)scale(0.1 -0.1)">
       <use xlink:href="#DejaVuSans-33"/>
       <use xlink:href="#DejaVuSans-30" x="63.623047"/>
      </g>
     </g>
    </g>
    <g id="ytick_5">
     <g id="line2d_14">
      <g>
       <use xlink:href="#mc2ab7b9997" x="57.6" y="143.822769" style="stroke: #000000; stroke-width: 0.8"/>
      </g>
     </g>
     <g id="text_15">
      <!-- 40 -->
      <g transform="translate(37.875 147.621988)scale(0.1 -0.1)">
       <use xlink:href="#DejaVuSans-34"/>
       <use xlink:href="#DejaVuSans-30" x="63.623047"/>
      </g>
     </g>
    </g>
    <g id="ytick_6">
     <g id="line2d_15">
      <g>
       <use xlink:href="#mc2ab7b9997" x="57.6" y="102.882462" style="stroke: #000000; stroke-width: 0.8"/>
      </g>
     </g>
     <g id="text_16">
      <!-- 50 -->
      <g transform="translate(37.875 106.68168)scale(0.1 -0.1)">
       <use xlink:href="#DejaVuSans-35"/>
       <use xlink:href="#DejaVuSans-30" x="63.623047"/>
      </g>
     </g>
    </g>
    <g id="ytick_7">
     <g id="line2d_16">
      <g>
       <use xlink:href="#mc2ab7b9997" x="57.6" y="61.942154" style="stroke: #000000; stroke-width: 0.8"/>
      </g>
     </g>
     <g id="text_17">
      <!-- 60 -->
      <g transform="translate(37.875 65.741373)scale(0.1 -0.1)">
       <defs>
        <path id="DejaVuSans-36" d="M 2113 2584 
Q 1688 2584 1439 2293 
Q 1191 2003 1191 1497 
Q 1191 994 1439 701 
Q 1688 409 2113 409 
Q 2538 409 2786 701 
Q 3034 994 3034 1497 
Q 3034 2003 2786 2293 
Q 2538 2584 2113 2584 
z
M 3366 4563 
L 3366 3988 
Q 3128 4100 2886 4159 
Q 2644 4219 2406 4219 
Q 1781 4219 1451 3797 
Q 1122 3375 1075 2522 
Q 1259 2794 1537 2939 
Q 1816 3084 2150 3084 
Q 2853 3084 3261 2657 
Q 3669 2231 3669 1497 
Q 3669 778 3244 343 
Q 2819 -91 2113 -91 
Q 1303 -91 875 529 
Q 447 1150 447 2328 
Q 447 3434 972 4092 
Q 1497 4750 2381 4750 
Q 2619 4750 2861 4703 
Q 3103 4656 3366 4563 
z
" transform="scale(0.015625)"/>
       </defs>
       <use xlink:href="#DejaVuSans-36"/>
       <use xlink:href="#DejaVuSans-30" x="63.623047"/>
      </g>
     </g>
    </g>
    <g id="text_18">
     <!-- Fitness -->
     <g transform="translate(31.795312 191.845187)rotate(-90)scale(0.1 -0.1)">
      <defs>
       <path id="DejaVuSans-46" d="M 628 4666 
L 3309 4666 
L 3309 4134 
L 1259 4134 
L 1259 2759 
L 3109 2759 
L 3109 2228 
L 1259 2228 
L 1259 0 
L 628 0 
L 628 4666 
z
" transform="scale(0.015625)"/>
       <path id="DejaVuSans-73" d="M 2834 3397 
L 2834 2853 
Q 2591 2978 2328 3040 
Q 2066 3103 1784 3103 
Q 1356 3103 1142 2972 
Q 928 2841 928 2578 
Q 928 2378 1081 2264 
Q 1234 2150 1697 2047 
L 1894 2003 
Q 2506 1872 2764 1633 
Q 3022 1394 3022 966 
Q 3022 478 2636 193 
Q 2250 -91 1575 -91 
Q 1294 -91 989 -36 
Q 684 19 347 128 
L 347 722 
Q 666 556 975 473 
Q 1284 391 1588 391 
Q 1994 391 2212 530 
Q 2431 669 2431 922 
Q 2431 1156 2273 1281 
Q 2116 1406 1581 1522 
L 1381 1569 
Q 847 1681 609 1914 
Q 372 2147 372 2553 
Q 372 3047 722 3315 
Q 1072 3584 1716 3584 
Q 2034 3584 2315 3537 
Q 2597 3491 2834 3397 
z
" transform="scale(0.015625)"/>
      </defs>
      <use xlink:href="#DejaVuSans-46"/>
      <use xlink:href="#DejaVuSans-69" x="50.269531"/>
      <use xlink:href="#DejaVuSans-74" x="78.052734"/>
      <use xlink:href="#DejaVuSans-6e" x="117.261719"/>
      <use xlink:href="#DejaVuSans-65" x="180.640625"/>
      <use xlink:href="#DejaVuSans-73" x="242.164062"/>
      <use xlink:href="#DejaVuSans-73" x="294.263672"/>
     </g>
    </g>
   </g>
   <g id="line2d_17">
    <path d="M 73.832727 292.220544 
L 74.646398 291.203917 
L 76.273739 290.505183 
L 77.90108 289.265739 
L 78.714751 288.843692 
L 79.528421 288.882684 
L 80.342092 287.859652 
L 81.155762 288.480559 
L 82.783103 287.36741 
L 83.596774 287.246288 
L 84.410444 286.043064 
L 85.224115 287.05982 
L 86.037785 285.658742 
L 87.665126 284.466268 
L 88.478797 283.319488 
L 89.292468 284.312119 
L 90.106138 283.673937 
L 90.919809 282.552431 
L 91.733479 280.771329 
L 92.54715 280.832329 
L 93.36082 279.985742 
L 94.174491 278.695561 
L 94.988161 278.417269 
L 95.801832 275.053418 
L 96.615502 274.089017 
L 97.429173 277.337883 
L 98.242843 272.976267 
L 99.056514 274.33809 
L 99.870185 271.679101 
L 100.683855 267.548643 
L 101.497526 268.855237 
L 102.311196 262.63613 
L 103.938537 258.603504 
L 104.752208 258.849682 
L 105.565878 260.882391 
L 106.379549 255.256513 
L 107.193219 254.975767 
L 108.00689 251.315854 
L 108.82056 250.009192 
L 109.634231 247.556956 
L 110.447902 248.095844 
L 111.261572 242.069516 
L 112.075243 245.976476 
L 112.888913 241.454952 
L 113.702584 240.163169 
L 115.329925 231.038376 
L 116.143595 228.630118 
L 116.957266 231.989257 
L 117.770936 224.083465 
L 118.584607 229.43405 
L 119.398278 222.611702 
L 121.025619 214.79896 
L 121.839289 214.368718 
L 122.65296 206.391726 
L 124.280301 200.960022 
L 125.093971 193.667212 
L 125.907642 181.685888 
L 126.721312 176.36886 
L 127.534983 174.94742 
L 128.348653 181.09339 
L 129.162324 171.967712 
L 129.975995 179.512719 
L 130.789665 180.912434 
L 131.603336 175.290482 
L 132.417006 181.24903 
L 133.230677 171.656891 
L 134.044347 173.047776 
L 134.858018 169.352921 
L 135.671688 171.461017 
L 136.485359 171.919701 
L 137.299029 170.779905 
L 138.1127 170.718752 
L 138.92637 169.808976 
L 139.740041 168.665024 
L 140.553712 172.482951 
L 141.367382 167.399714 
L 142.181053 163.740565 
L 142.994723 164.099201 
L 143.808394 168.632315 
L 144.622064 174.508716 
L 145.435735 175.257209 
L 146.249405 163.110881 
L 147.063076 175.914985 
L 147.876746 168.933551 
L 148.690417 165.397851 
L 149.504087 162.743113 
L 150.317758 166.777913 
L 151.131429 167.212086 
L 151.945099 167.036724 
L 152.75877 162.973354 
L 153.57244 155.160532 
L 154.386111 156.498432 
L 155.199781 165.6046 
L 156.013452 167.069541 
L 156.827122 160.853767 
L 157.640793 165.024713 
L 158.454463 162.81113 
L 159.268134 172.722553 
L 160.081805 161.687896 
L 160.895475 163.54381 
L 161.709146 165.922909 
L 162.522816 163.913406 
L 163.336487 166.81246 
L 164.150157 163.85021 
L 164.963828 156.027591 
L 165.777498 160.153098 
L 166.591169 157.026285 
L 167.404839 165.66478 
L 168.21851 149.916398 
L 169.03218 154.349737 
L 169.845851 148.461079 
L 170.659522 144.469639 
L 171.473192 146.049359 
L 172.286863 145.323281 
L 173.100533 139.535484 
L 173.914204 137.018536 
L 174.727874 135.206707 
L 175.541545 131.977803 
L 176.355215 131.779005 
L 177.168886 130.422118 
L 177.982556 130.661587 
L 178.796227 126.948111 
L 179.609897 133.816431 
L 180.423568 128.498168 
L 181.237239 132.561452 
L 182.050909 130.582178 
L 182.86458 136.841164 
L 183.67825 126.309512 
L 184.491921 122.364149 
L 185.305591 120.101619 
L 186.119262 121.608659 
L 186.932932 128.913152 
L 187.746603 126.16904 
L 188.560273 129.646462 
L 189.373944 127.773179 
L 190.187614 124.820262 
L 191.001285 123.229863 
L 191.814956 124.233652 
L 192.628626 124.667803 
L 193.442297 127.689009 
L 194.255967 123.743982 
L 195.069638 124.615999 
L 195.883308 114.724796 
L 196.696979 124.109358 
L 197.510649 117.886057 
L 198.32432 114.378091 
L 199.951661 128.069295 
L 200.765332 119.310273 
L 201.579002 122.034576 
L 203.206343 113.855185 
L 204.020014 121.973836 
L 204.833684 120.455543 
L 205.647355 116.065417 
L 206.461025 116.287053 
L 207.274696 119.64342 
L 208.088366 119.468023 
L 208.902037 116.283826 
L 209.715707 111.49728 
L 210.529378 110.870703 
L 211.343049 128.495911 
L 212.156719 113.887163 
L 213.78406 120.280333 
L 214.597731 111.182219 
L 216.225072 130.335465 
L 217.038742 114.05501 
L 217.852413 118.99793 
L 218.666083 119.291972 
L 219.479754 121.301451 
L 220.293424 116.10988 
L 221.107095 114.312334 
L 221.920766 121.76306 
L 222.734436 115.31496 
L 223.548107 113.777999 
L 224.361777 121.555694 
L 225.175448 114.358215 
L 225.989118 118.359403 
L 226.802789 111.599363 
L 227.616459 116.246799 
L 228.43013 115.941118 
L 229.2438 116.566284 
L 230.057471 115.770702 
L 230.871141 109.983573 
L 231.684812 111.090796 
L 233.312153 107.375811 
L 234.125824 107.370786 
L 234.939494 111.30342 
L 235.753165 107.630984 
L 236.566835 115.385596 
L 237.380506 113.380049 
L 238.194176 119.085597 
L 239.007847 118.613344 
L 239.821517 109.424528 
L 240.635188 110.050836 
L 241.448859 117.900199 
L 242.262529 117.124733 
L 243.0762 109.636938 
L 243.88987 109.845709 
L 244.703541 115.702646 
L 245.517211 108.121063 
L 246.330882 107.789095 
L 247.144552 113.651056 
L 247.958223 118.547177 
L 248.771893 110.213283 
L 249.585564 108.521701 
L 250.399234 112.116311 
L 251.212905 110.475863 
L 252.840246 103.256538 
L 253.653917 110.888016 
L 254.467587 113.52607 
L 255.281258 105.83939 
L 256.094928 120.741739 
L 256.908599 117.164157 
L 257.722269 113.039806 
L 258.53594 116.008614 
L 259.34961 117.935199 
L 260.163281 108.334385 
L 260.976951 120.955088 
L 261.790622 118.712569 
L 262.604293 111.733785 
L 263.417963 112.114633 
L 264.231634 114.450616 
L 265.045304 116.037848 
L 265.858975 117.105563 
L 266.672645 114.562962 
L 267.486316 128.25651 
L 268.299986 123.217716 
L 269.113657 110.233583 
L 269.927327 120.999138 
L 270.740998 119.486488 
L 271.554668 115.722028 
L 272.368339 121.395925 
L 273.18201 109.851615 
L 273.99568 114.802309 
L 274.809351 127.528 
L 275.623021 115.525529 
L 276.436692 114.369646 
L 277.250362 110.175023 
L 278.064033 115.716616 
L 278.877703 125.036004 
L 280.505044 111.048447 
L 281.318715 124.421909 
L 282.132386 121.560487 
L 282.946056 120.277588 
L 283.759727 117.579349 
L 284.573397 117.488428 
L 285.387068 111.21895 
L 286.200738 109.46293 
L 287.014409 113.83324 
L 287.828079 108.864522 
L 288.64175 114.222978 
L 289.45542 121.029301 
L 290.269091 108.261732 
L 291.082761 102.371621 
L 291.896432 113.733365 
L 292.710103 114.065337 
L 293.523773 114.969397 
L 294.337444 116.076597 
L 295.151114 109.210588 
L 295.964785 115.539246 
L 296.778455 111.845631 
L 297.592126 112.313765 
L 298.405796 113.735799 
L 299.219467 111.919566 
L 300.033137 105.713787 
L 300.846808 110.643981 
L 301.660478 126.649156 
L 302.474149 113.361139 
L 303.28782 107.9591 
L 304.10149 109.361115 
L 304.915161 109.853003 
L 305.728831 117.688888 
L 306.542502 111.168821 
L 307.356172 101.460052 
L 308.169843 114.054365 
L 308.983513 111.999992 
L 309.797184 104.324774 
L 310.610854 110.882774 
L 311.424525 114.382991 
L 312.238195 107.684405 
L 313.051866 108.515261 
L 313.865537 118.202065 
L 314.679207 109.409943 
L 315.492878 109.541239 
L 316.306548 105.626481 
L 317.120219 117.140934 
L 317.933889 111.225578 
L 318.74756 107.674175 
L 319.56123 102.141091 
L 320.374901 111.591624 
L 321.188571 118.4325 
L 322.002242 110.584275 
L 322.815913 113.977517 
L 323.629583 111.099109 
L 324.443254 109.950193 
L 325.256924 104.979978 
L 326.070595 113.716989 
L 326.884265 116.485693 
L 327.697936 108.505747 
L 328.511606 112.934159 
L 329.325277 111.853003 
L 330.138947 116.78134 
L 330.952618 110.436929 
L 331.766288 110.46838 
L 332.579959 117.347217 
L 333.39363 112.871022 
L 334.2073 106.312353 
L 335.020971 117.904062 
L 335.834641 107.582782 
L 336.648312 101.418464 
L 338.275653 117.379448 
L 339.089323 106.835671 
L 339.902994 106.2525 
L 340.716664 99.921735 
L 341.530335 105.353566 
L 342.344005 108.752586 
L 343.157676 107.519568 
L 343.971347 112.756187 
L 344.785017 105.559634 
L 345.598688 114.306549 
L 346.412358 103.155408 
L 347.226029 108.386702 
L 348.039699 103.896331 
L 348.85337 101.652087 
L 349.66704 110.301749 
L 350.480711 113.539735 
L 351.294381 110.264756 
L 352.108052 108.022542 
L 352.921722 115.491891 
L 353.735393 110.973726 
L 354.549064 109.5329 
L 355.362734 106.435192 
L 356.176405 104.775183 
L 356.990075 118.199844 
L 357.803746 109.88293 
L 358.617416 107.161787 
L 359.431087 112.238284 
L 360.244757 114.071479 
L 361.058428 110.192591 
L 361.872098 110.593167 
L 362.685769 104.564439 
L 363.49944 116.813966 
L 364.31311 104.178861 
L 365.126781 115.280807 
L 365.940451 121.451382 
L 366.754122 112.565374 
L 367.567792 110.378658 
L 368.381463 101.010993 
L 369.195133 111.022937 
L 370.008804 115.535349 
L 370.822474 102.860626 
L 371.636145 110.744932 
L 372.449815 104.149704 
L 373.263486 110.129398 
L 374.077157 111.994871 
L 374.890827 104.211439 
L 375.704498 113.04944 
L 376.518168 110.952469 
L 377.331839 113.40013 
L 378.145509 103.569956 
L 378.95918 108.968688 
L 379.77285 110.173687 
L 380.586521 106.157946 
L 381.400191 115.266699 
L 382.213862 110.000826 
L 383.027532 112.865268 
L 383.841203 103.962551 
L 384.654874 105.972584 
L 385.468544 104.35018 
L 386.282215 106.961056 
L 387.095885 107.948168 
L 387.909556 110.897093 
L 388.723226 104.439187 
L 389.536897 113.007783 
L 390.350567 110.121347 
L 391.164238 107.91348 
L 391.977908 107.510273 
L 392.791579 112.710902 
L 393.605249 107.306994 
L 394.41892 108.0948 
L 395.232591 111.284372 
L 396.046261 102.639485 
L 396.859932 112.380891 
L 397.673602 109.61708 
L 398.487273 105.417547 
L 398.487273 105.417547 
" clip-path="url(#p4fc21b9f1b)" style="fill: none; stroke: #1f77b4; stroke-width: 1.5; stroke-linecap: square"/>
   </g>
   <g id="patch_3">
    <path d="M 57.6 307.584 
L 57.6 41.472 
" style="fill: none; stroke: #000000; stroke-width: 0.8; stroke-linejoin: miter; stroke-linecap: square"/>
   </g>
   <g id="patch_4">
    <path d="M 414.72 307.584 
L 414.72 41.472 
" style="fill: none; stroke: #000000; stroke-width: 0.8; stroke-linejoin: miter; stroke-linecap: square"/>
   </g>
   <g id="patch_5">
    <path d="M 57.6 307.584 
L 414.72 307.584 
" style="fill: none; stroke: #000000; stroke-width: 0.8; stroke-linejoin: miter; stroke-linecap: square"/>
   </g>
   <g id="patch_6">
    <path d="M 57.6 41.472 
L 414.72 41.472 
" style="fill: none; stroke: #000000; stroke-width: 0.8; stroke-linejoin: miter; stroke-linecap: square"/>
   </g>
  </g>
 </g>
 <defs>
  <clipPath id="p4fc21b9f1b">
   <rect x="57.6" y="41.472" width="357.12" height="266.112"/>
  </clipPath>
 </defs>
</svg>
