<?xml version="1.0" encoding="utf-8" standalone="no"?>
<!DOCTYPE svg PUBLIC "-//W3C//DTD SVG 1.1//EN"
  "http://www.w3.org/Graphics/SVG/1.1/DTD/svg11.dtd">
<svg xmlns:xlink="http://www.w3.org/1999/xlink" width="460.8pt" height="345.6pt" viewBox="0 0 460.8 345.6" xmlns="http://www.w3.org/2000/svg" version="1.1">
 <metadata>
  <rdf:RDF xmlns:dc="http://purl.org/dc/elements/1.1/" xmlns:cc="http://creativecommons.org/ns#" xmlns:rdf="http://www.w3.org/1999/02/22-rdf-syntax-ns#">
   <cc:Work>
    <dc:type rdf:resource="http://purl.org/dc/dcmitype/StillImage"/>
    <dc:date>2022-10-11T09:46:48.475234</dc:date>
    <dc:format>image/svg+xml</dc:format>
    <dc:creator>
     <cc:Agent>
      <dc:title>Matplotlib v3.5.0, https://matplotlib.org/</dc:title>
     </cc:Agent>
    </dc:creator>
   </cc:Work>
  </rdf:RDF>
 </metadata>
 <defs>
  <style type="text/css">*{stroke-linejoin: round; stroke-linecap: butt}</style>
 </defs>
 <g id="figure_1">
  <g id="patch_1">
   <path d="M 0 345.6 
L 460.8 345.6 
L 460.8 0 
L 0 0 
z
" style="fill: #ffffff"/>
  </g>
  <g id="axes_1">
   <g id="patch_2">
    <path d="M 57.6 307.584 
L 414.72 307.584 
L 414.72 41.472 
L 57.6 41.472 
z
" style="fill: #ffffff"/>
   </g>
   <g id="matplotlib.axis_1">
    <g id="xtick_1">
     <g id="line2d_1">
      <defs>
       <path id="me0c08dbb09" d="M 0 0 
L 0 3.5 
" style="stroke: #000000; stroke-width: 0.8"/>
      </defs>
      <g>
       <use xlink:href="#me0c08dbb09" x="73.832727" y="307.584" style="stroke: #000000; stroke-width: 0.8"/>
      </g>
     </g>
     <g id="text_1">
      <!-- 0 -->
      <g transform="translate(70.651477 322.182437)scale(0.1 -0.1)">
       <defs>
        <path id="DejaVuSans-30" d="M 2034 4250 
Q 1547 4250 1301 3770 
Q 1056 3291 1056 2328 
Q 1056 1369 1301 889 
Q 1547 409 2034 409 
Q 2525 409 2770 889 
Q 3016 1369 3016 2328 
Q 3016 3291 2770 3770 
Q 2525 4250 2034 4250 
z
M 2034 4750 
Q 2819 4750 3233 4129 
Q 3647 3509 3647 2328 
Q 3647 1150 3233 529 
Q 2819 -91 2034 -91 
Q 1250 -91 836 529 
Q 422 1150 422 2328 
Q 422 3509 836 4129 
Q 1250 4750 2034 4750 
z
" transform="scale(0.015625)"/>
       </defs>
       <use xlink:href="#DejaVuSans-30"/>
      </g>
     </g>
    </g>
    <g id="xtick_2">
     <g id="line2d_2">
      <g>
       <use xlink:href="#me0c08dbb09" x="114.516254" y="307.584" style="stroke: #000000; stroke-width: 0.8"/>
      </g>
     </g>
     <g id="text_2">
      <!-- 50 -->
      <g transform="translate(108.153754 322.182437)scale(0.1 -0.1)">
       <defs>
        <path id="DejaVuSans-35" d="M 691 4666 
L 3169 4666 
L 3169 4134 
L 1269 4134 
L 1269 2991 
Q 1406 3038 1543 3061 
Q 1681 3084 1819 3084 
Q 2600 3084 3056 2656 
Q 3513 2228 3513 1497 
Q 3513 744 3044 326 
Q 2575 -91 1722 -91 
Q 1428 -91 1123 -41 
Q 819 9 494 109 
L 494 744 
Q 775 591 1075 516 
Q 1375 441 1709 441 
Q 2250 441 2565 725 
Q 2881 1009 2881 1497 
Q 2881 1984 2565 2268 
Q 2250 2553 1709 2553 
Q 1456 2553 1204 2497 
Q 953 2441 691 2322 
L 691 4666 
z
" transform="scale(0.015625)"/>
       </defs>
       <use xlink:href="#DejaVuSans-35"/>
       <use xlink:href="#DejaVuSans-30" x="63.623047"/>
      </g>
     </g>
    </g>
    <g id="xtick_3">
     <g id="line2d_3">
      <g>
       <use xlink:href="#me0c08dbb09" x="155.199781" y="307.584" style="stroke: #000000; stroke-width: 0.8"/>
      </g>
     </g>
     <g id="text_3">
      <!-- 100 -->
      <g transform="translate(145.656031 322.182437)scale(0.1 -0.1)">
       <defs>
        <path id="DejaVuSans-31" d="M 794 531 
L 1825 531 
L 1825 4091 
L 703 3866 
L 703 4441 
L 1819 4666 
L 2450 4666 
L 2450 531 
L 3481 531 
L 3481 0 
L 794 0 
L 794 531 
z
" transform="scale(0.015625)"/>
       </defs>
       <use xlink:href="#DejaVuSans-31"/>
       <use xlink:href="#DejaVuSans-30" x="63.623047"/>
       <use xlink:href="#DejaVuSans-30" x="127.246094"/>
      </g>
     </g>
    </g>
    <g id="xtick_4">
     <g id="line2d_4">
      <g>
       <use xlink:href="#me0c08dbb09" x="195.883308" y="307.584" style="stroke: #000000; stroke-width: 0.8"/>
      </g>
     </g>
     <g id="text_4">
      <!-- 150 -->
      <g transform="translate(186.339558 322.182437)scale(0.1 -0.1)">
       <use xlink:href="#DejaVuSans-31"/>
       <use xlink:href="#DejaVuSans-35" x="63.623047"/>
       <use xlink:href="#DejaVuSans-30" x="127.246094"/>
      </g>
     </g>
    </g>
    <g id="xtick_5">
     <g id="line2d_5">
      <g>
       <use xlink:href="#me0c08dbb09" x="236.566835" y="307.584" style="stroke: #000000; stroke-width: 0.8"/>
      </g>
     </g>
     <g id="text_5">
      <!-- 200 -->
      <g transform="translate(227.023085 322.182437)scale(0.1 -0.1)">
       <defs>
        <path id="DejaVuSans-32" d="M 1228 531 
L 3431 531 
L 3431 0 
L 469 0 
L 469 531 
Q 828 903 1448 1529 
Q 2069 2156 2228 2338 
Q 2531 2678 2651 2914 
Q 2772 3150 2772 3378 
Q 2772 3750 2511 3984 
Q 2250 4219 1831 4219 
Q 1534 4219 1204 4116 
Q 875 4013 500 3803 
L 500 4441 
Q 881 4594 1212 4672 
Q 1544 4750 1819 4750 
Q 2544 4750 2975 4387 
Q 3406 4025 3406 3419 
Q 3406 3131 3298 2873 
Q 3191 2616 2906 2266 
Q 2828 2175 2409 1742 
Q 1991 1309 1228 531 
z
" transform="scale(0.015625)"/>
       </defs>
       <use xlink:href="#DejaVuSans-32"/>
       <use xlink:href="#DejaVuSans-30" x="63.623047"/>
       <use xlink:href="#DejaVuSans-30" x="127.246094"/>
      </g>
     </g>
    </g>
    <g id="xtick_6">
     <g id="line2d_6">
      <g>
       <use xlink:href="#me0c08dbb09" x="277.250362" y="307.584" style="stroke: #000000; stroke-width: 0.8"/>
      </g>
     </g>
     <g id="text_6">
      <!-- 250 -->
      <g transform="translate(267.706612 322.182437)scale(0.1 -0.1)">
       <use xlink:href="#DejaVuSans-32"/>
       <use xlink:href="#DejaVuSans-35" x="63.623047"/>
       <use xlink:href="#DejaVuSans-30" x="127.246094"/>
      </g>
     </g>
    </g>
    <g id="xtick_7">
     <g id="line2d_7">
      <g>
       <use xlink:href="#me0c08dbb09" x="317.933889" y="307.584" style="stroke: #000000; stroke-width: 0.8"/>
      </g>
     </g>
     <g id="text_7">
      <!-- 300 -->
      <g transform="translate(308.390139 322.182437)scale(0.1 -0.1)">
       <defs>
        <path id="DejaVuSans-33" d="M 2597 2516 
Q 3050 2419 3304 2112 
Q 3559 1806 3559 1356 
Q 3559 666 3084 287 
Q 2609 -91 1734 -91 
Q 1441 -91 1130 -33 
Q 819 25 488 141 
L 488 750 
Q 750 597 1062 519 
Q 1375 441 1716 441 
Q 2309 441 2620 675 
Q 2931 909 2931 1356 
Q 2931 1769 2642 2001 
Q 2353 2234 1838 2234 
L 1294 2234 
L 1294 2753 
L 1863 2753 
Q 2328 2753 2575 2939 
Q 2822 3125 2822 3475 
Q 2822 3834 2567 4026 
Q 2313 4219 1838 4219 
Q 1578 4219 1281 4162 
Q 984 4106 628 3988 
L 628 4550 
Q 988 4650 1302 4700 
Q 1616 4750 1894 4750 
Q 2613 4750 3031 4423 
Q 3450 4097 3450 3541 
Q 3450 3153 3228 2886 
Q 3006 2619 2597 2516 
z
" transform="scale(0.015625)"/>
       </defs>
       <use xlink:href="#DejaVuSans-33"/>
       <use xlink:href="#DejaVuSans-30" x="63.623047"/>
       <use xlink:href="#DejaVuSans-30" x="127.246094"/>
      </g>
     </g>
    </g>
    <g id="xtick_8">
     <g id="line2d_8">
      <g>
       <use xlink:href="#me0c08dbb09" x="358.617416" y="307.584" style="stroke: #000000; stroke-width: 0.8"/>
      </g>
     </g>
     <g id="text_8">
      <!-- 350 -->
      <g transform="translate(349.073666 322.182437)scale(0.1 -0.1)">
       <use xlink:href="#DejaVuSans-33"/>
       <use xlink:href="#DejaVuSans-35" x="63.623047"/>
       <use xlink:href="#DejaVuSans-30" x="127.246094"/>
      </g>
     </g>
    </g>
    <g id="xtick_9">
     <g id="line2d_9">
      <g>
       <use xlink:href="#me0c08dbb09" x="399.300943" y="307.584" style="stroke: #000000; stroke-width: 0.8"/>
      </g>
     </g>
     <g id="text_9">
      <!-- 400 -->
      <g transform="translate(389.757193 322.182437)scale(0.1 -0.1)">
       <defs>
        <path id="DejaVuSans-34" d="M 2419 4116 
L 825 1625 
L 2419 1625 
L 2419 4116 
z
M 2253 4666 
L 3047 4666 
L 3047 1625 
L 3713 1625 
L 3713 1100 
L 3047 1100 
L 3047 0 
L 2419 0 
L 2419 1100 
L 313 1100 
L 313 1709 
L 2253 4666 
z
" transform="scale(0.015625)"/>
       </defs>
       <use xlink:href="#DejaVuSans-34"/>
       <use xlink:href="#DejaVuSans-30" x="63.623047"/>
       <use xlink:href="#DejaVuSans-30" x="127.246094"/>
      </g>
     </g>
    </g>
    <g id="text_10">
     <!-- Generation -->
     <g transform="translate(208.267031 335.860562)scale(0.1 -0.1)">
      <defs>
       <path id="DejaVuSans-47" d="M 3809 666 
L 3809 1919 
L 2778 1919 
L 2778 2438 
L 4434 2438 
L 4434 434 
Q 4069 175 3628 42 
Q 3188 -91 2688 -91 
Q 1594 -91 976 548 
Q 359 1188 359 2328 
Q 359 3472 976 4111 
Q 1594 4750 2688 4750 
Q 3144 4750 3555 4637 
Q 3966 4525 4313 4306 
L 4313 3634 
Q 3963 3931 3569 4081 
Q 3175 4231 2741 4231 
Q 1884 4231 1454 3753 
Q 1025 3275 1025 2328 
Q 1025 1384 1454 906 
Q 1884 428 2741 428 
Q 3075 428 3337 486 
Q 3600 544 3809 666 
z
" transform="scale(0.015625)"/>
       <path id="DejaVuSans-65" d="M 3597 1894 
L 3597 1613 
L 953 1613 
Q 991 1019 1311 708 
Q 1631 397 2203 397 
Q 2534 397 2845 478 
Q 3156 559 3463 722 
L 3463 178 
Q 3153 47 2828 -22 
Q 2503 -91 2169 -91 
Q 1331 -91 842 396 
Q 353 884 353 1716 
Q 353 2575 817 3079 
Q 1281 3584 2069 3584 
Q 2775 3584 3186 3129 
Q 3597 2675 3597 1894 
z
M 3022 2063 
Q 3016 2534 2758 2815 
Q 2500 3097 2075 3097 
Q 1594 3097 1305 2825 
Q 1016 2553 972 2059 
L 3022 2063 
z
" transform="scale(0.015625)"/>
       <path id="DejaVuSans-6e" d="M 3513 2113 
L 3513 0 
L 2938 0 
L 2938 2094 
Q 2938 2591 2744 2837 
Q 2550 3084 2163 3084 
Q 1697 3084 1428 2787 
Q 1159 2491 1159 1978 
L 1159 0 
L 581 0 
L 581 3500 
L 1159 3500 
L 1159 2956 
Q 1366 3272 1645 3428 
Q 1925 3584 2291 3584 
Q 2894 3584 3203 3211 
Q 3513 2838 3513 2113 
z
" transform="scale(0.015625)"/>
       <path id="DejaVuSans-72" d="M 2631 2963 
Q 2534 3019 2420 3045 
Q 2306 3072 2169 3072 
Q 1681 3072 1420 2755 
Q 1159 2438 1159 1844 
L 1159 0 
L 581 0 
L 581 3500 
L 1159 3500 
L 1159 2956 
Q 1341 3275 1631 3429 
Q 1922 3584 2338 3584 
Q 2397 3584 2469 3576 
Q 2541 3569 2628 3553 
L 2631 2963 
z
" transform="scale(0.015625)"/>
       <path id="DejaVuSans-61" d="M 2194 1759 
Q 1497 1759 1228 1600 
Q 959 1441 959 1056 
Q 959 750 1161 570 
Q 1363 391 1709 391 
Q 2188 391 2477 730 
Q 2766 1069 2766 1631 
L 2766 1759 
L 2194 1759 
z
M 3341 1997 
L 3341 0 
L 2766 0 
L 2766 531 
Q 2569 213 2275 61 
Q 1981 -91 1556 -91 
Q 1019 -91 701 211 
Q 384 513 384 1019 
Q 384 1609 779 1909 
Q 1175 2209 1959 2209 
L 2766 2209 
L 2766 2266 
Q 2766 2663 2505 2880 
Q 2244 3097 1772 3097 
Q 1472 3097 1187 3025 
Q 903 2953 641 2809 
L 641 3341 
Q 956 3463 1253 3523 
Q 1550 3584 1831 3584 
Q 2591 3584 2966 3190 
Q 3341 2797 3341 1997 
z
" transform="scale(0.015625)"/>
       <path id="DejaVuSans-74" d="M 1172 4494 
L 1172 3500 
L 2356 3500 
L 2356 3053 
L 1172 3053 
L 1172 1153 
Q 1172 725 1289 603 
Q 1406 481 1766 481 
L 2356 481 
L 2356 0 
L 1766 0 
Q 1100 0 847 248 
Q 594 497 594 1153 
L 594 3053 
L 172 3053 
L 172 3500 
L 594 3500 
L 594 4494 
L 1172 4494 
z
" transform="scale(0.015625)"/>
       <path id="DejaVuSans-69" d="M 603 3500 
L 1178 3500 
L 1178 0 
L 603 0 
L 603 3500 
z
M 603 4863 
L 1178 4863 
L 1178 4134 
L 603 4134 
L 603 4863 
z
" transform="scale(0.015625)"/>
       <path id="DejaVuSans-6f" d="M 1959 3097 
Q 1497 3097 1228 2736 
Q 959 2375 959 1747 
Q 959 1119 1226 758 
Q 1494 397 1959 397 
Q 2419 397 2687 759 
Q 2956 1122 2956 1747 
Q 2956 2369 2687 2733 
Q 2419 3097 1959 3097 
z
M 1959 3584 
Q 2709 3584 3137 3096 
Q 3566 2609 3566 1747 
Q 3566 888 3137 398 
Q 2709 -91 1959 -91 
Q 1206 -91 779 398 
Q 353 888 353 1747 
Q 353 2609 779 3096 
Q 1206 3584 1959 3584 
z
" transform="scale(0.015625)"/>
      </defs>
      <use xlink:href="#DejaVuSans-47"/>
      <use xlink:href="#DejaVuSans-65" x="77.490234"/>
      <use xlink:href="#DejaVuSans-6e" x="139.013672"/>
      <use xlink:href="#DejaVuSans-65" x="202.392578"/>
      <use xlink:href="#DejaVuSans-72" x="263.916016"/>
      <use xlink:href="#DejaVuSans-61" x="305.029297"/>
      <use xlink:href="#DejaVuSans-74" x="366.308594"/>
      <use xlink:href="#DejaVuSans-69" x="405.517578"/>
      <use xlink:href="#DejaVuSans-6f" x="433.300781"/>
      <use xlink:href="#DejaVuSans-6e" x="494.482422"/>
     </g>
    </g>
   </g>
   <g id="matplotlib.axis_2">
    <g id="ytick_1">
     <g id="line2d_10">
      <defs>
       <path id="m439d9d5cf7" d="M 0 0 
L -3.5 0 
" style="stroke: #000000; stroke-width: 0.8"/>
      </defs>
      <g>
       <use xlink:href="#m439d9d5cf7" x="57.6" y="307.584" style="stroke: #000000; stroke-width: 0.8"/>
      </g>
     </g>
     <g id="text_11">
      <!-- 0 -->
      <g transform="translate(44.2375 311.383219)scale(0.1 -0.1)">
       <use xlink:href="#DejaVuSans-30"/>
      </g>
     </g>
    </g>
    <g id="ytick_2">
     <g id="line2d_11">
      <g>
       <use xlink:href="#m439d9d5cf7" x="57.6" y="266.643692" style="stroke: #000000; stroke-width: 0.8"/>
      </g>
     </g>
     <g id="text_12">
      <!-- 10 -->
      <g transform="translate(37.875 270.442911)scale(0.1 -0.1)">
       <use xlink:href="#DejaVuSans-31"/>
       <use xlink:href="#DejaVuSans-30" x="63.623047"/>
      </g>
     </g>
    </g>
    <g id="ytick_3">
     <g id="line2d_12">
      <g>
       <use xlink:href="#m439d9d5cf7" x="57.6" y="225.703385" style="stroke: #000000; stroke-width: 0.8"/>
      </g>
     </g>
     <g id="text_13">
      <!-- 20 -->
      <g transform="translate(37.875 229.502603)scale(0.1 -0.1)">
       <use xlink:href="#DejaVuSans-32"/>
       <use xlink:href="#DejaVuSans-30" x="63.623047"/>
      </g>
     </g>
    </g>
    <g id="ytick_4">
     <g id="line2d_13">
      <g>
       <use xlink:href="#m439d9d5cf7" x="57.6" y="184.763077" style="stroke: #000000; stroke-width: 0.8"/>
      </g>
     </g>
     <g id="text_14">
      <!-- 30 -->
      <g transform="translate(37.875 188.562296)scale(0.1 -0.1)">
       <use xlink:href="#DejaVuSans-33"/>
       <use xlink:href="#DejaVuSans-30" x="63.623047"/>
      </g>
     </g>
    </g>
    <g id="ytick_5">
     <g id="line2d_14">
      <g>
       <use xlink:href="#m439d9d5cf7" x="57.6" y="143.822769" style="stroke: #000000; stroke-width: 0.8"/>
      </g>
     </g>
     <g id="text_15">
      <!-- 40 -->
      <g transform="translate(37.875 147.621988)scale(0.1 -0.1)">
       <use xlink:href="#DejaVuSans-34"/>
       <use xlink:href="#DejaVuSans-30" x="63.623047"/>
      </g>
     </g>
    </g>
    <g id="ytick_6">
     <g id="line2d_15">
      <g>
       <use xlink:href="#m439d9d5cf7" x="57.6" y="102.882462" style="stroke: #000000; stroke-width: 0.8"/>
      </g>
     </g>
     <g id="text_16">
      <!-- 50 -->
      <g transform="translate(37.875 106.68168)scale(0.1 -0.1)">
       <use xlink:href="#DejaVuSans-35"/>
       <use xlink:href="#DejaVuSans-30" x="63.623047"/>
      </g>
     </g>
    </g>
    <g id="ytick_7">
     <g id="line2d_16">
      <g>
       <use xlink:href="#m439d9d5cf7" x="57.6" y="61.942154" style="stroke: #000000; stroke-width: 0.8"/>
      </g>
     </g>
     <g id="text_17">
      <!-- 60 -->
      <g transform="translate(37.875 65.741373)scale(0.1 -0.1)">
       <defs>
        <path id="DejaVuSans-36" d="M 2113 2584 
Q 1688 2584 1439 2293 
Q 1191 2003 1191 1497 
Q 1191 994 1439 701 
Q 1688 409 2113 409 
Q 2538 409 2786 701 
Q 3034 994 3034 1497 
Q 3034 2003 2786 2293 
Q 2538 2584 2113 2584 
z
M 3366 4563 
L 3366 3988 
Q 3128 4100 2886 4159 
Q 2644 4219 2406 4219 
Q 1781 4219 1451 3797 
Q 1122 3375 1075 2522 
Q 1259 2794 1537 2939 
Q 1816 3084 2150 3084 
Q 2853 3084 3261 2657 
Q 3669 2231 3669 1497 
Q 3669 778 3244 343 
Q 2819 -91 2113 -91 
Q 1303 -91 875 529 
Q 447 1150 447 2328 
Q 447 3434 972 4092 
Q 1497 4750 2381 4750 
Q 2619 4750 2861 4703 
Q 3103 4656 3366 4563 
z
" transform="scale(0.015625)"/>
       </defs>
       <use xlink:href="#DejaVuSans-36"/>
       <use xlink:href="#DejaVuSans-30" x="63.623047"/>
      </g>
     </g>
    </g>
    <g id="text_18">
     <!-- Fitness -->
     <g transform="translate(31.795312 191.845187)rotate(-90)scale(0.1 -0.1)">
      <defs>
       <path id="DejaVuSans-46" d="M 628 4666 
L 3309 4666 
L 3309 4134 
L 1259 4134 
L 1259 2759 
L 3109 2759 
L 3109 2228 
L 1259 2228 
L 1259 0 
L 628 0 
L 628 4666 
z
" transform="scale(0.015625)"/>
       <path id="DejaVuSans-73" d="M 2834 3397 
L 2834 2853 
Q 2591 2978 2328 3040 
Q 2066 3103 1784 3103 
Q 1356 3103 1142 2972 
Q 928 2841 928 2578 
Q 928 2378 1081 2264 
Q 1234 2150 1697 2047 
L 1894 2003 
Q 2506 1872 2764 1633 
Q 3022 1394 3022 966 
Q 3022 478 2636 193 
Q 2250 -91 1575 -91 
Q 1294 -91 989 -36 
Q 684 19 347 128 
L 347 722 
Q 666 556 975 473 
Q 1284 391 1588 391 
Q 1994 391 2212 530 
Q 2431 669 2431 922 
Q 2431 1156 2273 1281 
Q 2116 1406 1581 1522 
L 1381 1569 
Q 847 1681 609 1914 
Q 372 2147 372 2553 
Q 372 3047 722 3315 
Q 1072 3584 1716 3584 
Q 2034 3584 2315 3537 
Q 2597 3491 2834 3397 
z
" transform="scale(0.015625)"/>
      </defs>
      <use xlink:href="#DejaVuSans-46"/>
      <use xlink:href="#DejaVuSans-69" x="50.269531"/>
      <use xlink:href="#DejaVuSans-74" x="78.052734"/>
      <use xlink:href="#DejaVuSans-6e" x="117.261719"/>
      <use xlink:href="#DejaVuSans-65" x="180.640625"/>
      <use xlink:href="#DejaVuSans-73" x="242.164062"/>
      <use xlink:href="#DejaVuSans-73" x="294.263672"/>
     </g>
    </g>
   </g>
   <g id="line2d_17">
    <path d="M 73.832727 293.504893 
L 74.646398 284.64003 
L 75.460068 288.607451 
L 76.273739 281.760917 
L 77.087409 280.499038 
L 77.90108 274.914884 
L 78.714751 273.7424 
L 79.528421 262.606394 
L 80.342092 261.813207 
L 81.155762 263.25893 
L 81.969433 267.120875 
L 82.783103 271.630421 
L 83.596774 263.862089 
L 84.410444 258.843439 
L 85.224115 263.22865 
L 86.037785 261.735262 
L 86.851456 266.573678 
L 87.665126 270.481066 
L 88.478797 257.474697 
L 89.292468 257.986174 
L 90.106138 253.668849 
L 90.919809 256.507454 
L 92.54715 243.661433 
L 93.36082 239.953813 
L 94.174491 263.199144 
L 94.988161 248.154231 
L 95.801832 247.0507 
L 96.615502 250.175957 
L 97.429173 247.312181 
L 98.242843 250.480107 
L 99.056514 243.943855 
L 99.870185 247.377112 
L 100.683855 238.007938 
L 101.497526 256.899273 
L 102.311196 220.225552 
L 103.124867 240.789875 
L 103.938537 242.089342 
L 104.752208 218.810675 
L 105.565878 250.422814 
L 106.379549 249.602261 
L 107.193219 221.508057 
L 108.00689 237.298863 
L 108.82056 241.029442 
L 109.634231 225.649977 
L 110.447902 238.531418 
L 112.075243 171.771431 
L 112.888913 148.374251 
L 113.702584 148.187063 
L 114.516254 148.235743 
L 115.329925 164.759094 
L 116.143595 124.645341 
L 116.957266 161.650285 
L 117.770936 148.266783 
L 118.584607 136.718947 
L 119.398278 166.189622 
L 120.211948 162.067534 
L 121.025619 165.428722 
L 121.839289 187.797359 
L 122.65296 143.042311 
L 123.46663 163.196067 
L 124.280301 159.277472 
L 125.093971 143.12443 
L 125.907642 151.724375 
L 126.721312 146.191954 
L 127.534983 138.059643 
L 128.348653 153.239784 
L 129.162324 158.05127 
L 129.975995 145.555074 
L 130.789665 124.618096 
L 131.603336 145.405113 
L 132.417006 150.100004 
L 133.230677 133.830434 
L 134.044347 146.839314 
L 134.858018 170.433165 
L 135.671688 133.986343 
L 136.485359 131.580575 
L 137.299029 142.170381 
L 138.1127 138.010689 
L 138.92637 159.227776 
L 139.740041 148.706424 
L 140.553712 160.680421 
L 141.367382 169.548434 
L 142.181053 173.866647 
L 142.994723 169.124367 
L 143.808394 169.406421 
L 144.622064 172.490284 
L 145.435735 171.52591 
L 146.249405 203.524325 
L 147.063076 165.170924 
L 147.876746 158.488674 
L 148.690417 196.992226 
L 149.504087 192.642791 
L 150.317758 161.345097 
L 151.131429 173.731842 
L 151.945099 165.972615 
L 152.75877 171.05198 
L 153.57244 155.922143 
L 154.386111 187.861686 
L 155.199781 161.338131 
L 156.013452 151.576263 
L 156.827122 190.7274 
L 157.640793 169.530581 
L 158.454463 158.728209 
L 159.268134 162.492338 
L 160.081805 184.157402 
L 160.895475 191.044744 
L 161.709146 171.960107 
L 162.522816 137.699115 
L 163.336487 195.807107 
L 164.150157 194.198599 
L 164.963828 146.984683 
L 166.591169 165.183317 
L 167.404839 158.088586 
L 168.21851 153.751213 
L 169.03218 187.490549 
L 169.845851 172.107097 
L 170.659522 165.19508 
L 171.473192 175.492051 
L 172.286863 158.562968 
L 173.100533 154.473568 
L 173.914204 154.514319 
L 174.727874 135.908895 
L 175.541545 149.78157 
L 176.355215 184.944495 
L 177.168886 110.885161 
L 177.982556 117.131292 
L 178.796227 163.778344 
L 179.609897 153.177796 
L 180.423568 129.630106 
L 181.237239 168.389958 
L 182.86458 162.209017 
L 183.67825 183.1576 
L 184.491921 169.25464 
L 185.305591 131.299034 
L 186.119262 153.197484 
L 186.932932 160.725116 
L 187.746603 147.986612 
L 188.560273 127.12115 
L 189.373944 132.792382 
L 190.187614 148.689483 
L 191.001285 198.0034 
L 191.814956 138.00933 
L 192.628626 145.741437 
L 193.442297 158.46254 
L 194.255967 127.694914 
L 195.069638 154.613435 
L 195.883308 130.384991 
L 196.696979 150.386517 
L 197.510649 135.77267 
L 198.32432 162.372534 
L 199.13799 168.907703 
L 199.951661 156.606935 
L 200.765332 140.457981 
L 201.579002 155.193691 
L 202.392673 117.02087 
L 203.206343 124.742644 
L 204.020014 190.676808 
L 204.833684 160.210388 
L 205.647355 136.42597 
L 206.461025 148.204388 
L 207.274696 141.600531 
L 208.088366 176.581924 
L 208.902037 132.416993 
L 209.715707 164.936017 
L 210.529378 165.362053 
L 211.343049 148.64472 
L 212.156719 142.114338 
L 212.97039 171.765122 
L 213.78406 131.854567 
L 214.597731 189.511132 
L 215.411401 138.775332 
L 216.225072 124.416212 
L 217.038742 157.007954 
L 217.852413 150.058419 
L 218.666083 153.626101 
L 219.479754 149.316992 
L 220.293424 120.667332 
L 221.107095 158.684429 
L 221.920766 159.465542 
L 222.734436 137.673023 
L 223.548107 136.811293 
L 224.361777 131.954087 
L 225.175448 153.062611 
L 225.989118 162.602021 
L 226.802789 131.734804 
L 227.616459 144.584748 
L 228.43013 162.068141 
L 229.2438 167.687643 
L 230.871141 144.369638 
L 231.684812 170.323557 
L 232.498483 152.258646 
L 233.312153 145.708671 
L 234.125824 169.897443 
L 234.939494 205.795347 
L 235.753165 165.087274 
L 236.566835 168.669833 
L 237.380506 148.360513 
L 238.194176 202.877507 
L 239.007847 163.933543 
L 239.821517 165.104152 
L 240.635188 166.885187 
L 241.448859 170.620708 
L 242.262529 142.725396 
L 243.0762 163.043627 
L 243.88987 140.856137 
L 244.703541 172.487039 
L 245.517211 166.794241 
L 246.330882 188.706583 
L 247.144552 175.531447 
L 247.958223 147.026761 
L 248.771893 170.968437 
L 249.585564 148.887946 
L 250.399234 131.052448 
L 251.212905 152.047131 
L 252.026576 135.91415 
L 252.840246 151.095749 
L 253.653917 149.485124 
L 254.467587 187.318513 
L 255.281258 184.324618 
L 256.094928 154.188382 
L 256.908599 166.889254 
L 257.722269 150.976727 
L 258.53594 172.840352 
L 259.34961 141.259355 
L 260.163281 154.196356 
L 260.976951 185.643572 
L 261.790622 165.271874 
L 263.417963 149.081085 
L 264.231634 173.191176 
L 265.045304 158.580945 
L 265.858975 140.997903 
L 266.672645 153.221826 
L 267.486316 177.124393 
L 268.299986 173.975348 
L 269.113657 152.756798 
L 269.927327 135.231859 
L 270.740998 174.645718 
L 271.554668 170.815092 
L 272.368339 150.604186 
L 273.18201 183.252515 
L 273.99568 149.828271 
L 274.809351 161.393183 
L 275.623021 164.80398 
L 276.436692 169.408678 
L 277.250362 165.999058 
L 278.064033 179.189013 
L 279.691374 147.413367 
L 280.505044 158.553754 
L 281.318715 171.798618 
L 282.132386 145.719901 
L 282.946056 148.902137 
L 283.759727 177.838877 
L 284.573397 150.694525 
L 286.200738 160.988709 
L 287.014409 168.11301 
L 287.828079 135.089327 
L 288.64175 182.453707 
L 289.45542 157.494684 
L 290.269091 163.002214 
L 291.082761 146.891947 
L 291.896432 140.337484 
L 292.710103 161.75864 
L 293.523773 135.803939 
L 294.337444 169.083371 
L 295.151114 148.536624 
L 295.964785 140.864045 
L 296.778455 134.735155 
L 298.405796 156.430327 
L 299.219467 160.976015 
L 300.033137 187.091106 
L 300.846808 137.214748 
L 301.660478 154.788431 
L 302.474149 138.960095 
L 303.28782 170.227544 
L 304.10149 159.614704 
L 304.915161 163.472418 
L 305.728831 165.16475 
L 306.542502 200.534019 
L 307.356172 148.294933 
L 308.169843 179.636346 
L 308.983513 154.895743 
L 309.797184 144.026637 
L 310.610854 170.143334 
L 311.424525 173.761467 
L 312.238195 127.190543 
L 313.051866 175.699844 
L 313.865537 140.617983 
L 314.679207 129.594355 
L 315.492878 126.131928 
L 316.306548 164.257196 
L 317.120219 145.976332 
L 317.933889 148.299801 
L 318.74756 139.300537 
L 319.56123 140.039182 
L 320.374901 150.075805 
L 321.188571 140.873378 
L 322.002242 124.710701 
L 322.815913 153.425137 
L 323.629583 149.684682 
L 324.443254 145.371067 
L 325.256924 146.932275 
L 326.070595 173.6599 
L 326.884265 154.06351 
L 327.697936 163.287099 
L 328.511606 145.766179 
L 329.325277 173.245356 
L 330.138947 168.213458 
L 330.952618 142.133528 
L 332.579959 152.734409 
L 333.39363 136.563622 
L 334.2073 153.523951 
L 335.020971 189.026993 
L 335.834641 138.39545 
L 336.648312 155.056321 
L 337.461982 150.946268 
L 338.275653 167.54798 
L 339.089323 151.869384 
L 339.902994 159.126679 
L 340.716664 162.507717 
L 341.530335 157.736565 
L 342.344005 153.870552 
L 343.157676 132.144802 
L 343.971347 153.999439 
L 344.785017 157.283398 
L 345.598688 135.714496 
L 346.412358 141.441307 
L 347.226029 162.770919 
L 348.039699 168.637153 
L 348.85337 165.338381 
L 349.66704 113.662787 
L 350.480711 118.209818 
L 351.294381 172.238085 
L 352.108052 140.294291 
L 352.921722 136.564221 
L 353.735393 158.788966 
L 354.549064 156.522672 
L 355.362734 140.5039 
L 356.176405 118.285418 
L 356.990075 145.698239 
L 357.803746 136.524203 
L 358.617416 141.240177 
L 359.431087 145.275818 
L 360.244757 113.254872 
L 361.058428 125.140671 
L 361.872098 154.511479 
L 362.685769 148.055149 
L 363.49944 135.027229 
L 364.31311 155.393083 
L 365.126781 133.579612 
L 365.940451 142.125516 
L 366.754122 116.873673 
L 368.381463 149.344754 
L 369.195133 148.343856 
L 370.008804 146.199479 
L 370.822474 145.820756 
L 371.636145 166.042723 
L 372.449815 136.765182 
L 373.263486 152.989279 
L 374.077157 158.116092 
L 374.890827 147.253919 
L 375.704498 133.020936 
L 377.331839 148.120264 
L 378.145509 146.310324 
L 378.95918 166.120371 
L 379.77285 151.171433 
L 380.586521 141.958021 
L 381.400191 152.52183 
L 382.213862 121.135499 
L 383.027532 165.881768 
L 383.841203 151.123136 
L 384.654874 168.941798 
L 385.468544 169.086927 
L 386.282215 163.114473 
L 387.095885 145.058696 
L 387.909556 177.323165 
L 388.723226 189.416193 
L 389.536897 148.010832 
L 390.350567 156.396877 
L 391.164238 144.692954 
L 391.977908 147.858171 
L 392.791579 148.547456 
L 393.605249 172.08396 
L 394.41892 147.750087 
L 395.232591 157.695084 
L 396.046261 135.499995 
L 396.859932 167.836571 
L 398.487273 134.481692 
L 398.487273 134.481692 
" clip-path="url(#pf15338b967)" style="fill: none; stroke: #1f77b4; stroke-width: 1.5; stroke-linecap: square"/>
   </g>
   <g id="line2d_18">
    <path d="M 73.832727 284.467704 
L 74.646398 253.141924 
L 75.460068 265.877672 
L 76.273739 245.318739 
L 77.087409 257.121014 
L 77.90108 242.40346 
L 78.714751 218.758046 
L 79.528421 224.568262 
L 80.342092 241.699634 
L 81.155762 241.838947 
L 81.969433 230.370453 
L 82.783103 240.148566 
L 83.596774 243.682648 
L 84.410444 232.050775 
L 85.224115 233.477748 
L 86.037785 236.458863 
L 86.851456 219.096497 
L 87.665126 205.527954 
L 88.478797 207.770709 
L 89.292468 229.596306 
L 90.106138 230.826483 
L 90.919809 200.835252 
L 91.733479 218.678123 
L 92.54715 205.572396 
L 93.36082 203.192049 
L 94.174491 216.766988 
L 94.988161 207.436908 
L 96.615502 178.083182 
L 97.429173 196.745286 
L 98.242843 201.039395 
L 99.056514 201.211295 
L 99.870185 173.486634 
L 100.683855 149.70586 
L 101.497526 170.726618 
L 102.311196 116.329018 
L 103.124867 149.385382 
L 103.938537 157.683163 
L 104.752208 146.256103 
L 105.565878 150.777368 
L 106.379549 169.418491 
L 107.193219 152.493647 
L 108.00689 140.865931 
L 108.82056 142.87004 
L 109.634231 153.925667 
L 110.447902 138.844534 
L 111.261572 82.975135 
L 112.075243 62.228737 
L 112.888913 61.938646 
L 113.702584 63.993214 
L 114.516254 62.239028 
L 115.329925 61.967472 
L 116.143595 61.956164 
L 116.957266 62.117697 
L 117.770936 68.29898 
L 118.584607 61.960524 
L 119.398278 64.360925 
L 120.211948 64.101908 
L 121.025619 65.115759 
L 121.839289 68.357008 
L 122.65296 61.939436 
L 123.46663 62.093205 
L 124.280301 63.588583 
L 125.093971 61.951821 
L 125.907642 62.213786 
L 126.721312 63.504439 
L 127.534983 67.390604 
L 128.348653 62.066107 
L 129.162324 61.967379 
L 132.417006 62.104454 
L 133.230677 61.974283 
L 134.044347 62.111438 
L 134.858018 61.93768 
L 139.740041 62.092274 
L 140.553712 62.665384 
L 141.367382 61.952462 
L 142.994723 61.999537 
L 143.808394 64.799656 
L 144.622064 62.092668 
L 147.063076 61.942967 
L 148.690417 62.119301 
L 149.504087 61.995543 
L 150.317758 62.265484 
L 151.131429 65.923466 
L 151.945099 62.104791 
L 155.199781 62.078539 
L 156.013452 62.668296 
L 156.827122 62.032514 
L 157.640793 62.533214 
L 158.454463 62.060557 
L 160.081805 61.932691 
L 161.709146 62.225475 
L 162.522816 61.941277 
L 163.336487 61.969287 
L 164.150157 74.478374 
L 164.963828 61.959194 
L 167.404839 62.078474 
L 168.21851 62.209355 
L 169.03218 61.970827 
L 169.845851 62.078052 
L 171.473192 61.999931 
L 175.541545 61.938143 
L 176.355215 62.135346 
L 177.168886 61.974856 
L 178.796227 62.240813 
L 179.609897 61.920833 
L 180.423568 61.946963 
L 181.237239 62.099177 
L 182.050909 64.531435 
L 182.86458 61.977944 
L 183.67825 61.95497 
L 184.491921 62.147401 
L 185.305591 61.942223 
L 190.187614 62.006049 
L 191.001285 62.10673 
L 193.442297 62.116109 
L 194.255967 62.377588 
L 195.069638 61.950655 
L 196.696979 61.91591 
L 197.510649 63.05112 
L 198.32432 62.033228 
L 199.13799 61.922813 
L 199.951661 62.086851 
L 200.765332 62.015617 
L 201.579002 62.32577 
L 202.392673 61.964934 
L 204.020014 62.112306 
L 204.833684 61.960917 
L 210.529378 62.131519 
L 211.343049 61.929429 
L 212.156719 62.072588 
L 212.97039 62.08771 
L 213.78406 61.983678 
L 214.597731 64.751321 
L 215.411401 61.95692 
L 217.038742 61.958363 
L 217.852413 63.307505 
L 218.666083 61.955207 
L 219.479754 62.087485 
L 220.293424 61.943364 
L 224.361777 62.000302 
L 225.175448 62.498836 
L 225.989118 61.915184 
L 228.43013 61.921651 
L 229.2438 62.821461 
L 230.057471 62.667128 
L 230.871141 62.129955 
L 231.684812 66.137846 
L 232.498483 62.732763 
L 233.312153 62.562903 
L 234.125824 61.946695 
L 235.753165 62.118049 
L 236.566835 61.971085 
L 237.380506 61.978554 
L 238.194176 62.099534 
L 239.007847 61.914616 
L 240.635188 61.934874 
L 242.262529 61.982052 
L 243.0762 62.337251 
L 244.703541 62.055281 
L 245.517211 62.027523 
L 246.330882 62.220187 
L 247.144552 61.986235 
L 247.958223 61.943795 
L 248.771893 62.151367 
L 250.399234 61.978528 
L 252.840246 61.936093 
L 253.653917 62.082928 
L 254.467587 61.964866 
L 255.281258 62.017147 
L 256.094928 61.944198 
L 256.908599 62.096075 
L 257.722269 62.712216 
L 258.53594 61.927156 
L 259.34961 62.181782 
L 260.163281 61.966027 
L 260.976951 62.258976 
L 261.790622 62.043989 
L 263.417963 61.987234 
L 264.231634 62.155555 
L 265.045304 61.927769 
L 266.672645 61.99681 
L 268.299986 62.158671 
L 269.113657 61.974179 
L 270.740998 61.971124 
L 271.554668 62.421147 
L 272.368339 61.92049 
L 273.18201 62.224055 
L 273.99568 62.120358 
L 275.623021 62.245989 
L 276.436692 62.48707 
L 277.250362 61.973087 
L 281.318715 62.055821 
L 282.132386 61.936925 
L 282.946056 62.019803 
L 283.759727 61.989205 
L 284.573397 62.220611 
L 286.200738 61.930217 
L 287.828079 62.026551 
L 289.45542 62.077056 
L 291.082761 61.944185 
L 292.710103 62.030984 
L 294.337444 61.959658 
L 295.964785 61.984145 
L 296.778455 62.254734 
L 298.405796 61.937159 
L 304.10149 62.120606 
L 304.915161 61.965671 
L 305.728831 61.950926 
L 306.542502 62.325266 
L 307.356172 61.958075 
L 311.424525 61.965024 
L 312.238195 62.177497 
L 313.051866 61.946951 
L 315.492878 61.950014 
L 317.120219 61.971439 
L 317.933889 62.023932 
L 318.74756 61.952501 
L 319.56123 62.018052 
L 321.188571 61.974387 
L 322.002242 61.939856 
L 322.815913 62.113308 
L 323.629583 62.423445 
L 324.443254 62.071102 
L 326.070595 61.95157 
L 326.884265 62.304309 
L 327.697936 62.267314 
L 328.511606 61.961057 
L 331.766288 61.93998 
L 332.579959 62.266009 
L 333.39363 61.964977 
L 335.834641 61.970219 
L 336.648312 62.180164 
L 337.461982 62.064529 
L 338.275653 62.369708 
L 339.089323 61.963024 
L 340.716664 62.018807 
L 341.530335 61.916879 
L 344.785017 61.923776 
L 351.294381 62.087506 
L 352.108052 61.945341 
L 352.921722 62.087787 
L 353.735393 61.990846 
L 356.176405 62.016255 
L 356.990075 61.929006 
L 357.803746 61.990002 
L 358.617416 62.192946 
L 359.431087 61.995196 
L 360.244757 62.125031 
L 361.058428 62.083791 
L 361.872098 62.205251 
L 362.685769 61.932844 
L 363.49944 61.944273 
L 365.126781 62.086096 
L 365.940451 61.954979 
L 366.754122 61.938341 
L 367.567792 62.097078 
L 371.636145 61.940954 
L 373.263486 61.996695 
L 376.518168 61.961487 
L 378.95918 62.110089 
L 379.77285 61.930687 
L 381.400191 61.973622 
L 382.213862 61.941684 
L 383.027532 62.043559 
L 384.654874 61.999433 
L 385.468544 62.107459 
L 387.095885 61.955979 
L 387.909556 62.111003 
L 389.536897 61.948828 
L 391.977908 61.939555 
L 392.791579 62.02624 
L 394.41892 61.953675 
L 395.232591 61.94425 
L 396.046261 62.221354 
L 396.859932 61.922604 
L 398.487273 61.983983 
L 398.487273 61.983983 
" clip-path="url(#pf15338b967)" style="fill: none; stroke: #ff7f0e; stroke-width: 1.5; stroke-linecap: square"/>
   </g>
   <g id="patch_3">
    <path d="M 57.6 307.584 
L 57.6 41.472 
" style="fill: none; stroke: #000000; stroke-width: 0.8; stroke-linejoin: miter; stroke-linecap: square"/>
   </g>
   <g id="patch_4">
    <path d="M 414.72 307.584 
L 414.72 41.472 
" style="fill: none; stroke: #000000; stroke-width: 0.8; stroke-linejoin: miter; stroke-linecap: square"/>
   </g>
   <g id="patch_5">
    <path d="M 57.6 307.584 
L 414.72 307.584 
" style="fill: none; stroke: #000000; stroke-width: 0.8; stroke-linejoin: miter; stroke-linecap: square"/>
   </g>
   <g id="patch_6">
    <path d="M 57.6 41.472 
L 414.72 41.472 
" style="fill: none; stroke: #000000; stroke-width: 0.8; stroke-linejoin: miter; stroke-linecap: square"/>
   </g>
   <g id="legend_1">
    <g id="patch_7">
     <path d="M 334.654375 302.584 
L 407.72 302.584 
Q 409.72 302.584 409.72 300.584 
L 409.72 272.22775 
Q 409.72 270.22775 407.72 270.22775 
L 334.654375 270.22775 
Q 332.654375 270.22775 332.654375 272.22775 
L 332.654375 300.584 
Q 332.654375 302.584 334.654375 302.584 
z
" style="fill: #ffffff; opacity: 0.8; stroke: #cccccc; stroke-linejoin: miter"/>
    </g>
    <g id="line2d_19">
     <path d="M 336.654375 278.326187 
L 346.654375 278.326187 
L 356.654375 278.326187 
" style="fill: none; stroke: #1f77b4; stroke-width: 1.5; stroke-linecap: square"/>
    </g>
    <g id="text_19">
     <!-- Average -->
     <g transform="translate(364.654375 281.826187)scale(0.1 -0.1)">
      <defs>
       <path id="DejaVuSans-41" d="M 2188 4044 
L 1331 1722 
L 3047 1722 
L 2188 4044 
z
M 1831 4666 
L 2547 4666 
L 4325 0 
L 3669 0 
L 3244 1197 
L 1141 1197 
L 716 0 
L 50 0 
L 1831 4666 
z
" transform="scale(0.015625)"/>
       <path id="DejaVuSans-76" d="M 191 3500 
L 800 3500 
L 1894 563 
L 2988 3500 
L 3597 3500 
L 2284 0 
L 1503 0 
L 191 3500 
z
" transform="scale(0.015625)"/>
       <path id="DejaVuSans-67" d="M 2906 1791 
Q 2906 2416 2648 2759 
Q 2391 3103 1925 3103 
Q 1463 3103 1205 2759 
Q 947 2416 947 1791 
Q 947 1169 1205 825 
Q 1463 481 1925 481 
Q 2391 481 2648 825 
Q 2906 1169 2906 1791 
z
M 3481 434 
Q 3481 -459 3084 -895 
Q 2688 -1331 1869 -1331 
Q 1566 -1331 1297 -1286 
Q 1028 -1241 775 -1147 
L 775 -588 
Q 1028 -725 1275 -790 
Q 1522 -856 1778 -856 
Q 2344 -856 2625 -561 
Q 2906 -266 2906 331 
L 2906 616 
Q 2728 306 2450 153 
Q 2172 0 1784 0 
Q 1141 0 747 490 
Q 353 981 353 1791 
Q 353 2603 747 3093 
Q 1141 3584 1784 3584 
Q 2172 3584 2450 3431 
Q 2728 3278 2906 2969 
L 2906 3500 
L 3481 3500 
L 3481 434 
z
" transform="scale(0.015625)"/>
      </defs>
      <use xlink:href="#DejaVuSans-41"/>
      <use xlink:href="#DejaVuSans-76" x="62.533203"/>
      <use xlink:href="#DejaVuSans-65" x="121.712891"/>
      <use xlink:href="#DejaVuSans-72" x="183.236328"/>
      <use xlink:href="#DejaVuSans-61" x="224.349609"/>
      <use xlink:href="#DejaVuSans-67" x="285.628906"/>
      <use xlink:href="#DejaVuSans-65" x="349.105469"/>
     </g>
    </g>
    <g id="line2d_20">
     <path d="M 336.654375 293.004312 
L 346.654375 293.004312 
L 356.654375 293.004312 
" style="fill: none; stroke: #ff7f0e; stroke-width: 1.5; stroke-linecap: square"/>
    </g>
    <g id="text_20">
     <!-- Best -->
     <g transform="translate(364.654375 296.504312)scale(0.1 -0.1)">
      <defs>
       <path id="DejaVuSans-42" d="M 1259 2228 
L 1259 519 
L 2272 519 
Q 2781 519 3026 730 
Q 3272 941 3272 1375 
Q 3272 1813 3026 2020 
Q 2781 2228 2272 2228 
L 1259 2228 
z
M 1259 4147 
L 1259 2741 
L 2194 2741 
Q 2656 2741 2882 2914 
Q 3109 3088 3109 3444 
Q 3109 3797 2882 3972 
Q 2656 4147 2194 4147 
L 1259 4147 
z
M 628 4666 
L 2241 4666 
Q 2963 4666 3353 4366 
Q 3744 4066 3744 3513 
Q 3744 3084 3544 2831 
Q 3344 2578 2956 2516 
Q 3422 2416 3680 2098 
Q 3938 1781 3938 1306 
Q 3938 681 3513 340 
Q 3088 0 2303 0 
L 628 0 
L 628 4666 
z
" transform="scale(0.015625)"/>
      </defs>
      <use xlink:href="#DejaVuSans-42"/>
      <use xlink:href="#DejaVuSans-65" x="68.603516"/>
      <use xlink:href="#DejaVuSans-73" x="130.126953"/>
      <use xlink:href="#DejaVuSans-74" x="182.226562"/>
     </g>
    </g>
   </g>
  </g>
 </g>
 <defs>
  <clipPath id="pf15338b967">
   <rect x="57.6" y="41.472" width="357.12" height="266.112"/>
  </clipPath>
 </defs>
</svg>
