<?xml version="1.0" encoding="utf-8" standalone="no"?>
<!DOCTYPE svg PUBLIC "-//W3C//DTD SVG 1.1//EN"
  "http://www.w3.org/Graphics/SVG/1.1/DTD/svg11.dtd">
<svg xmlns:xlink="http://www.w3.org/1999/xlink" width="460.8pt" height="345.6pt" viewBox="0 0 460.8 345.6" xmlns="http://www.w3.org/2000/svg" version="1.1">
 <metadata>
  <rdf:RDF xmlns:dc="http://purl.org/dc/elements/1.1/" xmlns:cc="http://creativecommons.org/ns#" xmlns:rdf="http://www.w3.org/1999/02/22-rdf-syntax-ns#">
   <cc:Work>
    <dc:type rdf:resource="http://purl.org/dc/dcmitype/StillImage"/>
    <dc:date>2022-10-11T09:46:48.323963</dc:date>
    <dc:format>image/svg+xml</dc:format>
    <dc:creator>
     <cc:Agent>
      <dc:title>Matplotlib v3.5.0, https://matplotlib.org/</dc:title>
     </cc:Agent>
    </dc:creator>
   </cc:Work>
  </rdf:RDF>
 </metadata>
 <defs>
  <style type="text/css">*{stroke-linejoin: round; stroke-linecap: butt}</style>
 </defs>
 <g id="figure_1">
  <g id="patch_1">
   <path d="M 0 345.6 
L 460.8 345.6 
L 460.8 0 
L 0 0 
z
" style="fill: #ffffff"/>
  </g>
  <g id="axes_1">
   <g id="patch_2">
    <path d="M 57.6 307.584 
L 414.72 307.584 
L 414.72 41.472 
L 57.6 41.472 
z
" style="fill: #ffffff"/>
   </g>
   <g id="matplotlib.axis_1">
    <g id="xtick_1">
     <g id="line2d_1">
      <defs>
       <path id="mf25c8f4899" d="M 0 0 
L 0 3.5 
" style="stroke: #000000; stroke-width: 0.8"/>
      </defs>
      <g>
       <use xlink:href="#mf25c8f4899" x="73.832727" y="307.584" style="stroke: #000000; stroke-width: 0.8"/>
      </g>
     </g>
     <g id="text_1">
      <!-- 0 -->
      <g transform="translate(70.651477 322.182437)scale(0.1 -0.1)">
       <defs>
        <path id="DejaVuSans-30" d="M 2034 4250 
Q 1547 4250 1301 3770 
Q 1056 3291 1056 2328 
Q 1056 1369 1301 889 
Q 1547 409 2034 409 
Q 2525 409 2770 889 
Q 3016 1369 3016 2328 
Q 3016 3291 2770 3770 
Q 2525 4250 2034 4250 
z
M 2034 4750 
Q 2819 4750 3233 4129 
Q 3647 3509 3647 2328 
Q 3647 1150 3233 529 
Q 2819 -91 2034 -91 
Q 1250 -91 836 529 
Q 422 1150 422 2328 
Q 422 3509 836 4129 
Q 1250 4750 2034 4750 
z
" transform="scale(0.015625)"/>
       </defs>
       <use xlink:href="#DejaVuSans-30"/>
      </g>
     </g>
    </g>
    <g id="xtick_2">
     <g id="line2d_2">
      <g>
       <use xlink:href="#mf25c8f4899" x="114.516254" y="307.584" style="stroke: #000000; stroke-width: 0.8"/>
      </g>
     </g>
     <g id="text_2">
      <!-- 50 -->
      <g transform="translate(108.153754 322.182437)scale(0.1 -0.1)">
       <defs>
        <path id="DejaVuSans-35" d="M 691 4666 
L 3169 4666 
L 3169 4134 
L 1269 4134 
L 1269 2991 
Q 1406 3038 1543 3061 
Q 1681 3084 1819 3084 
Q 2600 3084 3056 2656 
Q 3513 2228 3513 1497 
Q 3513 744 3044 326 
Q 2575 -91 1722 -91 
Q 1428 -91 1123 -41 
Q 819 9 494 109 
L 494 744 
Q 775 591 1075 516 
Q 1375 441 1709 441 
Q 2250 441 2565 725 
Q 2881 1009 2881 1497 
Q 2881 1984 2565 2268 
Q 2250 2553 1709 2553 
Q 1456 2553 1204 2497 
Q 953 2441 691 2322 
L 691 4666 
z
" transform="scale(0.015625)"/>
       </defs>
       <use xlink:href="#DejaVuSans-35"/>
       <use xlink:href="#DejaVuSans-30" x="63.623047"/>
      </g>
     </g>
    </g>
    <g id="xtick_3">
     <g id="line2d_3">
      <g>
       <use xlink:href="#mf25c8f4899" x="155.199781" y="307.584" style="stroke: #000000; stroke-width: 0.8"/>
      </g>
     </g>
     <g id="text_3">
      <!-- 100 -->
      <g transform="translate(145.656031 322.182437)scale(0.1 -0.1)">
       <defs>
        <path id="DejaVuSans-31" d="M 794 531 
L 1825 531 
L 1825 4091 
L 703 3866 
L 703 4441 
L 1819 4666 
L 2450 4666 
L 2450 531 
L 3481 531 
L 3481 0 
L 794 0 
L 794 531 
z
" transform="scale(0.015625)"/>
       </defs>
       <use xlink:href="#DejaVuSans-31"/>
       <use xlink:href="#DejaVuSans-30" x="63.623047"/>
       <use xlink:href="#DejaVuSans-30" x="127.246094"/>
      </g>
     </g>
    </g>
    <g id="xtick_4">
     <g id="line2d_4">
      <g>
       <use xlink:href="#mf25c8f4899" x="195.883308" y="307.584" style="stroke: #000000; stroke-width: 0.8"/>
      </g>
     </g>
     <g id="text_4">
      <!-- 150 -->
      <g transform="translate(186.339558 322.182437)scale(0.1 -0.1)">
       <use xlink:href="#DejaVuSans-31"/>
       <use xlink:href="#DejaVuSans-35" x="63.623047"/>
       <use xlink:href="#DejaVuSans-30" x="127.246094"/>
      </g>
     </g>
    </g>
    <g id="xtick_5">
     <g id="line2d_5">
      <g>
       <use xlink:href="#mf25c8f4899" x="236.566835" y="307.584" style="stroke: #000000; stroke-width: 0.8"/>
      </g>
     </g>
     <g id="text_5">
      <!-- 200 -->
      <g transform="translate(227.023085 322.182437)scale(0.1 -0.1)">
       <defs>
        <path id="DejaVuSans-32" d="M 1228 531 
L 3431 531 
L 3431 0 
L 469 0 
L 469 531 
Q 828 903 1448 1529 
Q 2069 2156 2228 2338 
Q 2531 2678 2651 2914 
Q 2772 3150 2772 3378 
Q 2772 3750 2511 3984 
Q 2250 4219 1831 4219 
Q 1534 4219 1204 4116 
Q 875 4013 500 3803 
L 500 4441 
Q 881 4594 1212 4672 
Q 1544 4750 1819 4750 
Q 2544 4750 2975 4387 
Q 3406 4025 3406 3419 
Q 3406 3131 3298 2873 
Q 3191 2616 2906 2266 
Q 2828 2175 2409 1742 
Q 1991 1309 1228 531 
z
" transform="scale(0.015625)"/>
       </defs>
       <use xlink:href="#DejaVuSans-32"/>
       <use xlink:href="#DejaVuSans-30" x="63.623047"/>
       <use xlink:href="#DejaVuSans-30" x="127.246094"/>
      </g>
     </g>
    </g>
    <g id="xtick_6">
     <g id="line2d_6">
      <g>
       <use xlink:href="#mf25c8f4899" x="277.250362" y="307.584" style="stroke: #000000; stroke-width: 0.8"/>
      </g>
     </g>
     <g id="text_6">
      <!-- 250 -->
      <g transform="translate(267.706612 322.182437)scale(0.1 -0.1)">
       <use xlink:href="#DejaVuSans-32"/>
       <use xlink:href="#DejaVuSans-35" x="63.623047"/>
       <use xlink:href="#DejaVuSans-30" x="127.246094"/>
      </g>
     </g>
    </g>
    <g id="xtick_7">
     <g id="line2d_7">
      <g>
       <use xlink:href="#mf25c8f4899" x="317.933889" y="307.584" style="stroke: #000000; stroke-width: 0.8"/>
      </g>
     </g>
     <g id="text_7">
      <!-- 300 -->
      <g transform="translate(308.390139 322.182437)scale(0.1 -0.1)">
       <defs>
        <path id="DejaVuSans-33" d="M 2597 2516 
Q 3050 2419 3304 2112 
Q 3559 1806 3559 1356 
Q 3559 666 3084 287 
Q 2609 -91 1734 -91 
Q 1441 -91 1130 -33 
Q 819 25 488 141 
L 488 750 
Q 750 597 1062 519 
Q 1375 441 1716 441 
Q 2309 441 2620 675 
Q 2931 909 2931 1356 
Q 2931 1769 2642 2001 
Q 2353 2234 1838 2234 
L 1294 2234 
L 1294 2753 
L 1863 2753 
Q 2328 2753 2575 2939 
Q 2822 3125 2822 3475 
Q 2822 3834 2567 4026 
Q 2313 4219 1838 4219 
Q 1578 4219 1281 4162 
Q 984 4106 628 3988 
L 628 4550 
Q 988 4650 1302 4700 
Q 1616 4750 1894 4750 
Q 2613 4750 3031 4423 
Q 3450 4097 3450 3541 
Q 3450 3153 3228 2886 
Q 3006 2619 2597 2516 
z
" transform="scale(0.015625)"/>
       </defs>
       <use xlink:href="#DejaVuSans-33"/>
       <use xlink:href="#DejaVuSans-30" x="63.623047"/>
       <use xlink:href="#DejaVuSans-30" x="127.246094"/>
      </g>
     </g>
    </g>
    <g id="xtick_8">
     <g id="line2d_8">
      <g>
       <use xlink:href="#mf25c8f4899" x="358.617416" y="307.584" style="stroke: #000000; stroke-width: 0.8"/>
      </g>
     </g>
     <g id="text_8">
      <!-- 350 -->
      <g transform="translate(349.073666 322.182437)scale(0.1 -0.1)">
       <use xlink:href="#DejaVuSans-33"/>
       <use xlink:href="#DejaVuSans-35" x="63.623047"/>
       <use xlink:href="#DejaVuSans-30" x="127.246094"/>
      </g>
     </g>
    </g>
    <g id="xtick_9">
     <g id="line2d_9">
      <g>
       <use xlink:href="#mf25c8f4899" x="399.300943" y="307.584" style="stroke: #000000; stroke-width: 0.8"/>
      </g>
     </g>
     <g id="text_9">
      <!-- 400 -->
      <g transform="translate(389.757193 322.182437)scale(0.1 -0.1)">
       <defs>
        <path id="DejaVuSans-34" d="M 2419 4116 
L 825 1625 
L 2419 1625 
L 2419 4116 
z
M 2253 4666 
L 3047 4666 
L 3047 1625 
L 3713 1625 
L 3713 1100 
L 3047 1100 
L 3047 0 
L 2419 0 
L 2419 1100 
L 313 1100 
L 313 1709 
L 2253 4666 
z
" transform="scale(0.015625)"/>
       </defs>
       <use xlink:href="#DejaVuSans-34"/>
       <use xlink:href="#DejaVuSans-30" x="63.623047"/>
       <use xlink:href="#DejaVuSans-30" x="127.246094"/>
      </g>
     </g>
    </g>
    <g id="text_10">
     <!-- Generation -->
     <g transform="translate(208.267031 335.860562)scale(0.1 -0.1)">
      <defs>
       <path id="DejaVuSans-47" d="M 3809 666 
L 3809 1919 
L 2778 1919 
L 2778 2438 
L 4434 2438 
L 4434 434 
Q 4069 175 3628 42 
Q 3188 -91 2688 -91 
Q 1594 -91 976 548 
Q 359 1188 359 2328 
Q 359 3472 976 4111 
Q 1594 4750 2688 4750 
Q 3144 4750 3555 4637 
Q 3966 4525 4313 4306 
L 4313 3634 
Q 3963 3931 3569 4081 
Q 3175 4231 2741 4231 
Q 1884 4231 1454 3753 
Q 1025 3275 1025 2328 
Q 1025 1384 1454 906 
Q 1884 428 2741 428 
Q 3075 428 3337 486 
Q 3600 544 3809 666 
z
" transform="scale(0.015625)"/>
       <path id="DejaVuSans-65" d="M 3597 1894 
L 3597 1613 
L 953 1613 
Q 991 1019 1311 708 
Q 1631 397 2203 397 
Q 2534 397 2845 478 
Q 3156 559 3463 722 
L 3463 178 
Q 3153 47 2828 -22 
Q 2503 -91 2169 -91 
Q 1331 -91 842 396 
Q 353 884 353 1716 
Q 353 2575 817 3079 
Q 1281 3584 2069 3584 
Q 2775 3584 3186 3129 
Q 3597 2675 3597 1894 
z
M 3022 2063 
Q 3016 2534 2758 2815 
Q 2500 3097 2075 3097 
Q 1594 3097 1305 2825 
Q 1016 2553 972 2059 
L 3022 2063 
z
" transform="scale(0.015625)"/>
       <path id="DejaVuSans-6e" d="M 3513 2113 
L 3513 0 
L 2938 0 
L 2938 2094 
Q 2938 2591 2744 2837 
Q 2550 3084 2163 3084 
Q 1697 3084 1428 2787 
Q 1159 2491 1159 1978 
L 1159 0 
L 581 0 
L 581 3500 
L 1159 3500 
L 1159 2956 
Q 1366 3272 1645 3428 
Q 1925 3584 2291 3584 
Q 2894 3584 3203 3211 
Q 3513 2838 3513 2113 
z
" transform="scale(0.015625)"/>
       <path id="DejaVuSans-72" d="M 2631 2963 
Q 2534 3019 2420 3045 
Q 2306 3072 2169 3072 
Q 1681 3072 1420 2755 
Q 1159 2438 1159 1844 
L 1159 0 
L 581 0 
L 581 3500 
L 1159 3500 
L 1159 2956 
Q 1341 3275 1631 3429 
Q 1922 3584 2338 3584 
Q 2397 3584 2469 3576 
Q 2541 3569 2628 3553 
L 2631 2963 
z
" transform="scale(0.015625)"/>
       <path id="DejaVuSans-61" d="M 2194 1759 
Q 1497 1759 1228 1600 
Q 959 1441 959 1056 
Q 959 750 1161 570 
Q 1363 391 1709 391 
Q 2188 391 2477 730 
Q 2766 1069 2766 1631 
L 2766 1759 
L 2194 1759 
z
M 3341 1997 
L 3341 0 
L 2766 0 
L 2766 531 
Q 2569 213 2275 61 
Q 1981 -91 1556 -91 
Q 1019 -91 701 211 
Q 384 513 384 1019 
Q 384 1609 779 1909 
Q 1175 2209 1959 2209 
L 2766 2209 
L 2766 2266 
Q 2766 2663 2505 2880 
Q 2244 3097 1772 3097 
Q 1472 3097 1187 3025 
Q 903 2953 641 2809 
L 641 3341 
Q 956 3463 1253 3523 
Q 1550 3584 1831 3584 
Q 2591 3584 2966 3190 
Q 3341 2797 3341 1997 
z
" transform="scale(0.015625)"/>
       <path id="DejaVuSans-74" d="M 1172 4494 
L 1172 3500 
L 2356 3500 
L 2356 3053 
L 1172 3053 
L 1172 1153 
Q 1172 725 1289 603 
Q 1406 481 1766 481 
L 2356 481 
L 2356 0 
L 1766 0 
Q 1100 0 847 248 
Q 594 497 594 1153 
L 594 3053 
L 172 3053 
L 172 3500 
L 594 3500 
L 594 4494 
L 1172 4494 
z
" transform="scale(0.015625)"/>
       <path id="DejaVuSans-69" d="M 603 3500 
L 1178 3500 
L 1178 0 
L 603 0 
L 603 3500 
z
M 603 4863 
L 1178 4863 
L 1178 4134 
L 603 4134 
L 603 4863 
z
" transform="scale(0.015625)"/>
       <path id="DejaVuSans-6f" d="M 1959 3097 
Q 1497 3097 1228 2736 
Q 959 2375 959 1747 
Q 959 1119 1226 758 
Q 1494 397 1959 397 
Q 2419 397 2687 759 
Q 2956 1122 2956 1747 
Q 2956 2369 2687 2733 
Q 2419 3097 1959 3097 
z
M 1959 3584 
Q 2709 3584 3137 3096 
Q 3566 2609 3566 1747 
Q 3566 888 3137 398 
Q 2709 -91 1959 -91 
Q 1206 -91 779 398 
Q 353 888 353 1747 
Q 353 2609 779 3096 
Q 1206 3584 1959 3584 
z
" transform="scale(0.015625)"/>
      </defs>
      <use xlink:href="#DejaVuSans-47"/>
      <use xlink:href="#DejaVuSans-65" x="77.490234"/>
      <use xlink:href="#DejaVuSans-6e" x="139.013672"/>
      <use xlink:href="#DejaVuSans-65" x="202.392578"/>
      <use xlink:href="#DejaVuSans-72" x="263.916016"/>
      <use xlink:href="#DejaVuSans-61" x="305.029297"/>
      <use xlink:href="#DejaVuSans-74" x="366.308594"/>
      <use xlink:href="#DejaVuSans-69" x="405.517578"/>
      <use xlink:href="#DejaVuSans-6f" x="433.300781"/>
      <use xlink:href="#DejaVuSans-6e" x="494.482422"/>
     </g>
    </g>
   </g>
   <g id="matplotlib.axis_2">
    <g id="ytick_1">
     <g id="line2d_10">
      <defs>
       <path id="mc966d3d691" d="M 0 0 
L -3.5 0 
" style="stroke: #000000; stroke-width: 0.8"/>
      </defs>
      <g>
       <use xlink:href="#mc966d3d691" x="57.6" y="307.584" style="stroke: #000000; stroke-width: 0.8"/>
      </g>
     </g>
     <g id="text_11">
      <!-- 0 -->
      <g transform="translate(44.2375 311.383219)scale(0.1 -0.1)">
       <use xlink:href="#DejaVuSans-30"/>
      </g>
     </g>
    </g>
    <g id="ytick_2">
     <g id="line2d_11">
      <g>
       <use xlink:href="#mc966d3d691" x="57.6" y="263.232" style="stroke: #000000; stroke-width: 0.8"/>
      </g>
     </g>
     <g id="text_12">
      <!-- 5 -->
      <g transform="translate(44.2375 267.031219)scale(0.1 -0.1)">
       <use xlink:href="#DejaVuSans-35"/>
      </g>
     </g>
    </g>
    <g id="ytick_3">
     <g id="line2d_12">
      <g>
       <use xlink:href="#mc966d3d691" x="57.6" y="218.88" style="stroke: #000000; stroke-width: 0.8"/>
      </g>
     </g>
     <g id="text_13">
      <!-- 10 -->
      <g transform="translate(37.875 222.679219)scale(0.1 -0.1)">
       <use xlink:href="#DejaVuSans-31"/>
       <use xlink:href="#DejaVuSans-30" x="63.623047"/>
      </g>
     </g>
    </g>
    <g id="ytick_4">
     <g id="line2d_13">
      <g>
       <use xlink:href="#mc966d3d691" x="57.6" y="174.528" style="stroke: #000000; stroke-width: 0.8"/>
      </g>
     </g>
     <g id="text_14">
      <!-- 15 -->
      <g transform="translate(37.875 178.327219)scale(0.1 -0.1)">
       <use xlink:href="#DejaVuSans-31"/>
       <use xlink:href="#DejaVuSans-35" x="63.623047"/>
      </g>
     </g>
    </g>
    <g id="ytick_5">
     <g id="line2d_14">
      <g>
       <use xlink:href="#mc966d3d691" x="57.6" y="130.176" style="stroke: #000000; stroke-width: 0.8"/>
      </g>
     </g>
     <g id="text_15">
      <!-- 20 -->
      <g transform="translate(37.875 133.975219)scale(0.1 -0.1)">
       <use xlink:href="#DejaVuSans-32"/>
       <use xlink:href="#DejaVuSans-30" x="63.623047"/>
      </g>
     </g>
    </g>
    <g id="ytick_6">
     <g id="line2d_15">
      <g>
       <use xlink:href="#mc966d3d691" x="57.6" y="85.824" style="stroke: #000000; stroke-width: 0.8"/>
      </g>
     </g>
     <g id="text_16">
      <!-- 25 -->
      <g transform="translate(37.875 89.623219)scale(0.1 -0.1)">
       <use xlink:href="#DejaVuSans-32"/>
       <use xlink:href="#DejaVuSans-35" x="63.623047"/>
      </g>
     </g>
    </g>
    <g id="ytick_7">
     <g id="line2d_16">
      <g>
       <use xlink:href="#mc966d3d691" x="57.6" y="41.472" style="stroke: #000000; stroke-width: 0.8"/>
      </g>
     </g>
     <g id="text_17">
      <!-- 30 -->
      <g transform="translate(37.875 45.271219)scale(0.1 -0.1)">
       <use xlink:href="#DejaVuSans-33"/>
       <use xlink:href="#DejaVuSans-30" x="63.623047"/>
      </g>
     </g>
    </g>
    <g id="text_18">
     <!-- Block num -->
     <g transform="translate(31.795312 200.848312)rotate(-90)scale(0.1 -0.1)">
      <defs>
       <path id="DejaVuSans-42" d="M 1259 2228 
L 1259 519 
L 2272 519 
Q 2781 519 3026 730 
Q 3272 941 3272 1375 
Q 3272 1813 3026 2020 
Q 2781 2228 2272 2228 
L 1259 2228 
z
M 1259 4147 
L 1259 2741 
L 2194 2741 
Q 2656 2741 2882 2914 
Q 3109 3088 3109 3444 
Q 3109 3797 2882 3972 
Q 2656 4147 2194 4147 
L 1259 4147 
z
M 628 4666 
L 2241 4666 
Q 2963 4666 3353 4366 
Q 3744 4066 3744 3513 
Q 3744 3084 3544 2831 
Q 3344 2578 2956 2516 
Q 3422 2416 3680 2098 
Q 3938 1781 3938 1306 
Q 3938 681 3513 340 
Q 3088 0 2303 0 
L 628 0 
L 628 4666 
z
" transform="scale(0.015625)"/>
       <path id="DejaVuSans-6c" d="M 603 4863 
L 1178 4863 
L 1178 0 
L 603 0 
L 603 4863 
z
" transform="scale(0.015625)"/>
       <path id="DejaVuSans-63" d="M 3122 3366 
L 3122 2828 
Q 2878 2963 2633 3030 
Q 2388 3097 2138 3097 
Q 1578 3097 1268 2742 
Q 959 2388 959 1747 
Q 959 1106 1268 751 
Q 1578 397 2138 397 
Q 2388 397 2633 464 
Q 2878 531 3122 666 
L 3122 134 
Q 2881 22 2623 -34 
Q 2366 -91 2075 -91 
Q 1284 -91 818 406 
Q 353 903 353 1747 
Q 353 2603 823 3093 
Q 1294 3584 2113 3584 
Q 2378 3584 2631 3529 
Q 2884 3475 3122 3366 
z
" transform="scale(0.015625)"/>
       <path id="DejaVuSans-6b" d="M 581 4863 
L 1159 4863 
L 1159 1991 
L 2875 3500 
L 3609 3500 
L 1753 1863 
L 3688 0 
L 2938 0 
L 1159 1709 
L 1159 0 
L 581 0 
L 581 4863 
z
" transform="scale(0.015625)"/>
       <path id="DejaVuSans-20" transform="scale(0.015625)"/>
       <path id="DejaVuSans-75" d="M 544 1381 
L 544 3500 
L 1119 3500 
L 1119 1403 
Q 1119 906 1312 657 
Q 1506 409 1894 409 
Q 2359 409 2629 706 
Q 2900 1003 2900 1516 
L 2900 3500 
L 3475 3500 
L 3475 0 
L 2900 0 
L 2900 538 
Q 2691 219 2414 64 
Q 2138 -91 1772 -91 
Q 1169 -91 856 284 
Q 544 659 544 1381 
z
M 1991 3584 
L 1991 3584 
z
" transform="scale(0.015625)"/>
       <path id="DejaVuSans-6d" d="M 3328 2828 
Q 3544 3216 3844 3400 
Q 4144 3584 4550 3584 
Q 5097 3584 5394 3201 
Q 5691 2819 5691 2113 
L 5691 0 
L 5113 0 
L 5113 2094 
Q 5113 2597 4934 2840 
Q 4756 3084 4391 3084 
Q 3944 3084 3684 2787 
Q 3425 2491 3425 1978 
L 3425 0 
L 2847 0 
L 2847 2094 
Q 2847 2600 2669 2842 
Q 2491 3084 2119 3084 
Q 1678 3084 1418 2786 
Q 1159 2488 1159 1978 
L 1159 0 
L 581 0 
L 581 3500 
L 1159 3500 
L 1159 2956 
Q 1356 3278 1631 3431 
Q 1906 3584 2284 3584 
Q 2666 3584 2933 3390 
Q 3200 3197 3328 2828 
z
" transform="scale(0.015625)"/>
      </defs>
      <use xlink:href="#DejaVuSans-42"/>
      <use xlink:href="#DejaVuSans-6c" x="68.603516"/>
      <use xlink:href="#DejaVuSans-6f" x="96.386719"/>
      <use xlink:href="#DejaVuSans-63" x="157.568359"/>
      <use xlink:href="#DejaVuSans-6b" x="212.548828"/>
      <use xlink:href="#DejaVuSans-20" x="270.458984"/>
      <use xlink:href="#DejaVuSans-6e" x="302.246094"/>
      <use xlink:href="#DejaVuSans-75" x="365.625"/>
      <use xlink:href="#DejaVuSans-6d" x="429.003906"/>
     </g>
    </g>
   </g>
   <g id="line2d_17">
    <path d="M 73.832727 207.34848 
L 74.646398 202.02624 
L 75.460068 228.63744 
L 76.273739 217.10592 
L 77.087409 213.55776 
L 77.90108 193.59936 
L 78.714751 184.72896 
L 79.528421 178.51968 
L 80.342092 175.85856 
L 81.155762 177.63264 
L 81.969433 171.86688 
L 82.783103 178.07616 
L 83.596774 181.1808 
L 84.410444 180.29376 
L 85.224115 190.49472 
L 86.037785 188.72064 
L 86.851456 190.49472 
L 87.665126 183.3984 
L 88.478797 181.1808 
L 89.292468 187.8336 
L 90.106138 178.07616 
L 90.919809 176.30208 
L 91.733479 173.19744 
L 92.54715 177.18912 
L 93.36082 172.3104 
L 94.174491 185.17248 
L 94.988161 171.86688 
L 95.801832 176.30208 
L 96.615502 176.30208 
L 97.429173 175.41504 
L 98.242843 173.64096 
L 99.056514 182.51136 
L 99.870185 185.17248 
L 100.683855 217.54944 
L 101.497526 272.1024 
L 102.311196 266.33664 
L 103.124867 272.1024 
L 103.938537 266.78016 
L 104.752208 273.43296 
L 105.565878 272.1024 
L 106.379549 260.12736 
L 107.193219 272.1024 
L 108.00689 272.98944 
L 108.82056 268.11072 
L 109.634231 265.4496 
L 110.447902 272.1024 
L 111.261572 272.1024 
L 112.075243 267.22368 
L 112.888913 269.44128 
L 113.702584 272.1024 
L 114.516254 260.57088 
L 115.329925 272.1024 
L 116.143595 264.11904 
L 116.957266 266.78016 
L 117.770936 272.1024 
L 118.584607 272.1024 
L 119.398278 271.65888 
L 120.211948 268.55424 
L 121.025619 262.78848 
L 121.839289 271.65888 
L 122.65296 272.1024 
L 123.46663 268.11072 
L 124.280301 269.8848 
L 125.093971 268.99776 
L 125.907642 263.67552 
L 126.721312 272.1024 
L 127.534983 261.45792 
L 128.348653 272.1024 
L 129.162324 272.1024 
L 129.975995 262.34496 
L 130.789665 272.1024 
L 131.603336 262.34496 
L 132.417006 263.67552 
L 133.230677 262.78848 
L 134.044347 264.11904 
L 135.671688 272.1024 
L 136.485359 270.77184 
L 137.299029 267.6672 
L 138.92637 254.80512 
L 139.740041 272.1024 
L 140.553712 273.43296 
L 141.367382 272.1024 
L 142.181053 271.65888 
L 142.994723 259.24032 
L 143.808394 270.77184 
L 144.622064 262.78848 
L 145.435735 268.55424 
L 146.249405 265.00608 
L 147.063076 258.7968 
L 147.876746 259.24032 
L 148.690417 251.70048 
L 149.504087 252.58752 
L 150.317758 258.35328 
L 151.131429 268.11072 
L 151.945099 267.6672 
L 152.75877 264.56256 
L 153.57244 266.78016 
L 154.386111 260.57088 
L 155.199781 267.6672 
L 156.013452 272.1024 
L 157.640793 272.1024 
L 158.454463 268.11072 
L 159.268134 268.11072 
L 160.081805 268.99776 
L 160.895475 262.78848 
L 161.709146 264.11904 
L 162.522816 272.1024 
L 163.336487 252.58752 
L 164.150157 266.33664 
L 164.963828 263.232 
L 165.777498 265.89312 
L 166.591169 272.1024 
L 167.404839 265.4496 
L 168.21851 267.6672 
L 169.03218 267.6672 
L 169.845851 258.7968 
L 170.659522 272.1024 
L 171.473192 261.90144 
L 172.286863 272.1024 
L 173.100533 272.1024 
L 173.914204 263.232 
L 174.727874 266.33664 
L 175.541545 272.1024 
L 176.355215 263.67552 
L 177.168886 272.1024 
L 177.982556 272.1024 
L 178.796227 267.22368 
L 179.609897 267.6672 
L 180.423568 272.1024 
L 181.237239 264.56256 
L 182.050909 266.78016 
L 182.86458 264.11904 
L 183.67825 273.43296 
L 184.491921 272.54592 
L 185.305591 272.1024 
L 186.119262 268.55424 
L 186.932932 262.34496 
L 187.746603 272.1024 
L 188.560273 273.43296 
L 189.373944 268.11072 
L 190.187614 272.1024 
L 191.001285 261.90144 
L 191.814956 272.1024 
L 192.628626 272.1024 
L 193.442297 270.77184 
L 194.255967 272.1024 
L 195.069638 266.33664 
L 195.883308 272.1024 
L 196.696979 272.1024 
L 197.510649 263.67552 
L 198.32432 272.1024 
L 199.13799 259.24032 
L 200.765332 272.1024 
L 201.579002 272.1024 
L 202.392673 270.77184 
L 203.206343 268.99776 
L 204.020014 235.29024 
L 204.833684 271.21536 
L 205.647355 272.1024 
L 206.461025 262.34496 
L 207.274696 271.65888 
L 208.088366 266.78016 
L 208.902037 267.22368 
L 209.715707 262.78848 
L 210.529378 267.22368 
L 211.343049 264.56256 
L 212.156719 265.89312 
L 212.97039 272.1024 
L 214.597731 272.1024 
L 215.411401 261.45792 
L 216.225072 272.1024 
L 217.038742 258.35328 
L 217.852413 272.54592 
L 218.666083 268.55424 
L 219.479754 267.6672 
L 220.293424 272.1024 
L 221.107095 272.1024 
L 221.920766 268.11072 
L 222.734436 268.55424 
L 223.548107 266.33664 
L 224.361777 272.1024 
L 225.175448 252.144 
L 225.989118 267.6672 
L 226.802789 266.78016 
L 227.616459 272.1024 
L 228.43013 263.67552 
L 229.2438 272.1024 
L 230.057471 266.78016 
L 230.871141 262.78848 
L 231.684812 253.91808 
L 232.498483 266.78016 
L 233.312153 272.1024 
L 234.125824 272.1024 
L 234.939494 257.46624 
L 235.753165 263.232 
L 236.566835 267.6672 
L 237.380506 269.44128 
L 238.194176 272.1024 
L 239.821517 263.67552 
L 240.635188 272.1024 
L 241.448859 269.8848 
L 242.262529 262.78848 
L 243.0762 271.21536 
L 243.88987 272.1024 
L 244.703541 272.1024 
L 245.517211 263.67552 
L 246.330882 264.11904 
L 247.144552 264.11904 
L 247.958223 271.65888 
L 248.771893 272.1024 
L 249.585564 256.13568 
L 250.399234 272.1024 
L 251.212905 266.78016 
L 252.026576 272.1024 
L 252.840246 272.1024 
L 253.653917 270.77184 
L 254.467587 261.45792 
L 255.281258 262.78848 
L 256.094928 272.1024 
L 256.908599 265.4496 
L 257.722269 265.4496 
L 258.53594 266.78016 
L 259.34961 266.78016 
L 260.163281 272.1024 
L 260.976951 257.46624 
L 261.790622 268.11072 
L 262.604293 272.1024 
L 263.417963 260.12736 
L 264.231634 260.12736 
L 265.045304 269.44128 
L 266.672645 272.1024 
L 267.486316 257.46624 
L 268.299986 268.11072 
L 269.113657 272.1024 
L 269.927327 268.11072 
L 270.740998 262.78848 
L 271.554668 266.78016 
L 272.368339 268.11072 
L 273.18201 272.1024 
L 274.809351 272.1024 
L 275.623021 268.11072 
L 276.436692 272.1024 
L 277.250362 266.78016 
L 278.064033 268.11072 
L 278.877703 268.11072 
L 279.691374 266.78016 
L 280.505044 268.11072 
L 281.318715 272.1024 
L 282.132386 262.78848 
L 282.946056 262.78848 
L 283.759727 272.1024 
L 284.573397 272.1024 
L 285.387068 262.78848 
L 286.200738 272.1024 
L 287.014409 261.45792 
L 287.828079 272.1024 
L 288.64175 268.11072 
L 289.45542 265.4496 
L 291.082761 268.11072 
L 291.896432 272.1024 
L 292.710103 262.78848 
L 293.523773 268.11072 
L 294.337444 258.7968 
L 295.151114 268.11072 
L 295.964785 268.11072 
L 296.778455 272.1024 
L 297.592126 268.11072 
L 298.405796 272.1024 
L 299.219467 272.1024 
L 300.033137 264.11904 
L 300.846808 264.11904 
L 301.660478 258.7968 
L 302.474149 270.77184 
L 303.28782 268.11072 
L 304.10149 258.7968 
L 304.915161 258.7968 
L 305.728831 254.80512 
L 306.542502 262.78848 
L 307.356172 272.1024 
L 308.169843 256.13568 
L 308.983513 258.7968 
L 309.797184 268.11072 
L 310.610854 266.78016 
L 311.424525 266.78016 
L 312.238195 272.1024 
L 313.051866 268.11072 
L 313.865537 268.11072 
L 314.679207 272.1024 
L 316.306548 262.78848 
L 317.120219 272.1024 
L 317.933889 272.1024 
L 318.74756 268.11072 
L 319.56123 268.11072 
L 320.374901 272.1024 
L 321.188571 272.1024 
L 322.815913 264.11904 
L 323.629583 269.44128 
L 325.256924 266.78016 
L 326.070595 265.89312 
L 326.884265 272.1024 
L 327.697936 272.1024 
L 328.511606 266.78016 
L 329.325277 258.7968 
L 330.138947 273.43296 
L 330.952618 266.78016 
L 331.766288 266.78016 
L 332.579959 273.43296 
L 333.39363 268.11072 
L 334.2073 266.78016 
L 335.020971 261.45792 
L 335.834641 268.11072 
L 336.648312 262.78848 
L 337.461982 268.11072 
L 338.275653 261.45792 
L 339.089323 261.45792 
L 339.902994 246.82176 
L 340.716664 264.11904 
L 341.530335 272.1024 
L 342.344005 272.1024 
L 343.157676 268.11072 
L 343.971347 272.1024 
L 344.785017 268.11072 
L 345.598688 266.78016 
L 346.412358 272.1024 
L 347.226029 266.78016 
L 348.039699 272.1024 
L 348.85337 272.1024 
L 349.66704 266.78016 
L 350.480711 272.1024 
L 351.294381 260.12736 
L 352.108052 268.11072 
L 352.921722 267.6672 
L 353.735393 263.232 
L 354.549064 272.1024 
L 355.362734 265.00608 
L 356.176405 273.43296 
L 356.990075 272.54592 
L 357.803746 272.1024 
L 361.058428 272.1024 
L 361.872098 262.78848 
L 362.685769 268.99776 
L 363.49944 273.43296 
L 364.31311 272.1024 
L 366.754122 272.1024 
L 367.567792 268.99776 
L 368.381463 272.1024 
L 369.195133 272.54592 
L 370.008804 272.1024 
L 370.822474 268.99776 
L 371.636145 268.55424 
L 372.449815 272.1024 
L 373.263486 272.1024 
L 374.077157 271.21536 
L 374.890827 273.43296 
L 375.704498 262.78848 
L 376.518168 269.44128 
L 377.331839 264.56256 
L 378.145509 273.43296 
L 378.95918 272.98944 
L 379.77285 272.98944 
L 380.586521 259.68384 
L 381.400191 272.1024 
L 382.213862 272.1024 
L 383.027532 267.22368 
L 383.841203 273.43296 
L 384.654874 268.11072 
L 385.468544 272.1024 
L 386.282215 268.11072 
L 387.909556 268.11072 
L 388.723226 265.4496 
L 389.536897 272.1024 
L 390.350567 270.77184 
L 391.164238 272.98944 
L 391.977908 272.1024 
L 392.791579 272.1024 
L 393.605249 268.11072 
L 394.41892 272.1024 
L 395.232591 268.11072 
L 396.046261 272.1024 
L 396.859932 271.21536 
L 397.673602 264.11904 
L 398.487273 272.1024 
L 398.487273 272.1024 
" clip-path="url(#p7c5bdbc8bb)" style="fill: none; stroke: #1f77b4; stroke-width: 1.5; stroke-linecap: square"/>
   </g>
   <g id="line2d_18">
    <path d="M 73.832727 192.2688 
L 74.646398 192.2688 
L 75.460068 112.4352 
L 76.273739 165.6576 
L 77.087409 183.3984 
L 77.90108 165.6576 
L 78.714751 183.3984 
L 79.528421 165.6576 
L 81.155762 183.3984 
L 81.969433 165.6576 
L 82.783103 183.3984 
L 83.596774 165.6576 
L 84.410444 210.0096 
L 85.224115 210.0096 
L 86.037785 183.3984 
L 86.851456 174.528 
L 88.478797 174.528 
L 89.292468 201.1392 
L 90.106138 174.528 
L 99.056514 174.528 
L 99.870185 272.1024 
L 398.487273 272.1024 
L 398.487273 272.1024 
" clip-path="url(#p7c5bdbc8bb)" style="fill: none; stroke: #ff7f0e; stroke-width: 1.5; stroke-linecap: square"/>
   </g>
   <g id="patch_3">
    <path d="M 57.6 307.584 
L 57.6 41.472 
" style="fill: none; stroke: #000000; stroke-width: 0.8; stroke-linejoin: miter; stroke-linecap: square"/>
   </g>
   <g id="patch_4">
    <path d="M 414.72 307.584 
L 414.72 41.472 
" style="fill: none; stroke: #000000; stroke-width: 0.8; stroke-linejoin: miter; stroke-linecap: square"/>
   </g>
   <g id="patch_5">
    <path d="M 57.6 307.584 
L 414.72 307.584 
" style="fill: none; stroke: #000000; stroke-width: 0.8; stroke-linejoin: miter; stroke-linecap: square"/>
   </g>
   <g id="patch_6">
    <path d="M 57.6 41.472 
L 414.72 41.472 
" style="fill: none; stroke: #000000; stroke-width: 0.8; stroke-linejoin: miter; stroke-linecap: square"/>
   </g>
   <g id="legend_1">
    <g id="patch_7">
     <path d="M 334.654375 78.82825 
L 407.72 78.82825 
Q 409.72 78.82825 409.72 76.82825 
L 409.72 48.472 
Q 409.72 46.472 407.72 46.472 
L 334.654375 46.472 
Q 332.654375 46.472 332.654375 48.472 
L 332.654375 76.82825 
Q 332.654375 78.82825 334.654375 78.82825 
z
" style="fill: #ffffff; opacity: 0.8; stroke: #cccccc; stroke-linejoin: miter"/>
    </g>
    <g id="line2d_19">
     <path d="M 336.654375 54.570437 
L 346.654375 54.570437 
L 356.654375 54.570437 
" style="fill: none; stroke: #1f77b4; stroke-width: 1.5; stroke-linecap: square"/>
    </g>
    <g id="text_19">
     <!-- Average -->
     <g transform="translate(364.654375 58.070437)scale(0.1 -0.1)">
      <defs>
       <path id="DejaVuSans-41" d="M 2188 4044 
L 1331 1722 
L 3047 1722 
L 2188 4044 
z
M 1831 4666 
L 2547 4666 
L 4325 0 
L 3669 0 
L 3244 1197 
L 1141 1197 
L 716 0 
L 50 0 
L 1831 4666 
z
" transform="scale(0.015625)"/>
       <path id="DejaVuSans-76" d="M 191 3500 
L 800 3500 
L 1894 563 
L 2988 3500 
L 3597 3500 
L 2284 0 
L 1503 0 
L 191 3500 
z
" transform="scale(0.015625)"/>
       <path id="DejaVuSans-67" d="M 2906 1791 
Q 2906 2416 2648 2759 
Q 2391 3103 1925 3103 
Q 1463 3103 1205 2759 
Q 947 2416 947 1791 
Q 947 1169 1205 825 
Q 1463 481 1925 481 
Q 2391 481 2648 825 
Q 2906 1169 2906 1791 
z
M 3481 434 
Q 3481 -459 3084 -895 
Q 2688 -1331 1869 -1331 
Q 1566 -1331 1297 -1286 
Q 1028 -1241 775 -1147 
L 775 -588 
Q 1028 -725 1275 -790 
Q 1522 -856 1778 -856 
Q 2344 -856 2625 -561 
Q 2906 -266 2906 331 
L 2906 616 
Q 2728 306 2450 153 
Q 2172 0 1784 0 
Q 1141 0 747 490 
Q 353 981 353 1791 
Q 353 2603 747 3093 
Q 1141 3584 1784 3584 
Q 2172 3584 2450 3431 
Q 2728 3278 2906 2969 
L 2906 3500 
L 3481 3500 
L 3481 434 
z
" transform="scale(0.015625)"/>
      </defs>
      <use xlink:href="#DejaVuSans-41"/>
      <use xlink:href="#DejaVuSans-76" x="62.533203"/>
      <use xlink:href="#DejaVuSans-65" x="121.712891"/>
      <use xlink:href="#DejaVuSans-72" x="183.236328"/>
      <use xlink:href="#DejaVuSans-61" x="224.349609"/>
      <use xlink:href="#DejaVuSans-67" x="285.628906"/>
      <use xlink:href="#DejaVuSans-65" x="349.105469"/>
     </g>
    </g>
    <g id="line2d_20">
     <path d="M 336.654375 69.248562 
L 346.654375 69.248562 
L 356.654375 69.248562 
" style="fill: none; stroke: #ff7f0e; stroke-width: 1.5; stroke-linecap: square"/>
    </g>
    <g id="text_20">
     <!-- Best -->
     <g transform="translate(364.654375 72.748562)scale(0.1 -0.1)">
      <defs>
       <path id="DejaVuSans-73" d="M 2834 3397 
L 2834 2853 
Q 2591 2978 2328 3040 
Q 2066 3103 1784 3103 
Q 1356 3103 1142 2972 
Q 928 2841 928 2578 
Q 928 2378 1081 2264 
Q 1234 2150 1697 2047 
L 1894 2003 
Q 2506 1872 2764 1633 
Q 3022 1394 3022 966 
Q 3022 478 2636 193 
Q 2250 -91 1575 -91 
Q 1294 -91 989 -36 
Q 684 19 347 128 
L 347 722 
Q 666 556 975 473 
Q 1284 391 1588 391 
Q 1994 391 2212 530 
Q 2431 669 2431 922 
Q 2431 1156 2273 1281 
Q 2116 1406 1581 1522 
L 1381 1569 
Q 847 1681 609 1914 
Q 372 2147 372 2553 
Q 372 3047 722 3315 
Q 1072 3584 1716 3584 
Q 2034 3584 2315 3537 
Q 2597 3491 2834 3397 
z
" transform="scale(0.015625)"/>
      </defs>
      <use xlink:href="#DejaVuSans-42"/>
      <use xlink:href="#DejaVuSans-65" x="68.603516"/>
      <use xlink:href="#DejaVuSans-73" x="130.126953"/>
      <use xlink:href="#DejaVuSans-74" x="182.226562"/>
     </g>
    </g>
   </g>
  </g>
 </g>
 <defs>
  <clipPath id="p7c5bdbc8bb">
   <rect x="57.6" y="41.472" width="357.12" height="266.112"/>
  </clipPath>
 </defs>
</svg>
